SplineFontDB: 1.0
FontName: NimbusSanL-BoldCondItal
FullName: Nimbus Sans L Condensed Bold Italic
FamilyName: Nimbus Sans L Condensed
Weight: Bold
Copyright: Copyright (URW)++,Copyright 1999 by (URW)++ Design & Development; Cyrillic glyphs added by Valek Filippov (C) 2001-2004
Version: 1.06
ItalicAngle: -9.9
UnderlinePosition: -100
UnderlineWidth: 50
Ascent: 800
Descent: 200
NeedsXUIDChange: 1
UniqueID: 4093816
FSType: 12
OS2WinAscent: 0
OS2WinAOffset: 1
OS2WinDescent: 0
OS2WinDOffset: 1
HheadAscent: 0
HheadAOffset: 1
HheadDescent: 0
HheadDOffset: 1
ScriptLang: 2
 1 latn 1 dflt 
 1 DFLT 1 dflt 
Encoding: adobestandard
UnicodeInterp: none
DisplaySize: -36
AntiAlias: 1
FitToEm: 1
WinInfo: 27 27 12
BeginPrivate: 7
BlueValues 31 [-20 0 532 552 718 738 691 711]
BlueScale 8 0.039625
StdHW 5 [119]
StdVW 5 [120]
StemSnapH 200 [116 119 123 128] 
systemdict /internaldict known
{1183615869 systemdict /internaldict get exec
/StemSnapLength 2 copy known { get 4 lt } { pop pop true } ifelse }
{ true } ifelse { pop [119 128] } if
StemSnapV 2 []
ForceBold 5 false
EndPrivate
BeginChars: 741 634
StartChar: exclam
Encoding: 33 33 2
Width: 273
Flags: W
HStem: 0 21G<77 197> 698 20G<199 325>
DStem: 102 141 221 141 77 0 197 0 199 718 325 718 167 535 293 535
Fore
221 141 m 1
 197 0 l 1
 77 0 l 1
 102 141 l 1
 221 141 l 1
293 535 m 1
 202 199 l 1
 141 199 l 1
 167 535 l 1
 199 718 l 1
 325 718 l 1
 293 535 l 1
EndSplineSet
EndChar
StartChar: quotedbl
Encoding: 34 34 3
Width: 389
Flags: W
HStem: 698 20G<205 286 353 433>
DStem: 205 718 286 718 158 447 238 447 353 718 433 718 305 447 386 447
Fore
305 447 m 1
 353 718 l 1
 433 718 l 1
 386 447 l 1
 305 447 l 1
158 447 m 1
 205 718 l 1
 286 718 l 1
 238 447 l 1
 158 447 l 1
EndSplineSet
EndChar
StartChar: numbersign
Encoding: 35 35 4
Width: 456
Flags: W
HStem: 0 21G<71 148 228 305> 199 90<74 129 231 285 388 442> 409 90<134 189 292 346 448 502> 678 20G<272 349 429 506>
DStem: 129 199 206 199 71 0 148 0 189 409 266 409 154 289 231 289 272 698 349 698 215 499 292 499 285 199 362 199 228 0 305 0 346 409 423 409 311 289 388 289 429 698 506 698 371 499 448 499
Fore
468 289 m 1
 442 199 l 1
 362 199 l 1
 305 0 l 1
 228 0 l 1
 285 199 l 1
 206 199 l 1
 148 0 l 1
 71 0 l 1
 129 199 l 1
 49 199 l 1
 75 289 l 1
 154 289 l 1
 189 409 l 1
 109 409 l 1
 135 499 l 1
 215 499 l 1
 272 698 l 1
 349 698 l 1
 292 499 l 1
 371 499 l 1
 429 698 l 1
 506 698 l 1
 448 499 l 1
 528 499 l 1
 502 409 l 1
 423 409 l 1
 388 289 l 1
 468 289 l 1
346 409 m 1
 266 409 l 1
 231 289 l 1
 311 289 l 1
 346 409 l 1
EndSplineSet
EndChar
StartChar: dollar
Encoding: 36 36 5
Width: 456
Flags: W
VStem: 55 112<132 164> 121 109<458 503> 354 115<206 247> 404 106<539 558>
DStem: 207 -17 244 -17 190 -115 227 -115 262 299 296 282 225 89 263 89 315 604 353 604 285 431 320 417 345 775 382 775 333 710 371 710
Fore
507 501 m 1x50
 402 501 l 1
 403 517 404 530 404 541 c 0x50
 404 585 389 603 353 604 c 1
 320 417 l 1
 375 393 401 379 422 361 c 0
 453 334 469 296 469 247 c 0
 469 178 439 100 393 52 c 0
 352 9 314 -9 244 -17 c 1
 227 -115 l 1
 190 -115 l 1
 207 -17 l 1
 142 -8 112 4 87 33 c 0
 68 55 55 95 55 132 c 0
 55 154 58 182 63 215 c 1
 170 215 l 1
 168 196 167 178 167 164 c 0xa0
 167 121 183 101 225 89 c 1
 262 299 l 1
 216 315 194 326 174 341 c 0
 139 368 121 409 121 458 c 0
 121 527 152 605 198 651 c 0
 236 690 271 705 333 710 c 1
 345 775 l 1
 382 775 l 1
 371 710 l 1
 425 701 451 690 474 664 c 0
 496 639 510 597 510 554 c 0
 510 540 509 522 507 501 c 1x50
285 431 m 1
 315 604 l 1
 263 598 230 558 230 503 c 0
 230 464 245 445 285 431 c 1
296 282 m 1
 263 89 l 1
 317 96 354 144 354 206 c 0x20
 354 243 337 265 296 282 c 1
EndSplineSet
EndChar
StartChar: percent
Encoding: 37 37 6
Width: 729
Flags: W
HStem: -12 69<574 590> 297 69<620 638> 332 69<214 230> 641 69<261 278>
VStem: 112 80<429.03 462> 299 80<588 606> 472 80<92 110> 659 80<236 270>
DStem: 620 710 680 710 166 -19 227 -19
Fore
278 710 m 0xbf
 346 710 379 672 379 595 c 0
 379 512 352 419 316 378 c 0
 289 347 255 332 214 332 c 0
 147 332 112 371 112 445 c 0
 112 526 140 624 176 664 c 1
 202 695 237 710 278 710 c 0xbf
267 641 m 0
 250 641 236 633 228 618 c 0
 210 584 192 496 192 442 c 0
 192 415 203 401 224 401 c 0
 242 401 254 408 263 425 c 0
 280 455 299 547 299 601 c 0
 299 627 288 641 267 641 c 0
680 710 m 1
 227 -19 l 1
 166 -19 l 1
 620 710 l 1
 680 710 l 1
638 366 m 0xdf
 706 366 739 328 739 251 c 0
 739 168 712 75 676 34 c 0
 649 3 615 -12 574 -12 c 0
 507 -12 472 27 472 101 c 0
 472 182 500 281 536 320 c 0
 563 351 597 366 638 366 c 0xdf
626 297 m 0
 609 297 596 289 588 274 c 0
 570 240 552 152 552 98 c 0
 552 71 563 57 584 57 c 0
 602 57 614 64 623 81 c 0
 640 111 659 202 659 257 c 0
 659 284 648 297 626 297 c 0
EndSplineSet
EndChar
StartChar: ampersand
Encoding: 38 38 7
Width: 592
Flags: W
HStem: -19 118<229 260> 612 106<376 395>
VStem: 73 119<144 177> 209 107<517 542> 416 101<567 589>
DStem: 283 314 386 381 363 149 448 255
Fore
495 157 m 1
 574 0 l 1
 436 0 l 1
 406 61 l 1
 346 3 297 -19 229 -19 c 0
 134 -19 73 45 73 144 c 0
 73 245 124 328 226 394 c 2
 240 403 l 1
 218 445 209 477 209 517 c 0
 209 627 293 718 395 718 c 0
 468 718 517 666 517 589 c 0
 517 506 474 438 386 381 c 1
 448 255 l 1
 471 290 485 321 498 373 c 1
 600 373 l 1
 576 278 551 228 495 157 c 1
345 464 m 1
 397 501 416 530 416 569 c 0
 416 596 401 612 376 612 c 0
 343 612 316 580 316 542 c 0
 316 521 324 501 345 464 c 1
363 149 m 1
 283 314 l 1
 241 281 226 268 215 251 c 0
 200 230 192 203 192 177 c 0
 192 130 219 99 260 99 c 0
 293 99 323 114 363 149 c 1
EndSplineSet
EndChar
StartChar: quoteright
Encoding: 39 8217 8
Width: 228
Flags: W
HStem: 698 20G<182 297>
Fore
160 591 m 1
 182 718 l 1
 297 718 l 1
 279 616 l 1
 261 519 216 465 137 445 c 1
 146 496 l 1
 193 514 212 538 223 591 c 1
 160 591 l 1
EndSplineSet
KernsSLIF: 121 -2 1 0 118 -3 1 0 115 -21 1 0 114 -11 1 0 46 -35 1 0 111 -28 1 0 100 -23 1 0 44 -35 1 0 262 -59 1 0 256 -59 1 0 257 -59 1 0 225 -55 1 0 65 -59 1 0
EndChar
StartChar: parenleft
Encoding: 40 40 9
Width: 273
Flags: W
HStem: 714 20G<301 385>
VStem: 62 113<78 126>
Fore
221 -207 m 1
 136 -207 l 1
 82 -76 62 12 62 126 c 0
 62 228 83 334 123 435 c 0
 164 539 207 611 301 734 c 1
 385 734 l 1
 295 594 255 508 220 387 c 0
 192 286 175 171 175 78 c 0
 175 -18 186 -85 221 -207 c 1
EndSplineSet
EndChar
StartChar: parenright
Encoding: 41 41 10
Width: 273
Flags: W
HStem: 714 20G<143 228>
VStem: 189 113<399 448>
Fore
143 734 m 1
 228 734 l 1
 283 599 302 513 302 399 c 0
 302 298 281 193 241 91 c 0
 199 -15 156 -87 63 -207 c 1
 -21 -207 l 1
 68 -70 109 16 144 139 c 0
 172 240 189 354 189 448 c 0
 189 543 178 611 143 734 c 1
EndSplineSet
EndChar
StartChar: asterisk
Encoding: 42 42 11
Width: 319
Flags: W
HStem: 698 20G<250 319>
DStem: 200 528 243 478 127 431 171 387 243 478 303 528 283 387 342 431 250 718 319 718 229 599 299 599
Fore
387 633 m 1
 394 560 l 1
 303 528 l 1
 342 431 l 1
 283 387 l 1
 243 478 l 1
 171 387 l 1
 127 431 l 1
 200 528 l 1
 120 560 l 1
 152 633 l 1
 229 599 l 1
 250 718 l 1
 319 718 l 1
 299 599 l 1
 387 633 l 1
EndSplineSet
EndChar
StartChar: plus
Encoding: 43 43 12
Width: 479
Flags: W
HStem: 0 21G<193 285> 197 112<86 228 339 480>
DStem: 228 197 320 197 193 0 285 0 282 506 374 506 247 309 339 309
Fore
247 309 m 1
 282 506 l 1
 374 506 l 1
 339 309 l 1
 500 309 l 1
 480 197 l 1
 320 197 l 1
 285 0 l 1
 193 0 l 1
 228 197 l 1
 67 197 l 1
 87 309 l 1
 247 309 l 1
EndSplineSet
EndChar
StartChar: comma
Encoding: 44 44 13
Width: 228
Flags: W
HStem: -20 20G<52 121>
DStem: 78 146 201 146 52 0 179 20
Fore
201 146 m 1
 179 20 l 1
 160 -86 109 -148 23 -168 c 1
 32 -115 l 1
 83 -96 105 -67 121 0 c 1
 52 0 l 1
 78 146 l 1
 201 146 l 1
EndSplineSet
KernsSLIF: 39 -29 1 0 186 -27 1 0 49 -65 1 0
EndChar
StartChar: hyphen
Encoding: 45 45 14
Width: 273
Flags: W
HStem: 215 130<82 288>
Fore
311 345 m 1
 288 215 l 1
 60 215 l 1
 83 345 l 1
 311 345 l 1
EndSplineSet
KernsSLIF: 89 -52 1 0 87 -8 1 0 86 -19 1 0 84 -46 1 0 225 6 1 0
EndChar
StartChar: period
Encoding: 46 46 15
Width: 228
Flags: W
HStem: 0 21G<52 175>
DStem: 78 146 201 146 52 0 175 0
Fore
201 146 m 1
 175 0 l 1
 52 0 l 1
 78 146 l 1
 201 146 l 1
EndSplineSet
KernsSLIF: 39 -29 1 0 186 -27 1 0 49 -65 1 0
EndChar
StartChar: slash
Encoding: 47 47 16
Width: 228
Flags: W
HStem: -19 21G<-30 66> 717 20G<287 383>
DStem: 287 737 383 737 -30 -19 66 -19
Fore
383 737 m 1
 66 -19 l 1
 -30 -19 l 1
 287 737 l 1
 383 737 l 1
EndSplineSet
EndChar
StartChar: zero
Encoding: 48 48 17
Width: 456
Flags: W
HStem: -19 112<226 247> 598 112<331 352>
VStem: 71 115<156.867 206> 392 114<515 526>
Fore
352 710 m 0
 454 710 506 644 506 515 c 0
 506 350 455 152 392 69 c 0
 347 9 294 -19 226 -19 c 0
 170 -19 127 2 104 40 c 0
 83 75 71 125 71 178 c 0
 71 335 125 543 186 623 c 0
 230 681 285 710 352 710 c 0
333 598 m 0
 301 598 275 579 259 544 c 0
 238 501 230 471 212 379 c 0
 194 284 186 225 186 178 c 0
 186 121 206 93 245 93 c 0
 277 93 301 110 320 147 c 0
 352 212 392 413 392 515 c 0
 392 570 372 598 333 598 c 0
EndSplineSet
KernsSLIF: 55 -11 1 0 49 -20 1 0 52 2 1 0
EndChar
StartChar: one
Encoding: 49 49 18
Width: 456
Flags: W
HStem: 0 21G<195 310> 489 98<158 281> 690 20G<340 434>
DStem: 281 489 434 710 195 0 310 0
Fore
142 489 m 1
 159 587 l 1
 175 587 l 2
 263 587 318 628 340 710 c 1
 434 710 l 1
 310 0 l 1
 195 0 l 1
 281 489 l 1
 142 489 l 1
EndSplineSet
KernsSLIF: 48 -39 1 0 50 -47 1 0 51 -46 1 0 54 -39 1 0 55 -55 1 0 46 -39 1 0 49 -74 1 0 57 -42 1 0 52 -57 1 0 53 -41 1 0 56 -41 1 0 44 -39 1 0
EndChar
StartChar: two
Encoding: 50 50 19
Width: 456
Flags: W
HStem: 0 124<188 419> 592 118<322 343>
VStem: 391 117<514 539>
Fore
219 459 m 1
 108 459 l 1
 125 542 141 581 173 624 c 0
 214 679 275 710 343 710 c 0
 444 710 508 644 508 539 c 0
 508 464 480 390 432 334 c 0
 403 301 400 299 293 219 c 0
 219 163 205 150 188 124 c 1
 441 124 l 1
 419 0 l 1
 21 0 l 1
 52 144 95 201 270 332 c 1
 358 400 391 450 391 515 c 0
 391 563 366 592 324 592 c 0
 267 592 238 555 219 459 c 1
EndSplineSet
KernsSLIF: 55 -10 1 0 49 -21 1 0 52 -21 1 0
EndChar
StartChar: three
Encoding: 51 51 20
Width: 456
Flags: W
HStem: -19 112<219 237> 311 100<229 250> 598 112<321 345>
VStem: 54 114<143 174> 344 120<234 257> 381 118<530 559>
Fore
229 311 m 1xf8
 247 411 l 1
 265 411 l 2
 303 411 328 419 348 439 c 0
 368 459 381 495 381 530 c 0
 381 574 360 598 321 598 c 0
 269 598 237 560 223 482 c 1
 117 482 l 1
 131 551 145 586 175 625 c 0
 215 679 277 710 345 710 c 0
 440 710 499 653 499 559 c 0xf4
 499 476 465 413 399 376 c 1
 415 368 423 363 430 356 c 0
 450 335 464 295 464 257 c 0
 464 194 440 125 402 75 c 0
 356 14 291 -19 219 -19 c 0
 117 -19 54 43 54 143 c 0
 54 161 56 188 61 218 c 1
 173 218 l 1
 169 197 168 186 168 174 c 0
 168 123 192 93 235 93 c 0
 294 93 344 158 344 236 c 0
 344 290 313 310 229 311 c 1xf8
EndSplineSet
KernsSLIF: 55 -13 1 0 49 -27 1 0 52 -1 1 0
EndChar
StartChar: four
Encoding: 52 52 21
Width: 456
Flags: W
HStem: 0 21G<252 366> 157 109<153 279 413 458> 690 20G<360 490>
DStem: 279 157 394 157 252 0 366 0 354 575 490 710 298 266 413 266 360 710 354 575 71 278 153 266
Fore
477 266 m 1
 458 157 l 1
 394 157 l 1
 366 0 l 1
 252 0 l 1
 279 157 l 1
 50 157 l 1
 71 278 l 1
 360 710 l 1
 490 710 l 1
 413 266 l 1
 477 266 l 1
153 266 m 1
 298 266 l 1
 354 575 l 1
 153 266 l 1
EndSplineSet
KernsSLIF: 55 -27 1 0 49 -46 1 0 52 3 1 0
EndChar
StartChar: five
Encoding: 53 53 22
Width: 456
Flags: W
HStem: -19 112<213 234> 353 112<279 325> 580 118<202 501>
VStem: 53 117<143 169> 348 122<265 295>
DStem: 202 698 265 580 94 308 217 426
Fore
265 580 m 1
 217 426 l 1
 256 454 286 465 325 465 c 0
 413 465 470 398 470 295 c 0
 470 220 443 136 398 77 c 0
 353 16 286 -19 213 -19 c 0
 118 -19 53 46 53 143 c 0
 53 155 54 171 56 190 c 1
 171 190 l 1
 170 181 170 176 170 169 c 0
 170 121 194 93 234 93 c 0
 297 93 348 171 348 265 c 0
 348 322 324 353 279 353 c 0
 245 353 219 337 196 302 c 1
 94 308 l 1
 202 698 l 1
 522 698 l 1
 501 580 l 1
 265 580 l 1
EndSplineSet
KernsSLIF: 55 -10 1 0 49 -30 1 0
EndChar
StartChar: six
Encoding: 54 54 23
Width: 456
Flags: W
HStem: -19 112<229 249> 347 112<288 328> 598 112<338 359>
VStem: 70 107<172 206> 355 117<265 291> 394 113<530 555>
Fore
507 530 m 1xf4
 393 530 l 1
 394 535 394 540 394 542 c 0xf4
 394 577 373 598 339 598 c 0
 278 598 241 541 207 397 c 1
 243 442 277 459 328 459 c 0
 417 459 472 395 472 291 c 0xf8
 472 215 444 133 399 72 c 0
 353 12 295 -19 229 -19 c 0
 127 -19 70 53 70 182 c 0
 70 306 106 473 153 564 c 0
 201 658 275 710 359 710 c 0
 457 710 507 657 507 555 c 2
 507 530 l 1xf4
288 347 m 0
 225 347 177 277 177 187 c 0
 177 130 205 93 247 93 c 0
 306 93 355 172 355 265 c 0xf8
 355 315 329 347 288 347 c 0
EndSplineSet
KernsSLIF: 55 -9 1 0 49 -23 1 0
EndChar
StartChar: seven
Encoding: 55 55 24
Width: 456
Flags: W
HStem: 0 21G<102 220> 574 124<143 410>
Fore
555 698 m 1
 536 590 l 1
 374 412 273 223 220 0 c 1
 102 0 l 1
 150 207 255 402 410 574 c 1
 120 574 l 1
 144 698 l 1
 555 698 l 1
EndSplineSet
KernsSLIF: 50 -8 1 0 51 -9 1 0 54 -16 1 0 55 5 1 0 46 -77 1 0 49 -14 1 0 52 -59 1 0 53 -20 1 0 56 -11 1 0 44 -77 1 0 58 -48 1 0
EndChar
StartChar: eight
Encoding: 56 56 25
Width: 456
Flags: W
HStem: -19 112<225 247> 316 106<283 302> 598 112<332 351>
VStem: 57 121<149 173> 131 111<476 493> 350 122<235 263> 391 114<532 562>
Fore
410 382 m 1xea
 456 347 472 317 472 263 c 0
 472 199 447 127 408 75 c 0
 362 13 298 -19 225 -19 c 0
 119 -19 57 43 57 149 c 0xf4
 57 195 68 244 87 282 c 0
 108 325 132 349 181 377 c 1
 144 405 131 432 131 477 c 0
 131 606 229 710 351 710 c 0
 445 710 505 652 505 562 c 0
 505 484 472 421 410 382 c 1xea
334 598 m 0
 283 598 242 551 242 491 c 0
 242 450 266 422 302 422 c 0
 352 422 391 471 391 532 c 0xea
 391 573 370 598 334 598 c 0
283 316 m 0
 224 316 178 254 178 173 c 0
 178 123 203 93 245 93 c 0
 302 93 350 158 350 235 c 0xf4
 350 286 325 316 283 316 c 0
EndSplineSet
KernsSLIF: 55 -10 1 0 49 -24 1 0 52 2 1 0
EndChar
StartChar: nine
Encoding: 57 57 26
Width: 456
Flags: W
HStem: -19 112<211 232> 233 112<242 283> 595 115<325 346>
VStem: 64 115<135 164> 100 118<400 426> 395 109<492 526>
Fore
65 164 m 1xf4
 179 164 l 1xf4
 178 115 195 93 232 93 c 0
 263 93 290 110 314 147 c 0
 336 181 349 218 365 296 c 1
 330 251 295 233 242 233 c 0
 155 233 100 297 100 400 c 0xec
 100 477 128 564 170 620 c 0
 214 678 276 710 346 710 c 0
 448 710 504 638 504 506 c 0
 504 355 452 164 389 81 c 0
 338 14 279 -19 211 -19 c 0
 123 -19 64 43 64 135 c 0
 64 143 64 153 65 164 c 1xf4
327 595 m 0
 263 595 218 525 218 424 c 0xec
 218 373 241 345 283 345 c 0
 347 345 395 415 395 509 c 0
 395 564 371 595 327 595 c 0
EndSplineSet
KernsSLIF: 55 -14 1 0 49 -21 1 0
EndChar
StartChar: colon
Encoding: 58 58 27
Width: 273
Flags: W
HStem: 0 21G<75 198>
DStem: 100 146 224 146 75 0 198 0 165 512 288 512 139 366 263 366
Fore
224 146 m 1
 198 0 l 1
 75 0 l 1
 100 146 l 1
 224 146 l 1
288 512 m 1
 263 366 l 1
 139 366 l 1
 165 512 l 1
 288 512 l 1
EndSplineSet
EndChar
StartChar: semicolon
Encoding: 59 59 28
Width: 273
Flags: W
HStem: -20 20G<75 144>
DStem: 101 146 224 146 75 0 202 20 165 512 288 512 139 366 263 366
Fore
224 146 m 1
 202 20 l 1
 186 -62 158 -111 110 -141 c 0
 81 -159 64 -166 46 -168 c 1
 55 -115 l 1
 106 -96 128 -67 144 0 c 1
 75 0 l 1
 101 146 l 1
 224 146 l 1
288 512 m 1
 263 366 l 1
 139 366 l 1
 165 512 l 1
 288 512 l 1
EndSplineSet
EndChar
StartChar: less
Encoding: 60 60 29
Width: 479
Flags: W
DStem: 67 199 207 253 443 -15 465 107 537 521 516 399 86 307 207 253
Fore
443 -15 m 1
 67 199 l 1
 86 307 l 1
 537 521 l 1
 516 399 l 1
 207 253 l 1
 465 107 l 1
 443 -15 l 1
EndSplineSet
EndChar
StartChar: equal
Encoding: 61 61 30
Width: 479
Flags: W
HStem: 87 112<66 461> 307 112<105 499>
Fore
519 419 m 1
 499 307 l 1
 86 307 l 1
 106 419 l 1
 519 419 l 1
481 199 m 1
 461 87 l 1
 48 87 l 1
 67 199 l 1
 481 199 l 1
EndSplineSet
EndChar
StartChar: greater
Encoding: 62 62 31
Width: 479
Flags: W
DStem: 102 399 124 521 360 253 500 307 360 253 481 199 51 107 30 -15
Fore
30 -15 m 1
 51 107 l 1
 360 253 l 1
 102 399 l 1
 124 521 l 1
 500 307 l 1
 481 199 l 1
 30 -15 l 1
EndSplineSet
EndChar
StartChar: question
Encoding: 63 63 32
Width: 501
Flags: W
HStem: 0 21G<195 315> 609 118<352 374>
VStem: 424 126<538 565>
DStem: 220 141 339 141 195 0 315 0
Fore
343 208 m 1
 235 208 l 1
 253 315 273 349 353 411 c 0
 404 450 424 487 424 538 c 0
 424 583 400 609 357 609 c 0
 328 609 301 595 283 570 c 0
 273 557 258 525 254 509 c 1
 251 493 l 1
 135 493 l 1
 150 563 164 597 194 636 c 0
 238 694 304 727 374 727 c 0
 410 727 447 718 476 702 c 0
 524 677 550 629 550 565 c 0
 550 510 533 456 504 416 c 0
 484 388 462 367 414 330 c 0
 367 294 355 274 343 208 c 1
339 141 m 1
 315 0 l 1
 195 0 l 1
 220 141 l 1
 339 141 l 1
EndSplineSet
EndChar
StartChar: at
Encoding: 64 64 33
Width: 800
Flags: W
HStem: -19 80<412 435> 137 100<381 420> 461 97<487 502> 657 80<519 547>
VStem: 152 82<268 302> 277 92<272 300> 544 29<240 398> 712 70<462 489>
Fore
587 493 m 1
 607 546 l 1
 679 546 l 1
 587 291 l 2
 577 263 573 249 573 240 c 0
 573 232 576 228 583 228 c 0
 646 228 712 348 712 465 c 0
 712 583 641 657 529 657 c 0
 441 657 363 611 306 525 c 0
 260 458 234 369 234 285 c 0
 234 149 312 61 433 61 c 0
 499 61 556 85 620 142 c 1
 693 142 l 1
 641 77 613 51 564 23 c 0
 516 -5 465 -19 414 -19 c 0
 260 -19 152 104 152 280 c 0
 152 518 339 737 543 737 c 0
 681 737 782 632 782 489 c 0
 782 406 752 318 702 253 c 0
 652 188 570 137 514 137 c 0
 494 137 478 154 478 177 c 0
 478 181 479 187 480 193 c 1
 442 154 412 137 381 137 c 0
 322 137 277 196 277 272 c 0
 277 336 305 411 349 469 c 0
 393 527 445 558 500 558 c 0
 544 558 570 539 587 493 c 1
492 461 m 0
 433 461 369 377 369 300 c 0
 369 261 388 237 420 237 c 0
 479 237 544 321 544 398 c 0
 544 435 523 461 492 461 c 0
EndSplineSet
EndChar
StartChar: A
Encoding: 65 65 34
Width: 592
Flags: W
HStem: 0 21G<16 146 442 576> 148 124<267 430> 698 20G<352 494>
DStem: 352 718 394 559 16 0 267 272 352 718 213 148 16 0 146 0
Fore
213 148 m 1
 146 0 l 1
 16 0 l 1
 352 718 l 1
 494 718 l 1
 576 0 l 1
 442 0 l 1
 430 148 l 1
 213 148 l 1
394 559 m 1
 267 272 l 1
 417 272 l 1
 394 559 l 1
EndSplineSet
KernsSLIF: 121 -32 0 0 119 -24 0 0 118 -34 0 0 117 -16 0 0 116 -16 0 0 39 -56 0 0 186 -54 0 0 113 -14 0 0 46 11 0 0 111 -17 0 0 45 1 0 0 172 -39 0 0 171 -41 0 0 103 -19 0 0 101 -11 0 0 100 -14 0 0 44 9 0 0 332 -14 0 0 99 -15 0 0 98 -11 0 0 97 -11 0 0 89 -75 0 0 87 -46 0 0 86 -56 0 0 300 -29 0 0 298 -29 0 0 301 -29 0 0 299 -29 0 0 85 -29 0 0 84 -72 0 0 81 -30 0 0 286 -31 0 0 79 -31 0 0 71 -31 0 0 264 -30 0 0 67 -30 0 0
EndChar
StartChar: B
Encoding: 66 66 35
Width: 592
Flags: W
HStem: 0 124<202 351> 316 121<256 403> 594 124<187 445>
VStem: 467 124<247 266> 504 122<538 574>
DStem: 187 718 284 594 62 0 256 437 187 718 235 316 62 0 202 124
Fore
62 0 m 1xf0
 187 718 l 1
 474 718 l 2
 571 718 626 666 626 574 c 0xe8
 626 525 610 473 586 438 c 0
 570 416 555 404 525 387 c 1
 573 359 591 326 591 266 c 0
 591 197 565 127 520 77 c 0
 468 18 419 0 311 0 c 2
 62 0 l 1xf0
235 316 m 1
 202 124 l 1
 353 124 l 2
 393 124 423 139 443 168 c 0
 457 190 467 222 467 249 c 0xf0
 467 291 439 316 392 316 c 2
 235 316 l 1
284 594 m 1
 256 437 l 1
 401 437 l 2
 463 437 504 477 504 538 c 0xe8
 504 576 479 594 425 594 c 2
 284 594 l 1
EndSplineSet
KernsSLIF: 89 -40 0 0 87 -21 0 0 86 -31 0 0 233 -9 0 0 288 -12 0 0 286 -12 0 0 289 -12 0 0 287 -12 0 0 234 -6 0 0 79 -12 0 0 261 -27 0 0 262 -27 0 0 256 -27 0 0 259 -27 0 0 257 -27 0 0 225 -21 0 0 65 -27 0 0
EndChar
StartChar: C
Encoding: 67 67 36
Width: 592
Flags: W
HStem: -19 130<303 327> 607 130<416 438>
VStem: 88 128<239 270>
Fore
646 483 m 1
 522 483 l 1
 520 522 517 538 506 559 c 0
 491 589 459 607 418 607 c 0
 365 607 319 579 283 524 c 0
 244 464 216 359 216 266 c 0
 216 167 256 111 327 111 c 0
 370 111 409 130 439 167 c 0
 456 188 465 205 481 246 c 1
 604 246 l 1
 573 161 550 120 508 74 c 0
 453 14 381 -19 303 -19 c 0
 242 -19 188 2 152 39 c 0
 113 80 88 158 88 241 c 0
 88 376 132 521 199 609 c 0
 263 693 345 737 438 737 c 0
 563 737 647 650 647 519 c 0
 647 510 647 499 646 483 c 1
EndSplineSet
KernsSLIF: 286 -12 0 0 287 -12 0 0 79 -12 0 0 75 -13 0 0 72 -7 0 0 262 -29 0 0 256 -29 0 0 257 -29 0 0 225 -23 0 0 65 -29 0 0
EndChar
StartChar: D
Encoding: 68 68 37
Width: 592
Flags: W
HStem: 0 124<204 335> 594 124<187 415>
VStem: 509 128<460 488>
DStem: 187 718 286 594 62 0 204 124
Fore
62 0 m 1
 187 718 l 1
 448 718 l 2
 502 718 551 700 581 668 c 0
 615 633 637 561 637 486 c 0
 637 352 593 206 524 114 c 0
 467 37 399 0 317 0 c 2
 62 0 l 1
286 594 m 1
 204 124 l 1
 324 124 l 2
 376 124 422 158 455 223 c 0
 488 287 509 381 509 462 c 0
 509 552 476 594 405 594 c 2
 286 594 l 1
EndSplineSet
KernsSLIF: 89 -43 0 0 88 -28 0 0 87 -16 0 0 86 -25 0 0 84 -14 0 0 74 -1 0 0 261 -31 0 0 262 -31 0 0 258 -31 0 0 256 -31 0 0 259 -31 0 0 257 -31 0 0 65 -31 0 0
EndChar
StartChar: E
Encoding: 69 69 38
Width: 547
Flags: W
HStem: 0 127<205 509> 313 127<259 524> 591 127<187 598>
DStem: 187 718 285 591 62 0 259 440 187 718 237 313 62 0 205 127
Fore
620 718 m 1
 598 591 l 1
 285 591 l 1
 259 440 l 1
 546 440 l 1
 524 313 l 1
 237 313 l 1
 205 127 l 1
 531 127 l 1
 509 0 l 1
 62 0 l 1
 187 718 l 1
 620 718 l 1
EndSplineSet
EndChar
StartChar: F
Encoding: 70 70 39
Width: 501
Flags: W
HStem: 0 21G<62 185> 302 127<260 497> 591 127<187 584>
DStem: 187 718 288 591 62 0 260 429 187 718 238 302 62 0 185 0
Fore
238 302 m 1
 185 0 l 1
 62 0 l 1
 187 718 l 1
 606 718 l 1
 584 591 l 1
 288 591 l 1
 260 429 l 1
 519 429 l 1
 497 302 l 1
 238 302 l 1
EndSplineSet
KernsSLIF: 117 -31 0 0 114 -30 0 0 46 -77 0 0 249 -20 0 0 250 -19 0 0 351 -19 0 0 352 -19 0 0 111 -19 0 0 106 -13 0 0 105 -14 0 0 335 -15 0 0 101 -15 0 0 44 -78 0 0 328 -24 0 0 241 -24 0 0 322 -24 0 0 323 -24 0 0 97 -24 0 0 286 -19 0 0 79 -19 0 0 74 -24 0 0 261 -53 0 0 262 -53 0 0 258 -53 0 0 256 -53 0 0 259 -53 0 0 257 -53 0 0 65 -53 0 0
EndChar
StartChar: G
Encoding: 71 71 40
Width: 638
Flags: W
HStem: -19 127<304 347> 613 124<434 453>
VStem: 89 127<247 270> 546 124<495 525>
Fore
385 266 m 1
 406 387 l 1
 653 387 l 1
 585 0 l 1
 503 0 l 1
 506 90 l 1
 435 9 383 -19 304 -19 c 0
 172 -19 89 84 89 249 c 0
 89 377 131 512 200 603 c 0
 267 691 353 737 453 737 c 0
 584 737 670 653 670 525 c 0
 670 518 670 508 669 495 c 1
 546 495 l 1
 546 501 l 2
 546 563 497 613 436 613 c 0
 379 613 323 579 284 520 c 0
 244 460 216 357 216 268 c 0
 216 166 264 108 347 108 c 0
 385 108 421 123 452 151 c 0
 482 179 498 205 522 266 c 1
 385 266 l 1
EndSplineSet
KernsSLIF: 89 -47 0 0 87 -20 0 0 86 -29 0 0 84 -18 0 0 261 -8 0 0 262 -8 0 0 258 -8 0 0 256 -8 0 0 259 -8 0 0 257 -8 0 0 225 -2 0 0 65 -8 0 0
EndChar
StartChar: H
Encoding: 72 72 41
Width: 592
Flags: W
HStem: 0 21G<58 181 411 534> 322 124<259 467> 698 20G<183 306 536 659>
DStem: 183 718 306 718 58 0 259 446 183 718 237 322 58 0 181 0 467 322 659 718 411 0 534 0 536 718 659 718 489 446 534 0
Fore
467 322 m 1
 237 322 l 1
 181 0 l 1
 58 0 l 1
 183 718 l 1
 306 718 l 1
 259 446 l 1
 489 446 l 1
 536 718 l 1
 659 718 l 1
 534 0 l 1
 411 0 l 1
 467 322 l 1
EndSplineSet
EndChar
StartChar: I
Encoding: 73 73 42
Width: 228
Flags: W
HStem: 0 21G<52 175> 698 20G<178 301>
DStem: 178 718 301 718 52 0 175 0
Fore
301 718 m 1
 175 0 l 1
 52 0 l 1
 178 718 l 1
 301 718 l 1
EndSplineSet
EndChar
StartChar: J
Encoding: 74 74 43
Width: 456
Flags: W
HStem: -18 121<208 226> 698 20G<399 522>
VStem: 49 119<134 166>
DStem: 399 718 522 718 310 208 433 208
Fore
522 718 m 1
 433 208 l 2
 407 58 331 -18 208 -18 c 0
 100 -18 49 31 49 134 c 0
 49 167 53 200 65 271 c 1
 180 271 l 1
 171 214 168 190 168 166 c 0
 168 122 185 103 224 103 c 0
 274 103 297 130 310 208 c 1
 399 718 l 1
 522 718 l 1
EndSplineSet
KernsSLIF: 262 -30 0 0 256 -30 0 0 225 -25 0 0 65 -30 0 0
EndChar
StartChar: K
Encoding: 75 75 44
Width: 592
Flags: W
HStem: 0 21G<71 194 433 592> 698 20G<196 319 544 703>
DStem: 196 718 319 718 71 0 268 426 196 718 236 243 71 0 194 0
Fore
236 243 m 1
 194 0 l 1
 71 0 l 1
 196 718 l 1
 319 718 l 1
 268 426 l 1
 544 718 l 1
 703 718 l 1
 411 424 l 1
 592 0 l 1
 433 0 l 1
 306 315 l 1
 236 243 l 1
EndSplineSet
KernsSLIF: 121 -57 0 0 362 -30 0 0 117 -30 0 0 351 -35 0 0 352 -35 0 0 111 -35 0 0 45 -34 0 0 101 -27 0 0 328 -10 0 0 241 -11 0 0 322 -10 0 0 97 -10 0 0 84 14 0 0 83 -30 0 0 286 -43 0 0 287 -43 0 0 234 -37 0 0 79 -43 0 0 71 -43 0 0 67 -42 0 0
EndChar
StartChar: L
Encoding: 76 76 45
Width: 501
Flags: W
HStem: 0 130<208 478> 698 20G<187 310>
DStem: 187 718 310 718 62 0 208 130
Fore
310 718 m 1
 208 130 l 1
 501 130 l 1
 478 0 l 1
 62 0 l 1
 187 718 l 1
 310 718 l 1
EndSplineSet
KernsSLIF: 121 -50 0 0 362 -17 0 0 117 -17 0 0 39 -125 0 0 186 -123 0 0 45 -19 0 0 89 -92 0 0 87 -60 0 0 86 -75 0 0 298 -23 0 0 85 -23 0 0 84 -79 0 0 83 -8 0 0 290 -26 0 0 288 -26 0 0 286 -26 0 0 289 -26 0 0 287 -26 0 0 79 -26 0 0 71 -27 0 0 264 -26 0 0 67 -25 0 0 262 6 0 0 256 6 0 0 257 6 0 0 225 12 0 0 65 6 0 0
EndChar
StartChar: M
Encoding: 77 77 46
Width: 683
Flags: W
HStem: 0 21G<57 172 281 401 512 627> 698 20G<182 361 574 752>
VStem: 278 83<0 718>
DStem: 182 718 278 609 57 0 172 0 278 609 361 718 281 0 369 148 574 718 618 609 369 148 401 0 618 609 752 718 512 0 627 0
Fore
752 718 m 1
 627 0 l 1
 512 0 l 1
 618 609 l 1
 401 0 l 1
 281 0 l 1
 278 609 l 1
 172 0 l 1
 57 0 l 1
 182 718 l 1
 361 718 l 1
 369 148 l 1
 574 718 l 1
 752 718 l 1
EndSplineSet
EndChar
StartChar: N
Encoding: 78 78 47
Width: 592
Flags: W
HStem: 0 21G<57 172 413 536> 698 20G<182 311 546 661>
DStem: 182 718 261 515 57 0 172 0 261 515 311 718 413 0 459 214 546 718 661 718 459 214 536 0
Fore
459 214 m 1
 546 718 l 1
 661 718 l 1
 536 0 l 1
 413 0 l 1
 261 515 l 1
 172 0 l 1
 57 0 l 1
 182 718 l 1
 311 718 l 1
 459 214 l 1
EndSplineSet
KernsSLIF: 362 -2 0 0 117 -1 0 0 46 5 0 0 351 -3 0 0 352 -3 0 0 111 -3 0 0 335 2 0 0 101 2 0 0 44 5 0 0 328 -1 0 0 241 -2 0 0 322 -1 0 0 323 -1 0 0 97 -1 0 0 286 -4 0 0 287 -4 0 0 79 -4 0 0 71 -4 0 0 264 -2 0 0 67 -3 0 0 262 -10 0 0 256 -10 0 0 257 -10 0 0 225 -4 0 0 65 -10 0 0
EndChar
StartChar: O
Encoding: 79 79 48
Width: 638
Flags: W
HStem: -19 127<315 339> 610 127<425 449>
VStem: 88 126<245 273> 550 125<444 474>
Fore
449 737 m 0
 511 737 568 714 610 672 c 0
 651 631 675 557 675 474 c 0
 675 342 632 198 568 114 c 0
 504 30 411 -19 315 -19 c 0
 175 -19 88 82 88 245 c 0
 88 372 133 522 196 604 c 0
 260 688 353 737 449 737 c 0
426 610 m 0
 362 610 301 567 264 493 c 0
 233 432 214 348 214 271 c 0
 214 169 261 108 339 108 c 0
 457 108 550 257 550 447 c 0
 550 548 503 610 426 610 c 0
EndSplineSet
KernsSLIF: 89 -50 0 0 88 -32 0 0 87 -20 0 0 86 -29 0 0 84 -21 0 0 262 -35 0 0 256 -35 0 0 257 -35 0 0 225 -30 0 0 65 -35 0 0
EndChar
StartChar: P
Encoding: 80 80 49
Width: 547
Flags: W
HStem: 0 21G<62 185> 259 124<252 383> 594 124<187 399>
VStem: 480 125<525 551>
DStem: 187 718 289 594 62 0 252 383 187 718 230 259 62 0 185 0
Fore
230 259 m 1
 185 0 l 1
 62 0 l 1
 187 718 l 1
 456 718 l 2
 550 718 605 656 605 551 c 0
 605 478 579 401 537 345 c 0
 493 288 438 259 371 259 c 2
 230 259 l 1
252 383 m 1
 366 383 l 2
 410 383 441 401 460 437 c 0
 472 460 480 496 480 525 c 0
 480 573 451 594 386 594 c 2
 289 594 l 1
 252 383 l 1
EndSplineSet
KernsSLIF: 46 -98 0 0 249 -25 0 0 250 -25 0 0 351 -24 0 0 352 -24 0 0 111 -24 0 0 45 -13 0 0 335 -20 0 0 101 -20 0 0 44 -98 0 0 328 -22 0 0 241 -22 0 0 322 -22 0 0 323 -22 0 0 97 -22 0 0 74 -45 0 0 262 -61 0 0 256 -61 0 0 257 -61 0 0 225 -56 0 0 65 -61 0 0
EndChar
StartChar: Q
Encoding: 81 81 50
Width: 638
Flags: W
HStem: -19 127<314 340> 610 127<425 449>
VStem: 88 126<244 278> 549 126<443 473>
Fore
610 29 m 1
 531 -52 l 1
 475 29 l 1
 417 -5 370 -19 314 -19 c 0
 252 -19 194 4 153 45 c 0
 113 87 88 161 88 244 c 0
 88 376 131 520 195 604 c 0
 259 688 353 737 449 737 c 0
 510 737 570 713 610 673 c 0
 650 631 675 556 675 473 c 0
 675 391 658 299 628 223 c 0
 609 176 594 149 559 103 c 1
 610 29 l 1
360 195 m 1
 438 276 l 1
 488 205 l 1
 527 274 549 359 549 445 c 0
 549 549 503 610 425 610 c 0
 371 610 317 577 280 521 c 0
 241 463 214 360 214 271 c 0
 214 169 260 108 338 108 c 0
 362 108 382 114 408 127 c 1
 360 195 l 1
EndSplineSet
EndChar
StartChar: R
Encoding: 82 82 51
Width: 592
Flags: W
HStem: 0 21G<62 182 418 555> 594 124<187 447>
VStem: 417 124<27 53> 440 126<220 254> 511 127<525 559>
DStem: 187 718 286 594 62 0 253 402 187 718 231 281 62 0 182 0
Fore
62 0 m 1xd0
 187 718 l 1
 485 718 l 2
 582 718 638 660 638 559 c 0xc8
 638 500 618 440 583 397 c 0
 562 371 547 359 514 344 c 1
 553 320 566 298 566 254 c 0xd0
 566 221 565 209 547 108 c 0
 543 85 541 65 541 51 c 0
 541 35 545 27 558 19 c 1
 555 0 l 1
 418 0 l 1
 417 27 l 1xe0
 417 55 421 92 431 145 c 0
 438 185 440 205 440 220 c 0
 440 265 418 281 358 281 c 2
 231 281 l 1
 182 0 l 1
 62 0 l 1xd0
253 402 m 1
 397 402 l 2
 441 402 470 415 488 442 c 0
 502 463 511 496 511 525 c 0
 511 570 486 594 439 594 c 2
 286 594 l 1
 253 402 l 1
EndSplineSet
KernsSLIF: 121 -6 0 0 362 -8 0 0 363 -8 0 0 117 -7 0 0 250 -10 0 0 351 -10 0 0 352 -10 0 0 111 -10 0 0 45 7 0 0 335 -4 0 0 101 -4 0 0 328 -7 0 0 241 -7 0 0 322 -7 0 0 323 -7 0 0 97 -7 0 0 89 -36 0 0 87 -18 0 0 86 -27 0 0 298 -9 0 0 85 -9 0 0 84 -9 0 0 286 -11 0 0 287 -11 0 0 234 -5 0 0 79 -11 0 0 71 -11 0 0 264 -9 0 0 67 -10 0 0
EndChar
StartChar: S
Encoding: 83 83 52
Width: 547
Flags: W
HStem: -19 124<273 300> 613 124<366 392>
VStem: 66 121<162 194> 126 120<463 509> 433 124<213 262> 467 121<526 556>
Fore
71 221 m 1xe8
 189 221 l 1
 188 210 187 201 187 194 c 0
 187 137 226 105 296 105 c 0
 379 105 433 148 433 213 c 0xe8
 433 248 411 266 341 287 c 2
 281 305 l 2
 224 322 182 341 165 358 c 0
 141 381 126 421 126 463 c 0
 126 526 149 594 185 642 c 0
 232 703 305 737 392 737 c 0
 470 737 527 711 558 663 c 0
 576 633 588 592 588 556 c 0
 588 543 587 526 584 505 c 1
 467 505 l 1
 467 526 l 2
 467 582 431 613 367 613 c 0
 295 613 246 571 246 509 c 0xd4
 246 479 259 464 297 452 c 2
 433 409 l 2
 521 381 557 338 557 262 c 0
 557 188 526 109 477 60 c 0
 427 9 355 -19 273 -19 c 0
 191 -19 126 10 94 60 c 0
 77 87 66 127 66 162 c 0
 66 176 68 197 71 221 c 1xe8
EndSplineSet
KernsSLIF: 116 -5 0 0 89 -39 0 0 87 -20 0 0 86 -29 0 0 84 -12 0 0 262 -20 0 0 256 -20 0 0 257 -20 0 0 225 -14 0 0 65 -20 0 0
EndChar
StartChar: T
Encoding: 84 84 53
Width: 501
Flags: W
HStem: 0 21G<189 312> 591 127<135 292 136 593>
DStem: 292 591 415 591 189 0 312 0
Fore
415 591 m 1
 312 0 l 1
 189 0 l 1
 292 591 l 1
 114 591 l 1
 136 718 l 1
 615 718 l 1
 593 591 l 1
 415 591 l 1
EndSplineSet
KernsSLIF: 121 -76 0 0 119 -72 0 0 118 -77 0 0 117 -68 0 0 59 -79 0 0 115 -69 0 0 114 -64 0 0 46 -61 0 0 249 -67 0 0 111 -70 0 0 106 -9 0 0 105 -9 0 0 45 -46 0 0 172 -89 0 0 171 -92 0 0 103 -69 0 0 101 -64 0 0 44 -61 0 0 58 -79 0 0 99 -68 0 0 241 -69 0 0 97 -68 0 0 89 13 0 0 87 13 0 0 86 11 0 0 83 -3 0 0 290 -18 0 0 233 -18 0 0 288 -18 0 0 286 -18 0 0 289 -18 0 0 287 -18 0 0 234 -12 0 0 79 -18 0 0 74 -77 0 0 71 -19 0 0 67 -18 0 0 261 -72 0 0 262 -72 0 0 258 -72 0 0 256 -72 0 0 259 -72 0 0 257 -72 0 0 225 -68 0 0 65 -72 0 0
EndChar
StartChar: U
Encoding: 85 85 54
Width: 592
Flags: W
HStem: -19 127<294 321> 698 20G<185 310 534 659>
VStem: 96 129<169 208>
DStem: 185 718 310 718 102 242 229 252 534 718 659 718 451 245 578 251
Fore
659 718 m 1
 578 251 l 1
 547 76 448 -19 294 -19 c 0
 167 -19 96 49 96 169 c 0
 96 194 98 218 102 242 c 1
 185 718 l 1
 310 718 l 1
 229 252 l 1
 227 237 225 220 225 208 c 0
 225 142 256 108 314 108 c 0
 388 108 436 155 451 245 c 1
 534 718 l 1
 659 718 l 1
EndSplineSet
KernsSLIF: 114 -5 0 0 46 -11 0 0 112 -5 0 0 110 -5 0 0 109 -5 0 0 44 -14 0 0 261 -32 0 0 262 -32 0 0 256 -32 0 0 259 -32 0 0 257 -32 0 0 225 -27 0 0 65 -32 0 0
EndChar
StartChar: V
Encoding: 86 86 55
Width: 547
Flags: W
HStem: 0 21G<214 331> 698 20G<141 273 528 656>
Fore
304 170 m 1
 528 718 l 1
 656 718 l 1
 331 0 l 1
 214 0 l 1
 141 718 l 1
 273 718 l 1
 304 170 l 1
EndSplineSet
KernsSLIF: 121 -17 0 0 117 -40 0 0 59 -47 0 0 114 -36 0 0 46 -58 0 0 249 -44 0 0 111 -47 0 0 105 -12 0 0 45 -22 0 0 172 -65 0 0 171 -68 0 0 103 -45 0 0 101 -41 0 0 44 -58 0 0 58 -47 0 0 241 -46 0 0 97 -45 0 0 84 13 0 0 83 -23 0 0 290 -34 0 0 233 -29 0 0 288 -34 0 0 286 -34 0 0 289 -34 0 0 287 -34 0 0 79 -34 0 0 71 -34 0 0 67 -33 0 0 261 -58 0 0 262 -58 0 0 258 -58 0 0 256 -58 0 0 259 -58 0 0 257 -58 0 0 225 -53 0 0 65 -58 0 0
EndChar
StartChar: W
Encoding: 87 87 56
Width: 774
Flags: W
HStem: 0 21G<179 294 478 596> 698 20G<138 269 446 577 762 887>
VStem: 478 99<0 718>
Fore
179 0 m 1
 138 718 l 1
 269 718 l 1
 272 558 274 388 274 327 c 0
 274 278 273 250 271 187 c 1
 310 313 352 440 446 718 c 1
 577 718 l 1
 577 344 577 301 573 187 c 1
 604 286 629 353 762 718 c 1
 887 718 l 1
 596 0 l 1
 478 0 l 1
 479 348 479 399 485 565 c 1
 421 371 349 157 343 142 c 1
 294 0 l 1
 179 0 l 1
EndSplineSet
KernsSLIF: 121 -11 0 0 117 -32 0 0 59 -41 0 0 114 -27 0 0 46 -42 0 0 249 -31 0 0 111 -34 0 0 105 -10 0 0 45 -9 0 0 172 -52 0 0 171 -55 0 0 103 -32 0 0 101 -28 0 0 44 -42 0 0 58 -40 0 0 241 -33 0 0 97 -32 0 0 84 15 0 0 83 -18 0 0 290 -23 0 0 233 -19 0 0 288 -23 0 0 286 -23 0 0 289 -23 0 0 287 -23 0 0 79 -23 0 0 71 -24 0 0 67 -23 0 0 261 -47 0 0 262 -47 0 0 258 -47 0 0 256 -47 0 0 259 -47 0 0 257 -47 0 0 225 -42 0 0 65 -47 0 0
EndChar
StartChar: X
Encoding: 88 88 57
Width: 547
Flags: W
HStem: 0 21G<11 155 385 535> 698 20G<147 294 506 648>
DStem: 265 367 316 245 11 0 155 0
Fore
408 373 m 1
 535 0 l 1
 385 0 l 1
 316 245 l 1
 155 0 l 1
 11 0 l 1
 265 367 l 1
 147 718 l 1
 294 718 l 1
 358 486 l 1
 506 718 l 1
 648 718 l 1
 408 373 l 1
EndSplineSet
KernsSLIF: 121 -44 0 0 117 -34 0 0 111 -37 0 0 45 -28 0 0 101 -31 0 0 97 -15 0 0 81 -33 0 0 286 -33 0 0 79 -33 0 0 67 -32 0 0
EndChar
StartChar: Y
Encoding: 89 89 58
Width: 547
Flags: W
HStem: 0 21G<215 339> 698 20G<137 282 521 661>
DStem: 263 271 385 269 215 0 339 0
Fore
385 269 m 1
 339 0 l 1
 215 0 l 1
 263 271 l 1
 137 718 l 1
 282 718 l 1
 350 406 l 1
 521 718 l 1
 661 718 l 1
 385 269 l 1
EndSplineSet
MinimumDistance: x4,8 
KernsSLIF: 118 -31 0 0 117 -54 0 0 59 -61 0 0 46 -71 0 0 112 -48 0 0 249 -63 0 0 111 -66 0 0 105 -9 0 0 45 -49 0 0 172 -88 0 0 171 -91 0 0 103 -64 0 0 101 -60 0 0 44 -71 0 0 58 -61 0 0 241 -65 0 0 97 -64 0 0 84 16 0 0 83 -28 0 0 290 -46 0 0 233 -45 0 0 288 -46 0 0 286 -46 0 0 289 -46 0 0 287 -46 0 0 79 -46 0 0 71 -46 0 0 67 -45 0 0 261 -73 0 0 262 -73 0 0 258 -73 0 0 256 -73 0 0 259 -73 0 0 257 -73 0 0 225 -68 0 0 65 -73 0 0
EndChar
StartChar: Z
Encoding: 90 90 59
Width: 501
Flags: W
HStem: 0 127<192 480> 591 127<152 428>
DStem: 428 591 583 600 42 127 192 127
Fore
503 127 m 1
 480 0 l 1
 20 0 l 1
 42 127 l 1
 428 591 l 1
 131 591 l 1
 153 718 l 1
 604 718 l 1
 583 600 l 1
 192 127 l 1
 503 127 l 1
EndSplineSet
KernsSLIF: 121 -18 0 0 118 -19 0 0
EndChar
StartChar: bracketleft
Encoding: 91 91 60
Width: 273
Flags: W
HStem: 626 96<177 362>
DStem: 177 722 261 626 17 -196 134 -100
Fore
261 626 m 1
 134 -100 l 1
 236 -100 l 1
 219 -196 l 1
 17 -196 l 1
 177 722 l 1
 379 722 l 1
 362 626 l 1
 261 626 l 1
EndSplineSet
EndChar
StartChar: backslash
Encoding: 92 92 61
Width: 228
Flags: W
HStem: -19 21G<156 252> 717 20G<101 197>
DStem: 101 737 197 737 156 -19 252 -19
Fore
156 -19 m 1
 101 737 l 1
 197 737 l 1
 252 -19 l 1
 156 -19 l 1
EndSplineSet
EndChar
StartChar: bracketright
Encoding: 93 93 62
Width: 273
Flags: W
HStem: -196 96<2 187> 702 20G<146 347>
DStem: 230 626 347 722 104 -100 187 -196
Fore
104 -100 m 1
 230 626 l 1
 129 626 l 1
 146 722 l 1
 347 722 l 1
 187 -196 l 1
 -14 -196 l 1
 3 -100 l 1
 104 -100 l 1
EndSplineSet
EndChar
StartChar: asciicircum
Encoding: 94 94 63
Width: 479
Flags: W
HStem: 678 20G<320 402>
DStem: 320 698 341 586 107 323 196 323 341 586 402 698 394 323 484 323
Fore
196 323 m 1
 107 323 l 1
 320 698 l 1
 402 698 l 1
 484 323 l 1
 394 323 l 1
 341 586 l 1
 196 323 l 1
EndSplineSet
EndChar
StartChar: underscore
Encoding: 95 95 64
Width: 456
Flags: W
HStem: -125 50<-14 434>
Fore
434 -125 m 1
 -22 -125 l 1
 -13 -75 l 1
 443 -75 l 1
 434 -125 l 1
EndSplineSet
EndChar
StartChar: quoteleft
Encoding: 96 8216 65
Width: 228
Flags: W
Fore
273 581 m 1
 251 454 l 1
 136 454 l 1
 154 556 l 1
 172 653 217 707 296 727 c 1
 287 676 l 1
 240 658 220 634 210 581 c 1
 273 581 l 1
EndSplineSet
KernsSLIF: 89 -8 1 0 87 7 1 0 86 2 1 0 84 -8 1 0 262 -57 1 0 256 -57 1 0 257 -57 1 0 225 -53 1 0 65 -57 1 0
EndChar
StartChar: a
Encoding: 97 97 66
Width: 456
Flags: W
HStem: -14 100<157 208> 434 112<297 323>
VStem: 45 118<101 133> 307 113<29 55>
Fore
211 360 m 1
 101 360 l 1
 118 419 131 448 156 478 c 0
 194 524 248 546 323 546 c 0
 422 546 478 502 478 425 c 0
 478 414 477 403 475 392 c 2
 425 104 l 1
 422 85 420 69 420 55 c 0
 420 37 425 27 436 21 c 1
 432 0 l 1
 308 0 l 1
 307 16 307 22 307 29 c 0
 307 37 307 44 309 63 c 1
 254 7 213 -14 157 -14 c 0
 87 -14 45 29 45 101 c 0
 45 210 109 294 205 311 c 2
 312 330 l 2
 345 336 361 354 361 387 c 0
 361 419 341 434 299 434 c 0
 251 434 227 414 211 360 c 1
328 191 m 2
 340 259 l 1
 322 246 304 239 257 230 c 0
 191 216 163 188 163 133 c 0
 163 104 180 86 208 86 c 0
 264 86 318 133 328 191 c 2
EndSplineSet
KernsSLIF: 121 -16 0 0 119 -7 0 0 118 -16 0 0 39 -11 0 0 106 -2 0 0
EndChar
StartChar: b
Encoding: 98 98 67
Width: 501
Flags: W
HStem: -14 115<273 290> 425 121<332 387> 698 20G<175 290>
VStem: 407 122<323 358>
DStem: 175 718 290 718 50 0 245 460
Fore
290 718 m 1
 245 460 l 1
 291 522 331 546 387 546 c 0
 475 546 529 474 529 358 c 0
 529 255 495 143 443 73 c 0
 400 15 348 -14 288 -14 c 0
 229 -14 194 12 175 70 c 1
 162 0 l 1
 50 0 l 1
 175 718 l 1
 290 718 l 1
332 425 m 0
 292 425 258 401 235 355 c 0
 214 313 200 253 200 203 c 0
 200 139 229 101 278 101 c 0
 316 101 348 126 373 174 c 0
 394 216 407 271 407 323 c 0
 407 389 381 425 332 425 c 0
EndSplineSet
KernsSLIF: 121 -17 0 0 119 -6 0 0 118 -15 0 0
EndChar
StartChar: c
Encoding: 99 99 68
Width: 456
Flags: W
HStem: -14 115<227 251> 428 118<312 329>
VStem: 65 120<170 196> 373 118<342 385>
Fore
346 194 m 1
 463 194 l 1
 422 60 339 -14 227 -14 c 0
 122 -14 65 51 65 170 c 0
 65 272 99 386 150 453 c 0
 196 514 258 546 329 546 c 0
 427 546 491 483 491 385 c 0
 491 374 490 358 489 342 c 1
 373 342 l 1
 372 402 355 428 314 428 c 0
 275 428 245 406 222 361 c 0
 200 320 185 247 185 189 c 0
 185 133 209 101 251 101 c 0
 294 101 332 138 346 194 c 1
EndSplineSet
KernsSLIF: 107 -8 0 0 104 -6 0 0
EndChar
StartChar: d
Encoding: 100 100 69
Width: 501
Flags: W
HStem: -14 115<208 259> 425 121<304 324> 698 20G<462 577>
VStem: 67 120<180 211>
DStem: 462 718 577 718 417 460 452 0
Fore
577 718 m 1
 452 0 l 1
 339 0 l 1
 352 70 l 1
 312 12 267 -14 208 -14 c 0
 119 -14 67 57 67 180 c 0
 67 383 173 546 305 546 c 0
 361 546 393 521 417 460 c 1
 462 718 l 1
 577 718 l 1
318 425 m 0
 278 425 244 400 221 355 c 0
 201 315 187 257 187 209 c 0
 187 139 212 101 259 101 c 0
 335 101 393 196 393 321 c 0
 393 390 367 425 318 425 c 0
EndSplineSet
EndChar
StartChar: e
Encoding: 101 101 70
Width: 456
Flags: W
HStem: -14 112<230 251> 228 91<193 473> 431 115<299 321>
VStem: 58 113<177 195> 372 114<345 354>
Fore
337 156 m 1
 455 156 l 1
 425 90 402 59 361 29 c 0
 322 0 278 -14 230 -14 c 0
 118 -14 58 53 58 179 c 0
 58 259 77 341 110 404 c 0
 158 497 231 546 321 546 c 0
 428 546 486 477 486 351 c 0
 486 319 483 286 477 253 c 1
 473 228 l 1
 174 228 l 1
 172 213 171 197 171 189 c 0
 171 131 200 98 251 98 c 0
 290 98 319 118 337 156 c 1
193 319 m 1
 371 319 l 1
 372 345 l 1
 372 398 344 431 300 431 c 0
 249 431 216 397 193 319 c 1
EndSplineSet
KernsSLIF: 121 -17 0 0 120 -19 0 0 119 -6 0 0 118 -16 0 0 116 -4 0 0 39 -11 0 0
EndChar
StartChar: f
Encoding: 102 102 71
Width: 273
Flags: W
HStem: 0 21G<71 186> 432 100<100 146 279 336> 612 115<333 365>
DStem: 146 432 261 432 71 0 186 0
Fore
261 432 m 1
 186 0 l 1
 71 0 l 1
 146 432 l 1
 83 432 l 1
 101 532 l 1
 164 532 l 1
 171 575 l 1
 190 680 240 727 333 727 c 0
 352 727 370 726 385 725 c 1
 365 612 l 1
 333 612 l 2
 298 612 292 605 283 553 c 1
 279 532 l 1
 354 532 l 1
 336 432 l 1
 261 432 l 1
EndSplineSet
KernsSLIF: 116 12 0 0 115 -13 0 0 249 -13 0 0 250 -16 0 0 351 -16 0 0 352 -16 0 0 111 -16 0 0 108 -11 0 0 106 -11 0 0 105 -11 0 0 102 12 0 0 335 -10 0 0 101 -10 0 0 328 -12 0 0 241 -13 0 0 322 -12 0 0 323 -12 0 0 97 -12 0 0
EndChar
StartChar: g
Encoding: 103 103 72
Width: 501
Flags: W
HStem: -217 106<203 226> -3 118<219 262> 425 121<308 320>
VStem: 31 126<-84 -57> 71 120<184 216>
Fore
436 532 m 1xe8
 546 532 l 1
 458 28 l 2
 443 -59 419 -114 381 -151 c 0
 338 -194 275 -217 203 -217 c 0
 95 -217 31 -168 31 -84 c 0
 31 -78 31 -67 32 -57 c 1
 157 -57 l 1xf0
 157 -72 158 -79 161 -85 c 0
 169 -102 192 -111 224 -111 c 0
 290 -111 325 -74 340 11 c 2
 352 80 l 1
 311 18 277 -3 219 -3 c 0
 126 -3 71 66 71 184 c 0
 71 384 178 546 310 546 c 0
 371 546 404 517 421 450 c 1
 436 532 l 1xe8
315 425 m 0
 248 425 191 328 191 212 c 0xe8
 191 150 217 115 262 115 c 0
 302 115 336 139 359 183 c 0
 378 221 390 273 390 319 c 0
 390 385 361 425 315 425 c 0
EndSplineSet
KernsSLIF: 114 1 0 0 351 -4 0 0 352 -4 0 0 335 1 0 0 101 1 0 0 328 -2 0 0 241 -3 0 0 322 -2 0 0 97 -2 0 0
EndChar
StartChar: h
Encoding: 104 104 73
Width: 501
Flags: W
HStem: 0 21G<53 168 333 448> 428 118<334 393> 698 20G<178 293>
VStem: 394 122<368 413>
DStem: 178 718 293 718 53 0 248 459 178 718 221 305 53 0 168 0 389 323 512 368 333 0 448 0
Fore
293 718 m 1
 248 459 l 1
 281 516 331 546 393 546 c 0
 469 546 516 495 516 413 c 0
 516 399 515 384 512 368 c 1
 448 0 l 1
 333 0 l 1
 389 323 l 2
 392 341 394 358 394 368 c 0
 394 406 372 428 334 428 c 0
 278 428 234 381 221 305 c 2
 168 0 l 1
 53 0 l 1
 178 718 l 1
 293 718 l 1
EndSplineSet
KernsSLIF: 121 -18 0 0 39 -13 0 0
EndChar
StartChar: i
Encoding: 105 105 74
Width: 228
Flags: W
HStem: 0 21G<57 172> 512 20G<150 264> 705 20G<183 298>
DStem: 150 532 264 532 57 0 172 0 183 725 298 725 161 595 275 595
Fore
150 532 m 1
 264 532 l 1
 172 0 l 1
 57 0 l 1
 150 532 l 1
298 725 m 1
 275 595 l 1
 161 595 l 1
 183 725 l 1
 298 725 l 1
EndSplineSet
KernsSLIF: 106 -3 0 0 84 -9 0 0
EndChar
StartChar: j
Encoding: 106 106 75
Width: 228
Flags: W
HStem: 512 20G<149 264> 705 20G<183 298>
DStem: 149 532 264 532 47 -53 162 -56 183 725 298 725 160 595 275 595
Fore
264 532 m 1
 162 -56 l 1
 141 -175 100 -214 -6 -214 c 2
 -35 -214 l 1
 -15 -102 l 1
 5 -102 l 2
 29 -102 41 -88 47 -53 c 2
 149 532 l 1
 264 532 l 1
298 725 m 1
 275 595 l 1
 160 595 l 1
 183 725 l 1
 298 725 l 1
EndSplineSet
EndChar
StartChar: k
Encoding: 107 107 76
Width: 456
Flags: W
HStem: 0 21G<57 172 323 461> 512 20G<408 549> 698 20G<182 297>
DStem: 182 718 297 718 57 0 229 330 182 718 201 168 57 0 172 0 408 532 549 532 229 330 359 326
Fore
201 168 m 1
 172 0 l 1
 57 0 l 1
 182 718 l 1
 297 718 l 1
 229 330 l 1
 408 532 l 1
 549 532 l 1
 359 326 l 1
 461 0 l 1
 323 0 l 1
 259 228 l 1
 201 168 l 1
EndSplineSet
KernsSLIF: 362 -6 0 0 117 -12 0 0 115 -15 0 0 46 7 0 0 351 -18 0 0 352 -18 0 0 111 -18 0 0 45 -16 0 0 103 -16 0 0 335 -11 0 0 101 -11 0 0 44 7 0 0 328 -9 0 0 241 -9 0 0 322 -9 0 0 323 -9 0 0 97 -9 0 0
EndChar
StartChar: l
Encoding: 108 108 77
Width: 228
Flags: W
HStem: 0 21G<57 172> 698 20G<182 297>
DStem: 182 718 297 718 57 0 172 0
Fore
297 718 m 1
 172 0 l 1
 57 0 l 1
 182 718 l 1
 297 718 l 1
EndSplineSet
KernsSLIF: 121 -13 0 0 118 -14 0 0
EndChar
StartChar: m
Encoding: 109 109 78
Width: 729
Flags: W
HStem: 0 21G<52 167 307 422 563 678> 428 118<313 385>
VStem: 623 123<364 413>
DStem: 145 532 223 324 52 0 167 0 363 320 478 319 307 0 422 0 619 323 742 368 563 0 678 0
Fore
255 532 m 1
 241 451 l 1
 284 519 324 546 385 546 c 0
 441 546 465 526 490 461 c 1
 536 523 572 546 625 546 c 0
 698 546 746 494 746 413 c 0
 746 399 745 384 742 368 c 1
 678 0 l 1
 563 0 l 1
 619 323 l 1
 621 337 623 353 623 364 c 0
 623 407 606 428 573 428 c 0
 524 428 490 389 478 319 c 1
 422 0 l 1
 307 0 l 1
 363 320 l 1
 367 341 369 361 369 373 c 0
 369 409 349 428 313 428 c 0
 266 428 235 393 223 324 c 2
 167 0 l 1
 52 0 l 1
 145 532 l 1
 255 532 l 1
EndSplineSet
KernsSLIF: 121 -17 0 0 119 -8 0 0 118 -17 0 0 112 -1 0 0
EndChar
StartChar: n
Encoding: 110 110 79
Width: 501
Flags: W
HStem: 0 21G<53 168 333 448> 428 118<334 391>
VStem: 394 122<368 413>
DStem: 146 532 221 305 53 0 168 0 389 323 512 368 333 0 448 0
Fore
256 532 m 1
 242 451 l 1
 288 519 330 546 391 546 c 0
 469 546 516 496 516 413 c 0
 516 399 515 384 512 368 c 1
 448 0 l 1
 333 0 l 1
 389 323 l 2
 392 341 394 358 394 368 c 0
 394 406 372 428 334 428 c 0
 278 428 234 381 221 305 c 2
 168 0 l 1
 53 0 l 1
 146 532 l 1
 256 532 l 1
EndSplineSet
KernsSLIF: 121 -18 0 0 119 -9 0 0 118 -18 0 0 39 -12 0 0 112 -2 0 0 84 -67 0 0
EndChar
StartChar: o
Encoding: 111 111 80
Width: 501
Flags: W
HStem: -14 118<248 269> 428 118<324 346>
VStem: 67 119<188 211> 407 120<321 344>
Fore
346 546 m 0
 458 546 527 468 527 342 c 0
 527 252 495 152 448 90 c 0
 397 23 325 -14 248 -14 c 0
 136 -14 67 64 67 190 c 0
 67 391 189 546 346 546 c 0
324 428 m 0
 280 428 243 403 220 355 c 0
 200 316 186 256 186 209 c 0
 186 140 214 104 269 104 c 0
 313 104 350 129 374 177 c 0
 394 216 407 276 407 324 c 0
 407 392 379 428 324 428 c 0
EndSplineSet
KernsSLIF: 121 -21 0 0 120 -22 0 0 119 -9 0 0 118 -19 0 0 116 -7 0 0 39 -16 0 0 84 -68 0 0
EndChar
StartChar: p
Encoding: 112 112 81
Width: 501
Flags: W
HStem: -14 115<270 289> 425 121<332 387>
VStem: 407 122<322 358>
DStem: 144 532 178 71 15 -207 130 -207
Fore
254 532 m 1
 240 452 l 1
 288 521 327 546 387 546 c 0
 475 546 529 475 529 358 c 0
 529 255 495 143 443 73 c 0
 399 15 348 -14 287 -14 c 0
 228 -14 198 10 178 71 c 1
 130 -207 l 1
 15 -207 l 1
 144 532 l 1
 254 532 l 1
332 425 m 0
 292 425 258 401 237 357 c 0
 215 312 201 253 201 202 c 0
 201 138 229 101 278 101 c 0
 316 101 349 126 373 174 c 0
 394 216 407 272 407 322 c 0
 407 389 381 425 332 425 c 0
EndSplineSet
KernsSLIF: 121 -18 0 0 116 -4 0 0
EndChar
StartChar: q
Encoding: 113 113 82
Width: 501
Flags: W
HStem: -14 118<210 261> 425 121<302 323>
VStem: 66 119<177 210>
DStem: 350 69 545 532 301 -207 416 -207
Fore
435 532 m 1
 545 532 l 1
 416 -207 l 1
 301 -207 l 1
 350 69 l 1
 310 10 270 -14 210 -14 c 0
 119 -14 66 57 66 179 c 0
 66 279 99 386 153 456 c 0
 197 515 251 546 312 546 c 0
 370 546 399 520 421 450 c 1
 435 532 l 1
315 425 m 0
 278 425 243 399 221 355 c 0
 199 312 185 250 185 197 c 0
 185 137 212 104 261 104 c 0
 334 104 391 198 391 321 c 0
 391 385 362 425 315 425 c 0
EndSplineSet
KernsSLIF: 117 -2 0 0 99 -1 0 0
EndChar
StartChar: r
Encoding: 114 114 83
Width: 319
Flags: W
HStem: 0 21G<52 167> 404 142<347 379>
DStem: 145 532 215 277 52 0 167 0
Fore
52 0 m 1
 145 532 l 1
 255 532 l 1
 238 437 l 1
 291 521 323 546 379 546 c 0
 383 546 389 545 401 544 c 1
 376 402 l 1
 365 404 360 404 347 404 c 0
 273 404 230 363 215 277 c 2
 167 0 l 1
 52 0 l 1
EndSplineSet
KernsSLIF: 121 9 0 0 120 4 0 0 119 10 0 0 118 8 0 0 117 -12 0 0 116 12 0 0 59 -19 0 0 115 -8 0 0 114 -10 0 0 39 4 0 0 113 -9 0 0 46 -47 0 0 112 -10 0 0 249 -13 0 0 353 -12 0 0 250 -12 0 0 351 -12 0 0 354 -12 0 0 352 -12 0 0 111 -12 0 0 110 -11 0 0 109 -10 0 0 108 -12 0 0 107 -12 0 0 106 -12 0 0 105 -13 0 0 45 -30 0 0 104 -10 0 0 103 -6 0 0 102 12 0 0 336 -8 0 0 337 -8 0 0 335 -8 0 0 101 -8 0 0 100 -9 0 0 44 -47 0 0 58 -19 0 0 332 -7 0 0 99 -11 0 0 328 -9 0 0 324 -9 0 0 241 -9 0 0 322 -9 0 0 325 -9 0 0 323 -9 0 0 97 -9 0 0
EndChar
StartChar: s
Encoding: 115 115 84
Width: 456
Flags: W
HStem: -14 106<230 255> 440 106<296 317>
VStem: 52 119<129 154> 101 119<335 382> 338 121<154 200> 365 114<370 404>
Fore
478 370 m 1xd4
 365 370 l 1
 365 377 l 1
 365 388 l 1
 363 423 342 440 298 440 c 0
 251 440 220 417 220 382 c 0xd4
 220 360 249 343 305 331 c 0
 409 311 459 268 459 200 c 0
 459 146 434 86 397 48 c 0
 357 8 297 -14 230 -14 c 0
 119 -14 52 40 52 129 c 0
 52 140 53 155 54 170 c 1
 172 170 l 1
 171 162 171 155 171 150 c 0
 171 113 200 92 251 92 c 0
 302 92 338 118 338 154 c 0xe8
 338 177 308 195 252 206 c 0
 151 225 101 268 101 335 c 0
 101 368 111 405 127 437 c 0
 164 509 229 546 317 546 c 0
 425 546 479 499 479 404 c 0
 479 398 479 384 478 370 c 1xd4
EndSplineSet
KernsSLIF: 116 -7 0 0 39 -12 0 0
EndChar
StartChar: t
Encoding: 116 116 85
Width: 273
Flags: W
HStem: -6 106<198 246> 512 20G<100 160> 532 21G<275 346>
DStem: 142 432 257 432 86 109 207 143 185 676 300 676 160 532 275 532
Fore
300 676 m 1
 275 532 l 1
 346 532 l 1
 329 432 l 1
 257 432 l 1
 207 143 l 1
 205 134 204 125 204 120 c 0
 204 106 216 100 246 100 c 0
 252 100 259 101 271 102 c 1
 252 -4 l 1
 212 -6 211 -6 198 -6 c 2
 183 -6 l 2
 113 -6 82 17 82 68 c 0
 82 81 83 95 86 109 c 1
 142 432 l 1
 83 432 l 1
 100 532 l 1
 160 532 l 1
 185 676 l 1
 300 676 l 1
EndSplineSet
KernsSLIF: 59 -19 0 0 39 -1 0 0 351 -12 0 0 352 -12 0 0 111 -12 0 0 104 -4 0 0 335 -6 0 0 101 -6 0 0 58 -19 0 0 328 -3 0 0 241 -3 0 0 322 -3 0 0 323 -3 0 0 97 -3 0 0 83 -5 0 0
EndChar
StartChar: u
Encoding: 117 117 86
Width: 501
Flags: W
HStem: -14 118<199 260> 512 20G<147 262 425 540>
VStem: 80 121<120 168>
DStem: 147 532 262 532 85 182 204 202 425 532 540 532 371 225 447 0
Fore
540 532 m 1
 447 0 l 1
 337 0 l 1
 351 78 l 1
 306 13 262 -14 199 -14 c 0
 123 -14 80 34 80 120 c 0
 80 140 82 161 85 182 c 1
 147 532 l 1
 262 532 l 1
 204 202 l 2
 202 191 201 180 201 168 c 0
 201 126 221 104 260 104 c 0
 316 104 358 150 371 225 c 2
 425 532 l 1
 540 532 l 1
EndSplineSet
KernsSLIF: 39 -4 0 0
EndChar
StartChar: v
Encoding: 118 118 87
Width: 456
Flags: W
HStem: 0 21G<167 288> 512 20G<103 231 416 538>
Fore
538 532 m 1
 288 0 l 1
 167 0 l 1
 103 532 l 1
 231 532 l 1
 253 136 l 1
 416 532 l 1
 538 532 l 1
EndSplineSet
KernsSLIF: 59 -20 0 0 115 -21 0 0 46 -39 0 0 249 -20 0 0 353 -23 0 0 351 -23 0 0 352 -23 0 0 111 -23 0 0 108 -12 0 0 103 -20 0 0 336 -17 0 0 337 -17 0 0 335 -17 0 0 101 -17 0 0 44 -40 0 0 58 -20 0 0 99 -20 0 0 327 -21 0 0 328 -21 0 0 324 -21 0 0 241 -22 0 0 322 -21 0 0 325 -21 0 0 323 -21 0 0 97 -21 0 0
EndChar
StartChar: w
Encoding: 119 119 88
Width: 638
Flags: W
HStem: 0 21G<131 249 387 505> 512 20G<101 223 354 470 605 723>
VStem: 387 83<0 532>
DStem: 354 532 387 393 225 145 249 0
Fore
723 532 m 1
 505 0 l 1
 387 0 l 1
 387 393 l 1
 249 0 l 1
 131 0 l 1
 101 532 l 1
 223 532 l 1
 225 145 l 1
 354 532 l 1
 470 532 l 1
 470 145 l 1
 605 532 l 1
 723 532 l 1
EndSplineSet
KernsSLIF: 59 -18 0 0 115 -12 0 0 46 -25 0 0 249 -11 0 0 353 -13 0 0 351 -13 0 0 352 -13 0 0 111 -13 0 0 108 -9 0 0 45 9 0 0 103 -11 0 0 336 -7 0 0 337 -7 0 0 335 -7 0 0 101 -7 0 0 44 -25 0 0 58 -18 0 0 99 -11 0 0 327 -12 0 0 328 -12 0 0 324 -12 0 0 241 -13 0 0 322 -12 0 0 325 -12 0 0 323 -12 0 0 97 -12 0 0
EndChar
StartChar: x
Encoding: 120 120 89
Width: 456
Flags: W
HStem: 0 21G<12 151 301 443> 512 20G<110 250 396 531>
Fore
342 271 m 1
 443 0 l 1
 301 0 l 1
 254 160 l 1
 151 0 l 1
 12 0 l 1
 208 271 l 1
 110 532 l 1
 250 532 l 1
 297 377 l 1
 396 532 l 1
 531 532 l 1
 342 271 l 1
EndSplineSet
KernsSLIF: 113 -20 0 0 111 -24 0 0 335 -18 0 0 101 -18 0 0 99 -22 0 0 97 -19 0 0
EndChar
StartChar: y
Encoding: 121 121 90
Width: 456
Flags: W
HStem: -214 112<65 90> 512 20G<101 229 413 535>
Fore
535 532 m 1
 293 9 l 2
 198 -197 183 -214 88 -214 c 0
 77 -214 61 -213 34 -212 c 1
 54 -100 l 1
 61 -101 69 -102 78 -102 c 0
 126 -102 143 -87 165 -22 c 1
 101 532 l 1
 229 532 l 1
 254 136 l 1
 413 532 l 1
 535 532 l 1
EndSplineSet
KernsSLIF: 59 -22 0 0 115 -23 0 0 46 -40 0 0 249 -21 0 0 353 -25 0 0 351 -25 0 0 352 -25 0 0 111 -25 0 0 108 -14 0 0 103 -23 0 0 336 -19 0 0 337 -19 0 0 335 -19 0 0 101 -19 0 0 44 -40 0 0 58 -21 0 0 99 -22 0 0 327 -23 0 0 328 -23 0 0 324 -23 0 0 241 -23 0 0 322 -23 0 0 325 -23 0 0 323 -23 0 0 97 -23 0 0
EndChar
StartChar: z
Encoding: 122 122 91
Width: 410
Flags: W
HStem: 0 115<185 393> 420 112<123 313>
DStem: 313 420 458 417 35 109 185 115
Fore
458 417 m 1
 185 115 l 1
 414 115 l 1
 393 0 l 1
 16 0 l 1
 35 109 l 1
 313 420 l 1
 105 420 l 1
 124 532 l 1
 478 532 l 1
 458 417 l 1
EndSplineSet
EndChar
StartChar: braceleft
Encoding: 123 123 92
Width: 319
Flags: W
HStem: -196 88<236 265> 634 88<357 410>
VStem: 103 103<-91 -70> 143 102<157 170>
DStem: 141 141 243 154 106 -59 209 -42 218 585 315 568 183 385 281 372
Fore
280 -108 m 1xe0
 265 -196 l 1
 197 -196 l 2
 142 -196 103 -153 103 -91 c 0xe0
 103 -82 104 -70 106 -59 c 2
 141 141 l 2
 142 147 143 153 143 157 c 0
 145 191 120 214 77 217 c 1
 93 309 l 1
 141 311 176 341 183 385 c 1
 218 585 l 1
 232 663 291 722 357 722 c 2
 425 722 l 1
 410 634 l 1
 373 634 l 2
 340 634 323 615 315 568 c 2
 281 372 l 1
 268 313 220 269 164 263 c 1
 190 258 202 253 214 242 c 0
 233 225 245 198 245 170 c 0xd0
 245 167 244 160 243 154 c 2
 209 -42 l 2
 207 -53 206 -63 206 -70 c 0
 206 -95 219 -108 243 -108 c 2
 280 -108 l 1xe0
EndSplineSet
EndChar
StartChar: bar
Encoding: 124 124 93
Width: 230
Flags: W
HStem: -19 21G<66 158> 717 20G<197 289>
DStem: 197 737 289 737 66 -19 158 -19
Fore
66 -19 m 1
 197 737 l 1
 289 737 l 1
 158 -19 l 1
 66 -19 l 1
EndSplineSet
EndChar
StartChar: braceright
Encoding: 125 125 94
Width: 319
Flags: W
HStem: 702 20G<146 213>
VStem: 166 102<356 373> 204 103<596 617>
DStem: 129 154 227 141 95 -42 192 -59 201 568 304 585 167 372 269 385
Fore
333 309 m 1xc0
 317 217 l 1
 270 215 234 185 227 141 c 1
 192 -59 l 1
 179 -137 119 -196 54 -196 c 2
 -14 -196 l 1
 1 -108 l 1
 38 -108 l 2
 70 -108 87 -88 95 -42 c 2
 129 154 l 1
 143 213 190 257 246 263 c 1
 220 268 209 273 196 284 c 0
 178 301 166 328 166 356 c 0xc0
 166 362 166 367 167 372 c 2
 201 568 l 1
 203 578 204 587 204 596 c 0
 204 621 191 634 167 634 c 2
 130 634 l 1
 146 722 l 1
 213 722 l 2
 268 722 307 679 307 617 c 0xa0
 307 607 306 596 304 585 c 2
 269 385 l 2
 268 379 268 375 268 369 c 0
 268 333 291 312 333 309 c 1xc0
EndSplineSet
EndChar
StartChar: asciitilde
Encoding: 126 126 95
Width: 479
Flags: W
Fore
431 321 m 1
 473 267 l 1
 428 199 395 173 350 173 c 0
 328 173 308 180 277 198 c 0
 244 217 223 224 198 224 c 0
 172 224 158 216 136 187 c 1
 94 242 l 1
 139 311 173 336 218 336 c 0
 239 336 259 329 290 311 c 0
 323 292 344 285 369 285 c 0
 395 285 409 294 431 321 c 1
EndSplineSet
EndChar
StartChar: exclamdown
Encoding: 161 161 96
Width: 273
Flags: W
HStem: 512 20G<170 290>
DStem: 73 -3 200 -3 41 -186 168 -186 170 532 290 532 145 391 265 391
Fore
145 391 m 1
 170 532 l 1
 290 532 l 1
 265 391 l 1
 145 391 l 1
73 -3 m 1
 165 333 l 1
 226 333 l 1
 200 -3 l 1
 168 -186 l 1
 41 -186 l 1
 73 -3 l 1
EndSplineSet
EndChar
StartChar: cent
Encoding: 162 162 97
Width: 456
Flags: W
HStem: -14 115<227 251> 428 118<310 332>
VStem: 65 120<168 196> 373 118<342 384>
DStem: 148 2 186 -10 100 -118 142 -118 322 428 357 410 200 129 233 105 403 628 446 628 369 543 406 530
Fore
489 342 m 1
 373 342 l 1
 373 373 368 396 357 410 c 1
 233 105 l 1
 238 102 244 101 251 101 c 0
 294 101 332 138 346 194 c 1
 463 194 l 1
 422 59 339 -14 227 -14 c 0
 212 -14 198 -13 186 -10 c 1
 142 -118 l 1
 100 -118 l 1
 148 2 l 1
 121 18 108 29 97 46 c 0
 76 80 65 123 65 168 c 0
 65 268 101 388 150 453 c 0
 197 515 258 546 332 546 c 0
 342 546 356 545 369 543 c 1
 403 628 l 1
 446 628 l 1
 406 530 l 1
 434 515 447 505 459 488 c 0
 480 460 491 423 491 384 c 0
 491 373 490 358 489 342 c 1
200 129 m 1
 322 428 l 1
 312 428 l 2
 275 428 244 405 222 361 c 0
 200 320 185 248 185 192 c 0
 185 166 189 149 200 129 c 1
EndSplineSet
EndChar
StartChar: sterling
Encoding: 163 163 98
Width: 456
Flags: W
HStem: -16 118<318 345> 321 60<88 154 257 364> 606 112<338 356>
VStem: 123 116<476 497> 408 112<524 554>
Fore
374 381 m 1
 364 321 l 1
 266 321 l 1
 263 223 235 173 143 98 c 1
 195 120 219 127 248 127 c 0
 271 127 287 123 312 112 c 0
 327 106 339 102 345 102 c 0
 368 102 398 114 434 138 c 1
 448 29 l 1
 400 -2 359 -16 318 -16 c 0
 289 -16 266 -10 221 10 c 0
 201 19 181 24 165 24 c 0
 143 24 132 20 68 -11 c 1
 41 86 l 1
 83 112 118 149 143 192 c 0
 155 213 160 235 160 265 c 0
 160 286 159 299 154 321 c 1
 79 321 l 1
 89 381 l 1
 137 381 l 1
 126 435 123 453 123 476 c 0
 123 608 229 718 356 718 c 0
 457 718 520 655 520 554 c 0
 520 537 518 514 515 487 c 1
 407 487 l 1
 408 502 408 506 408 524 c 0
 408 579 386 606 340 606 c 0
 285 606 239 556 239 495 c 0
 239 479 243 455 257 381 c 1
 374 381 l 1
EndSplineSet
EndChar
StartChar: fraction
Encoding: 164 8260 99
Width: 137
Flags: W
HStem: -19 21G<-143 -78> 690 20G<335 399>
DStem: 335 710 399 710 -143 -19 -78 -19
Fore
399 710 m 1
 -78 -19 l 1
 -143 -19 l 1
 335 710 l 1
 399 710 l 1
EndSplineSet
EndChar
StartChar: yen
Encoding: 165 165 100
Width: 456
Flags: W
HStem: 0 21G<179 283> 210 60<58 215 331 487> 345 60<82 206 411 510> 678 20G<114 237 469 585>
DStem: 114 698 237 698 190 405 304 404 215 210 320 210 179 0 283 0 469 698 585 698 304 404 411 405
Fore
521 405 m 1
 510 345 l 1
 375 345 l 1
 331 270 l 1
 497 270 l 1
 487 210 l 1
 320 210 l 1
 283 0 l 1
 179 0 l 1
 215 210 l 1
 49 210 l 1
 59 270 l 1
 226 270 l 1
 206 345 l 1
 73 345 l 1
 83 405 l 1
 190 405 l 1
 114 698 l 1
 237 698 l 1
 304 404 l 1
 469 698 l 1
 585 698 l 1
 411 405 l 1
 521 405 l 1
EndSplineSet
EndChar
StartChar: florin
Encoding: 166 402 101
Width: 456
Flags: W
HStem: -210 115<26.1805 40> 380 97<147 231 374 456> 625 112<466 474>
DStem: 231 380 346 380 126 46 235 21
Fore
472 477 m 1
 456 380 l 1
 346 380 l 1
 235 21 l 2
 186 -137 124 -210 37 -210 c 0
 15 -210 0 -206 -41 -189 c 1
 -2 -78 l 1
 16 -92 23 -95 38 -95 c 0
 75 -95 89 -72 126 46 c 2
 231 380 l 1
 131 380 l 1
 148 477 l 1
 260 477 l 1
 291 564 l 2
 333 684 387 737 466 737 c 0
 492 737 516 731 548 718 c 1
 509 610 l 1
 494 620 479 625 466 625 c 0
 438 625 413 602 402 565 c 1
 374 477 l 1
 472 477 l 1
EndSplineSet
EndChar
StartChar: section
Encoding: 167 167 102
Width: 456
Flags: W
HStem: -184 106<190 218> 544 21G<384 488> 621 106<334 355>
VStem: 50 110<-35 -16> 154 109<515 552> 292 113<6 39> 370 109<254 307> 385 106<565 594>
Fore
488 544 m 1xe9
 384 544 l 1
 385 552 385 560 385 565 c 0xe9
 385 600 366 621 334 621 c 0
 295 621 263 590 263 552 c 0
 263 536 270 523 286 512 c 2
 405 431 l 2xec
 456 396 479 358 479 307 c 0xe2
 479 239 438 171 374 134 c 1
 396 104 405 77 405 39 c 0
 405 -83 308 -184 190 -184 c 0
 104 -184 50 -127 50 -35 c 0
 50 -26 51 -14 53 3 c 1
 161 3 l 1
 160 -4 160 -11 160 -16 c 0
 160 -55 181 -78 218 -78 c 0
 258 -78 292 -39 292 6 c 0xf4
 292 27 282 41 254 61 c 2
 142 139 l 2
 94 172 76 204 76 255 c 0
 76 333 106 384 180 432 c 1
 161 460 154 483 154 515 c 0
 154 629 247 727 355 727 c 0
 439 727 491 676 491 594 c 0
 491 581 490 564 488 544 c 1xe9
209 263 m 2
 323 179 l 1
 354 200 370 225 370 254 c 0xe2
 370 274 358 292 334 309 c 2
 227 383 l 1
 200 370 180 340 180 312 c 0
 180 292 188 278 209 263 c 2
EndSplineSet
EndChar
StartChar: currency
Encoding: 168 164 103
Width: 456
Flags: W
HStem: 141 103<252 272> 468 103<309 328>
VStem: 110 94<305 330> 378 93<379 402>
DStem: 97 570 162 636 160 472 226 538 120 240 162 174 22 142 65 76 354 174 420 240 418 76 483 142 515 636 558 570 418 538 460 472
Fore
22 142 m 1
 120 240 l 1
 112 267 110 281 110 305 c 0
 110 363 127 420 160 472 c 1
 97 570 l 1
 162 636 l 1
 226 538 l 1
 263 561 294 571 328 571 c 0
 362 571 390 561 418 538 c 1
 515 636 l 1
 558 570 l 1
 460 472 l 1
 468 447 471 428 471 402 c 0
 471 346 454 292 420 240 c 1
 483 142 l 1
 418 76 l 1
 354 174 l 1
 319 151 288 141 252 141 c 0
 219 141 191 151 162 174 c 1
 65 76 l 1
 22 142 l 1
310 468 m 0
 252 468 204 404 204 328 c 0
 204 277 230 244 270 244 c 0
 327 244 378 310 378 384 c 0
 378 435 351 468 310 468 c 0
EndSplineSet
EndChar
StartChar: quotesingle
Encoding: 169 39 104
Width: 195
Flags: W
HStem: 698 20G<182 263>
DStem: 182 718 263 718 135 447 216 447
Fore
135 447 m 1
 182 718 l 1
 263 718 l 1
 216 447 l 1
 135 447 l 1
EndSplineSet
EndChar
StartChar: quotedblleft
Encoding: 170 8220 105
Width: 410
Flags: W
Fore
269 581 m 1
 247 454 l 1
 132 454 l 1
 150 556 l 1
 168 654 213 707 292 727 c 1
 283 676 l 1
 236 658 217 634 206 581 c 1
 269 581 l 1
459 581 m 1
 437 454 l 1
 322 454 l 1
 340 556 l 1
 358 654 403 707 482 727 c 1
 473 676 l 1
 426 658 407 634 396 581 c 1
 459 581 l 1
EndSplineSet
KernsSLIF: 89 -6 1 0 87 9 1 0 86 4 1 0 84 -6 1 0 262 -55 1 0 256 -55 1 0 257 -55 1 0 225 -51 1 0 65 -55 1 0
EndChar
StartChar: guillemotleft
Encoding: 171 171 106
Width: 456
Flags: W
DStem: 111 220 176 280 223 76 243 192 285 220 351 280 397 76 417 192 294 484 273 368 132 340 176 280 468 484 448 368 306 340 351 280
Fore
273 368 m 1
 176 280 l 1
 243 192 l 1
 223 76 l 1
 111 220 l 1
 132 340 l 1
 294 484 l 1
 273 368 l 1
448 368 m 1
 351 280 l 1
 417 192 l 1
 397 76 l 1
 285 220 l 1
 306 340 l 1
 468 484 l 1
 448 368 l 1
EndSplineSet
EndChar
StartChar: guilsinglleft
Encoding: 172 8249 107
Width: 273
Flags: W
DStem: 106 220 171 280 218 76 238 192 289 484 269 368 127 340 171 280
Fore
289 484 m 1
 269 368 l 1
 171 280 l 1
 238 192 l 1
 218 76 l 1
 106 220 l 1
 127 340 l 1
 289 484 l 1
EndSplineSet
EndChar
StartChar: guilsinglright
Encoding: 173 8250 108
Width: 273
Flags: W
DStem: 132 368 152 484 199 280 264 340 199 280 243 220 101 192 81 76
Fore
199 280 m 1
 132 368 l 1
 152 484 l 1
 264 340 l 1
 243 220 l 1
 81 76 l 1
 101 192 l 1
 199 280 l 1
EndSplineSet
KernsSLIF: 89 -90 1 0 87 -49 1 0 86 -61 1 0 84 -88 1 0 262 -40 1 0 256 -40 1 0 257 -40 1 0 225 -35 1 0 65 -40 1 0
EndChar
StartChar: fi
Encoding: 174 64257 109
Width: 501
Flags: W
HStem: 0 21G<71 186 330 445> 432 100<100 146 279 336> 612 115<333 365>
DStem: 146 432 261 432 71 0 186 0 422 532 537 532 330 0 445 0 456 725 571 725 433 595 548 595
Fore
261 432 m 1
 186 0 l 1
 71 0 l 1
 146 432 l 1
 83 432 l 1
 101 532 l 1
 164 532 l 1
 171 575 l 1
 190 680 240 727 333 727 c 0
 351 727 370 726 385 725 c 1
 365 612 l 1
 333 612 l 2
 298 612 291 604 282 553 c 1
 279 532 l 1
 353 532 l 1
 336 432 l 1
 261 432 l 1
422 532 m 1
 537 532 l 1
 445 0 l 1
 330 0 l 1
 422 532 l 1
571 725 m 1
 548 595 l 1
 433 595 l 1
 456 725 l 1
 571 725 l 1
EndSplineSet
Ligature: 0 0 'liga' f i
EndChar
StartChar: fl
Encoding: 175 64258 110
Width: 501
Flags: W
HStem: 0 21G<71 186 330 445> 432 100<100 146 279 336> 612 115<333 365>
DStem: 146 432 261 432 71 0 186 0 455 718 570 718 330 0 445 0
Fore
261 432 m 1
 186 0 l 1
 71 0 l 1
 146 432 l 1
 83 432 l 1
 101 532 l 1
 164 532 l 1
 171 575 l 1
 189 680 240 727 333 727 c 0
 351 727 370 726 385 725 c 1
 365 612 l 1
 333 612 l 2
 298 612 292 605 283 553 c 1
 279 532 l 1
 354 532 l 1
 336 432 l 1
 261 432 l 1
570 718 m 1
 445 0 l 1
 330 0 l 1
 455 718 l 1
 570 718 l 1
EndSplineSet
Ligature: 0 0 'liga' f l
EndChar
StartChar: endash
Encoding: 177 8211 111
Width: 456
Flags: W
HStem: 227 106<57 496>
Fore
514 333 m 1
 496 227 l 1
 40 227 l 1
 58 333 l 1
 514 333 l 1
EndSplineSet
EndChar
StartChar: dagger
Encoding: 178 8224 112
Width: 456
Flags: W
HStem: 387 112<115 240 370 494> 698 20G<298 408>
DStem: 240 387 350 387 143 -171 253 -171 298 718 408 718 260 499 370 499
Fore
513 499 m 1
 494 387 l 1
 350 387 l 1
 253 -171 l 1
 143 -171 l 1
 240 387 l 1
 97 387 l 1
 116 499 l 1
 260 499 l 1
 298 718 l 1
 408 718 l 1
 370 499 l 1
 513 499 l 1
EndSplineSet
EndChar
StartChar: daggerdbl
Encoding: 179 8225 113
Width: 456
Flags: W
HStem: 46 112<57 180 310 434> 397 112<118 242 371 495> 698 20G<298 407>
DStem: 180 46 290 46 143 -171 252 -171 242 397 351 397 200 158 310 158 298 718 407 718 261 509 371 509
Fore
515 509 m 1
 495 397 l 1
 351 397 l 1
 310 158 l 1
 454 158 l 1
 434 46 l 1
 290 46 l 1
 252 -171 l 1
 143 -171 l 1
 180 46 l 1
 38 46 l 1
 58 158 l 1
 200 158 l 1
 242 397 l 1
 99 397 l 1
 119 509 l 1
 261 509 l 1
 298 718 l 1
 407 718 l 1
 371 509 l 1
 515 509 l 1
EndSplineSet
EndChar
StartChar: periodcentered
Encoding: 180 183 114
Width: 228
Flags: W
Fore
172 334 m 0
 203 334 226 307 226 270 c 0
 226 219 187 172 144 172 c 0
 112 172 90 198 90 235 c 0
 90 286 130 334 172 334 c 0
EndSplineSet
EndChar
StartChar: paragraph
Encoding: 182 182 115
Width: 456
Flags: W
HStem: 615 85<315 457>
DStem: 235 347 374 615 141 -191 233 -191 457 615 564 700 316 -191 408 -191
Fore
141 -191 m 1
 235 347 l 1
 187 349 166 354 141 367 c 0
 101 390 80 428 80 480 c 0
 80 542 104 606 141 643 c 0
 179 681 236 700 315 700 c 2
 564 700 l 1
 408 -191 l 1
 316 -191 l 1
 457 615 l 1
 374 615 l 1
 233 -191 l 1
 141 -191 l 1
EndSplineSet
EndChar
StartChar: bullet
Encoding: 183 8226 116
Width: 287
Flags: W
Fore
236 524 m 0
 299 524 345 470 345 394 c 0
 345 290 264 194 177 194 c 0
 113 194 68 248 68 324 c 0
 68 429 148 524 236 524 c 0
EndSplineSet
EndChar
StartChar: quotesinglbase
Encoding: 184 8218 117
Width: 228
Flags: W
HStem: -20 20G<57 120>
Fore
57 0 m 1
 79 127 l 1
 194 127 l 1
 176 25 l 1
 158 -73 113 -126 34 -146 c 1
 43 -95 l 1
 90 -77 109 -53 120 0 c 1
 57 0 l 1
EndSplineSet
EndChar
StartChar: quotedblbase
Encoding: 185 8222 118
Width: 410
Flags: W
HStem: -20 20G<52 115 243 306>
Fore
52 0 m 1
 74 127 l 1
 189 127 l 1
 171 25 l 1
 153 -72 108 -126 29 -146 c 1
 38 -95 l 1
 85 -77 104 -53 115 0 c 1
 52 0 l 1
243 0 m 1
 265 127 l 1
 380 127 l 1
 362 25 l 1
 344 -72 299 -126 220 -146 c 1
 229 -95 l 1
 276 -77 295 -53 306 0 c 1
 243 0 l 1
EndSplineSet
KernsSLIF: 89 -75 1 0 87 -43 1 0 86 -58 1 0 84 -61 1 0 225 15 1 0 65 9 1 0
EndChar
StartChar: quotedblright
Encoding: 186 8221 119
Width: 410
Flags: W
HStem: 698 20G<177 292 368 483>
Fore
155 591 m 1
 177 718 l 1
 292 718 l 1
 274 616 l 1
 256 519 211 465 132 445 c 1
 141 496 l 1
 188 514 207 538 218 591 c 1
 155 591 l 1
346 591 m 1
 368 718 l 1
 483 718 l 1
 465 616 l 1
 447 519 402 465 323 445 c 1
 332 496 l 1
 379 514 398 538 409 591 c 1
 346 591 l 1
EndSplineSet
KernsSLIF: 89 -8 1 0 87 7 1 0 86 2 1 0 84 -4 1 0 262 -57 1 0 256 -57 1 0 257 -57 1 0 225 -53 1 0 65 -57 1 0
EndChar
StartChar: guillemotright
Encoding: 187 187 120
Width: 456
Flags: W
DStem: 136 368 156 484 203 280 268 340 203 280 247 220 105 192 85 76 311 368 331 484 377 280 443 340 377 280 422 220 280 192 260 76
Fore
377 280 m 1
 311 368 l 1
 331 484 l 1
 443 340 l 1
 422 220 l 1
 260 76 l 1
 280 192 l 1
 377 280 l 1
203 280 m 1
 136 368 l 1
 156 484 l 1
 268 340 l 1
 247 220 l 1
 85 76 l 1
 105 192 l 1
 203 280 l 1
EndSplineSet
KernsSLIF: 89 -92 1 0 87 -51 1 0 86 -63 1 0 84 -89 1 0 262 -42 1 0 256 -42 1 0 257 -42 1 0 225 -36 1 0 65 -42 1 0
EndChar
StartChar: ellipsis
Encoding: 188 8230 121
Width: 820
Flags: W
HStem: 0 146<99 198 373 471 646 745>
DStem: 100 146 224 146 75 0 198 0 374 146 497 146 348 0 471 0 647 146 770 146 621 0 745 0
Fore
224 146 m 1
 198 0 l 1
 75 0 l 1
 100 146 l 1
 224 146 l 1
497 146 m 1
 471 0 l 1
 348 0 l 1
 374 146 l 1
 497 146 l 1
770 146 m 1
 745 0 l 1
 621 0 l 1
 647 146 l 1
 770 146 l 1
EndSplineSet
Ligature: 0 1 'liga' period period period
EndChar
StartChar: perthousand
Encoding: 189 8240 122
Width: 820
Flags: W
HStem: -12 69<409 426 686 703> 297 69<456 473 733 750> 332 69<173 190> 641 69<220 237>
VStem: 71 81<428 462> 258 80<588 606> 307 80<92 110> 494 80<236 270> 584 81<92 110> 771 80<236 270>
DStem: 515 710 576 710 62 -19 123 -19
Fore
62 -19 m 1x99c0
 515 710 l 1
 576 710 l 1
 123 -19 l 1
 62 -19 l 1x99c0
237 710 m 0
 305 710 338 672 338 595 c 0
 338 512 311 419 275 378 c 0
 248 347 214 332 173 332 c 0xbdc0
 106 332 71 371 71 445 c 0
 71 526 99 624 135 664 c 1
 161 695 196 710 237 710 c 0
226 641 m 0
 209 641 196 633 188 618 c 0
 170 584 152 496 152 442 c 0
 152 414 163 401 184 401 c 0
 201 401 213 408 222 424 c 0
 239 455 258 547 258 601 c 0
 258 628 247 641 226 641 c 0
750 366 m 0xd9c0
 818 366 851 328 851 251 c 0
 851 168 824 75 788 34 c 0
 761 3 727 -12 686 -12 c 0
 619 -12 584 27 584 101 c 0
 584 182 612 280 648 320 c 1
 674 351 709 366 750 366 c 0xd9c0
739 297 m 0
 722 297 709 289 701 274 c 0
 683 240 665 152 665 98 c 0
 665 71 676 57 697 57 c 0
 714 57 726 64 735 81 c 0
 752 111 771 203 771 257 c 0
 771 284 760 297 739 297 c 0
473 366 m 0
 541 366 574 328 574 251 c 0
 574 168 547 75 511 34 c 0
 484 3 450 -12 409 -12 c 0
 342 -12 307 27 307 101 c 0xdbc0
 307 182 335 280 371 320 c 1
 397 351 432 366 473 366 c 0
462 297 m 0
 445 297 431 289 423 274 c 0
 405 240 387 152 387 99 c 0
 387 71 398 57 420 57 c 0
 437 57 449 64 458 80 c 0
 475 111 494 202 494 257 c 0
 494 284 483 297 462 297 c 0
EndSplineSet
EndChar
StartChar: questiondown
Encoding: 191 191 123
Width: 501
Flags: W
HStem: -195 118<220 241> 512 20G<279 399>
VStem: 44 126<-33 -6>
DStem: 279 532 399 532 255 391 374 391
Fore
251 324 m 1
 359 324 l 1
 341 216 321 183 241 121 c 0
 190 82 170 46 170 -6 c 0
 170 -51 194 -77 237 -77 c 0
 266 -77 293 -63 311 -38 c 0
 321 -25 336 7 340 23 c 1
 343 39 l 1
 459 39 l 1
 444 -30 430 -65 400 -104 c 0
 356 -162 290 -195 220 -195 c 0
 184 -195 147 -186 118 -170 c 0
 70 -145 44 -97 44 -33 c 0
 44 22 61 76 90 116 c 0
 110 143 133 166 180 202 c 0
 227 238 239 257 251 324 c 1
255 391 m 1
 279 532 l 1
 399 532 l 1
 374 391 l 1
 255 391 l 1
EndSplineSet
EndChar
StartChar: grave
Encoding: 193 96 124
Width: 273
Flags: W
HStem: 604 146<112 290>
Fore
207 604 m 1
 112 750 l 1
 238 750 l 1
 290 604 l 1
 207 604 l 1
EndSplineSet
EndChar
StartChar: acute
Encoding: 194 180 125
Width: 273
Flags: W
Fore
423 750 m 1
 277 604 l 1
 194 604 l 1
 297 750 l 1
 423 750 l 1
EndSplineSet
Ligature: 0 1 'liga' space acutecomb
EndChar
StartChar: circumflex
Encoding: 195 710 126
Width: 273
Flags: W
HStem: 604 146<216 387>
DStem: 216 750 256 686 97 604 190 604 256 686 319 750 294 604 387 604
Fore
319 750 m 1
 387 604 l 1
 294 604 l 1
 256 686 l 1
 190 604 l 1
 97 604 l 1
 216 750 l 1
 319 750 l 1
EndSplineSet
EndChar
StartChar: tilde
Encoding: 196 732 127
Width: 273
Flags: W
HStem: 717 20G<362 415>
Fore
362 737 m 1
 415 737 l 1
 388 657 351 617 305 617 c 0
 288 617 260 626 226 642 c 0
 208 650 198 653 190 653 c 0
 171 653 155 638 144 610 c 1
 92 610 l 1
 122 695 159 733 212 733 c 0
 228 733 236 730 268 714 c 0
 295 701 305 697 316 697 c 0
 337 697 351 709 362 737 c 1
EndSplineSet
Ligature: 0 1 'liga' space tildecomb
EndChar
StartChar: macron
Encoding: 197 175 128
Width: 273
Flags: W
HStem: 604 74<112 383>
Fore
396 678 m 1
 383 604 l 1
 100 604 l 1
 113 678 l 1
 396 678 l 1
EndSplineSet
Ligature: 0 1 'liga' space uni0304
EndChar
StartChar: breve
Encoding: 198 728 129
Width: 273
Flags: W
VStem: 128 55<722 749>
Fore
352 750 m 1
 405 750 l 1
 378 653 321 604 237 604 c 0
 167 604 128 646 128 722 c 0
 128 728 128 738 129 750 c 1
 183 750 l 1
 183 744 l 2
 183 699 204 680 255 680 c 0
 308 680 332 697 352 750 c 1
EndSplineSet
Ligature: 0 1 'liga' space uni0306
EndChar
StartChar: dotaccent
Encoding: 199 729 130
Width: 273
Flags: W
HStem: 709 20G<212 316>
DStem: 212 729 316 729 192 614 296 614
Fore
316 729 m 1
 296 614 l 1
 192 614 l 1
 212 729 l 1
 316 729 l 1
EndSplineSet
Ligature: 0 1 'liga' space uni0307
EndChar
StartChar: dieresis
Encoding: 200 168 131
Width: 273
Flags: W
HStem: 614 115<131 215 291 375>
DStem: 132 729 235 729 112 614 215 614 292 729 395 729 272 614 375 614
Fore
235 729 m 1
 215 614 l 1
 112 614 l 1
 132 729 l 1
 235 729 l 1
395 729 m 1
 375 614 l 1
 272 614 l 1
 292 729 l 1
 395 729 l 1
EndSplineSet
Ligature: 0 1 'liga' space uni0308
EndChar
StartChar: ring
Encoding: 202 730 132
Width: 273
Flags: W
HStem: 568 52<236 247> 724 52<259 272>
VStem: 164 47<650 665> 297 47<679 693>
Fore
272 776 m 0
 312 776 344 739 344 693 c 0
 344 630 290 568 236 568 c 0
 196 568 164 605 164 651 c 0
 164 714 218 776 272 776 c 0
263 724 m 0
 236 724 211 694 211 661 c 0
 211 637 225 620 245 620 c 0
 272 620 297 650 297 683 c 0
 297 707 283 724 263 724 c 0
EndSplineSet
Ligature: 0 1 'liga' space uni030A
EndChar
StartChar: cedilla
Encoding: 203 184 133
Width: 273
Flags: W
HStem: -228 57<49 59> -20 20G<88 136>
VStem: 103 77<-126 -111>
DStem: 88 0 136 0 28 -84 96 -55
Fore
28 -84 m 1
 88 0 l 1
 136 0 l 1
 96 -55 l 1
 106 -52 113 -51 120 -51 c 0
 156 -51 180 -76 180 -111 c 0
 180 -176 126 -228 57 -228 c 0
 30 -228 12 -223 -30 -203 c 1
 -4 -155 l 1
 26 -166 43 -171 56 -171 c 0
 81 -171 103 -149 103 -124 c 0
 103 -107 92 -96 76 -96 c 0
 69 -96 57 -99 42 -104 c 1
 28 -84 l 1
EndSplineSet
Ligature: 0 1 'liga' space uni0327
EndChar
StartChar: hungarumlaut
Encoding: 205 733 134
Width: 273
Flags: W
Fore
341 750 m 1
 196 604 l 1
 113 604 l 1
 215 750 l 1
 341 750 l 1
529 750 m 1
 383 604 l 1
 301 604 l 1
 403 750 l 1
 529 750 l 1
EndSplineSet
Ligature: 0 1 'liga' space uni030B
EndChar
StartChar: ogonek
Encoding: 206 731 135
Width: 273
Flags: W
HStem: -228 56<121 142> -20 20G<147 216>
Fore
207 -155 m 1
 213 -204 l 1
 169 -222 148 -228 121 -228 c 0
 69 -228 33 -197 33 -151 c 0
 33 -122 47 -85 70 -57 c 0
 90 -32 108 -19 147 0 c 1
 216 0 l 1
 215 -4 l 1
 151 -45 112 -95 112 -136 c 0
 112 -157 125 -172 142 -172 c 0
 157 -172 181 -166 207 -155 c 1
EndSplineSet
Ligature: 0 1 'liga' space uni0328
EndChar
StartChar: caron
Encoding: 207 711 136
Width: 273
Flags: W
HStem: 604 146<123 293>
DStem: 123 750 216 750 191 604 253 668 319 750 412 750 253 668 293 604
Fore
412 750 m 1
 293 604 l 1
 191 604 l 1
 123 750 l 1
 216 750 l 1
 253 668 l 1
 319 750 l 1
 412 750 l 1
EndSplineSet
EndChar
StartChar: emdash
Encoding: 208 8212 137
Width: 820
Flags: W
HStem: 227 106<57 860>
Fore
878 333 m 1
 860 227 l 1
 40 227 l 1
 58 333 l 1
 878 333 l 1
EndSplineSet
EndChar
StartChar: AE
Encoding: 225 198 138
Width: 820
Flags: W
HStem: 0 127<495 783> 0 271<255 783> 153 118<255 379> 313 127<549 801> 591 127<344 455 344 880>
DStem: 344 718 402 591 4 0 255 271 344 718 202 153 4 0 133 0 455 591 575 591 399 271 549 440 455 591 527 313 399 271 495 127
Fore
527 313 m 1x58
 495 127 l 1
 805 127 l 1
 783 0 l 1x98
 352 0 l 1x58
 379 153 l 1
 202 153 l 1x38
 133 0 l 1
 4 0 l 1
 344 718 l 1
 902 718 l 1
 880 591 l 1
 575 591 l 1
 549 440 l 1
 823 440 l 1
 801 313 l 1
 527 313 l 1x58
255 271 m 1x58
 399 271 l 1
 455 591 l 1
 402 591 l 1
 255 271 l 1x58
EndSplineSet
EndChar
StartChar: ordfeminine
Encoding: 227 170 139
Width: 303
Flags: W
HStem: 276 80<88 321> 401 61<177 210> 666 71<264 280>
VStem: 102 79<472 490> 274 72<426 446>
Fore
209 625 m 1
 137 625 l 1
 161 705 201 737 280 737 c 0
 345 737 381 710 381 663 c 0
 381 657 380 650 379 644 c 2
 349 471 l 2
 347 460 346 449 346 444 c 0
 346 432 350 425 358 422 c 1
 356 409 l 1
 275 409 l 1
 274 417 274 421 274 426 c 0
 274 431 274 436 275 447 c 1
 240 413 214 401 177 401 c 0
 131 401 102 428 102 472 c 0
 102 536 145 588 206 598 c 2
 275 609 l 2
 297 613 306 621 306 639 c 0
 306 657 293 666 266 666 c 0
 234 666 219 656 209 625 c 1
286 525 m 2
 293 565 l 1
 281 557 268 553 240 548 c 0
 200 541 181 522 181 490 c 0
 181 473 192 462 210 462 c 0
 246 462 280 490 286 525 c 2
89 356 m 1
 335 356 l 1
 321 276 l 1
 75 276 l 1
 89 356 l 1
EndSplineSet
EndChar
StartChar: Lslash
Encoding: 232 321 140
Width: 501
Flags: W
HStem: 0 130<208 478> 698 20G<187 311>
DStem: 116 311 253 386 62 0 208 130 187 718 311 718 130 389 266 464
Fore
370 459 m 1
 253 386 l 1
 208 130 l 1
 501 130 l 1
 478 0 l 1
 62 0 l 1
 116 311 l 1
 28 256 l 1
 42 334 l 1
 130 389 l 1
 187 718 l 1
 311 718 l 1
 266 464 l 1
 384 537 l 1
 370 459 l 1
EndSplineSet
EndChar
StartChar: Oslash
Encoding: 233 216 141
Width: 638
Flags: W
HStem: -19 127<316 339> 610 127<423 446>
VStem: 88 126<246 278> 549 126<442 473>
DStem: 115 104 140 63 29 11 57 -27 526 551 543 501 219 218 236 168 705 745 733 707 623 656 648 615
Fore
733 707 m 1
 648 615 l 1
 669 563 675 530 675 473 c 0
 675 346 630 197 567 114 c 0
 503 30 410 -19 316 -19 c 0
 278 -19 241 -11 208 6 c 0
 182 19 167 31 140 63 c 1
 57 -27 l 1
 29 11 l 1
 115 104 l 1
 95 154 88 189 88 246 c 0
 88 373 133 522 196 604 c 0
 259 688 353 737 446 737 c 0
 483 737 520 729 552 713 c 0
 579 700 594 688 623 656 c 1
 705 745 l 1
 733 707 l 1
219 218 m 1
 526 551 l 1
 499 593 469 610 425 610 c 0
 362 610 299 564 264 493 c 0
 234 429 214 344 214 274 c 0
 214 253 215 242 219 218 c 1
543 501 m 1
 236 168 l 1
 262 126 293 108 337 108 c 0
 401 108 464 153 498 224 c 0
 530 289 549 373 549 444 c 0
 549 467 548 477 543 501 c 1
EndSplineSet
KernsSLIF: 65 -32 0 0
EndChar
StartChar: OE
Encoding: 234 338 142
Width: 820
Flags: W
HStem: -19 124<273 307> 0 127<537 788> 313 127<591 824> 591 127<527 891> 613 124<384 413>
VStem: 81 123<232 269>
DStem: 485 521 618 591 428 196 591 440 485 521 569 313 428 196 537 127
Fore
618 591 m 1x34
 591 440 l 1
 846 440 l 1
 824 313 l 1
 569 313 l 1
 537 127 l 1
 810 127 l 1
 788 0 l 1
 402 0 l 1x74
 411 50 l 1
 362 -3 329 -19 273 -19 c 0
 153 -19 81 75 81 232 c 0
 81 374 128 531 197 623 c 0
 255 699 323 737 403 737 c 0xac
 459 737 491 720 520 676 c 1
 527 718 l 1
 913 718 l 1
 891 591 l 1
 618 591 l 1x34
428 196 m 1
 485 521 l 1
 486 528 487 534 487 539 c 0
 489 581 451 613 399 613 c 0
 343 613 295 576 260 508 c 0
 227 441 204 346 204 269 c 0
 204 164 241 105 307 105 c 0xac
 364 105 420 147 428 196 c 1
EndSplineSet
EndChar
StartChar: ordmasculine
Encoding: 235 186 143
Width: 299
Flags: W
HStem: 276 80<88 321> 401 72<220 235> 665 72<264 279>
VStem: 101 81<529 549> 317 81<595 613>
Fore
279 737 m 0
 353 737 398 688 398 606 c 0
 398 493 318 401 220 401 c 0
 146 401 101 450 101 531 c 0
 101 644 181 737 279 737 c 0
266 665 m 0
 221 665 182 608 182 541 c 0
 182 499 201 473 233 473 c 0
 278 473 317 530 317 597 c 0
 317 639 297 665 266 665 c 0
89 356 m 1
 335 356 l 1
 321 276 l 1
 75 276 l 1
 89 356 l 1
EndSplineSet
EndChar
StartChar: ae
Encoding: 241 230 144
Width: 729
Flags: W
HStem: -14 100<176 215> -14 112<498 522> 228 91<464 744> 431 115<571 598>
VStem: 46 118<105 133> 643 114<344 361>
Fore
608 156 m 1x7c
 726 156 l 1
 696 90 673 59 632 29 c 0
 592 0 549 -14 498 -14 c 0x7c
 423 -14 386 8 357 72 c 1
 314 15 252 -14 176 -14 c 0xbc
 91 -14 46 27 46 105 c 0
 46 207 102 284 187 301 c 2
 299 323 l 2
 333 330 347 335 355 345 c 0
 362 353 368 374 368 393 c 0
 368 419 344 434 302 434 c 0
 252 434 225 411 215 359 c 1
 102 359 l 1
 117 414 130 442 155 473 c 0
 193 520 254 546 327 546 c 0
 385 546 421 529 456 487 c 1
 511 531 547 546 598 546 c 0
 699 546 757 474 757 351 c 0
 757 319 754 286 748 253 c 1
 744 228 l 1
 444 228 l 1
 443 213 442 197 442 188 c 0
 442 131 471 98 522 98 c 0
 561 98 591 118 608 156 c 1x7c
332 188 m 1
 343 255 l 1
 328 241 309 235 253 225 c 0
 214 218 199 211 186 197 c 0
 173 182 164 156 164 133 c 0
 164 104 184 86 215 86 c 0xbc
 268 86 322 134 332 188 c 1
464 319 m 1
 642 319 l 1
 643 344 l 1
 643 398 616 431 571 431 c 0
 520 431 487 396 464 319 c 1
EndSplineSet
KernsSLIF: 121 -18 0 0 119 -7 0 0 118 -17 0 0
EndChar
StartChar: dotlessi
Encoding: 245 305 145
Width: 228
Flags: W
HStem: 0 21G<57 171> 512 20G<150 264>
DStem: 150 532 264 532 57 0 171 0
Fore
150 532 m 1
 264 532 l 1
 171 0 l 1
 57 0 l 1
 150 532 l 1
EndSplineSet
EndChar
StartChar: lslash
Encoding: 248 322 146
Width: 228
Flags: W
HStem: 0 21G<57 171> 698 20G<182 297>
DStem: 113 324 240 395 57 0 171 0 182 718 297 718 127 402 254 473
Fore
334 523 m 1
 320 445 l 1
 240 395 l 1
 171 0 l 1
 57 0 l 1
 113 324 l 1
 33 274 l 1
 47 352 l 1
 127 402 l 1
 182 718 l 1
 297 718 l 1
 254 473 l 1
 334 523 l 1
EndSplineSet
EndChar
StartChar: oslash
Encoding: 249 248 147
Width: 501
Flags: W
HStem: -14 118<248 270> 428 118<324 346>
VStem: 67 120<191 212> 407 120<320 351>
DStem: 91 77 113 44 18 0 44 -29 393 393 406 351 189 179 203 138 552 560 575 528 483 487 504 454
Fore
575 528 m 1
 504 454 l 1
 521 413 527 386 527 341 c 0
 527 253 495 152 448 90 c 0
 397 23 325 -14 248 -14 c 0
 191 -14 151 3 113 44 c 1
 44 -29 l 1
 18 0 l 1
 91 77 l 1
 73 118 67 147 67 191 c 0
 67 279 99 381 146 442 c 0
 198 509 269 546 346 546 c 0
 403 546 443 529 483 487 c 1
 552 560 l 1
 575 528 l 1
406 351 m 1
 203 138 l 1
 218 114 237 104 268 104 c 0
 320 104 358 135 383 197 c 0
 397 234 407 285 407 322 c 0
 407 331 407 337 406 351 c 1
189 179 m 1
 393 393 l 1
 376 418 357 428 326 428 c 0
 274 428 236 397 211 335 c 0
 197 299 187 248 187 210 c 0
 187 201 188 194 189 179 c 1
EndSplineSet
EndChar
StartChar: oe
Encoding: 250 339 148
Width: 774
Flags: W
HStem: -14 112<545 566> 228 91<507 788> 428 118<322 344>
VStem: 67 119<186 210> 687 114<345 358>
Fore
652 156 m 1
 770 156 l 1
 740 90 717 59 676 29 c 0
 637 0 593 -14 545 -14 c 0
 476 -14 437 7 404 60 c 1
 358 8 311 -14 248 -14 c 0
 136 -14 67 64 67 190 c 0
 67 390 189 546 344 546 c 0
 404 546 449 520 482 466 c 1
 543 527 580 546 640 546 c 0
 743 546 801 475 801 351 c 0
 801 319 798 286 792 253 c 1
 788 228 l 1
 488 228 l 1
 487 213 486 198 486 188 c 0
 486 130 515 98 566 98 c 0
 605 98 634 118 652 156 c 1
325 428 m 0
 280 428 244 403 220 355 c 0
 200 316 186 255 186 208 c 0
 186 140 214 104 269 104 c 0
 314 104 350 129 374 177 c 0
 394 216 408 276 408 323 c 0
 408 392 380 428 325 428 c 0
507 319 m 1
 686 319 l 1
 687 345 l 1
 687 398 659 431 615 431 c 0
 564 431 530 396 507 319 c 1
EndSplineSet
EndChar
StartChar: germandbls
Encoding: 251 223 149
Width: 501
Flags: W
HStem: -14 115<262 282> 619 112<353 377>
VStem: 402 118<260 285> 421 118<556 585>
DStem: 151 539 264 530 57 0 172 0
Fore
228 -8 m 1xe0
 247 102 l 1
 250 102 l 2
 254 101 264 101 271 101 c 0
 316 101 350 118 373 152 c 0
 390 178 402 223 402 260 c 0xe0
 402 318 375 340 295 347 c 1
 312 444 l 1
 357 446 376 452 392 469 c 0
 409 487 421 522 421 556 c 0
 421 596 396 619 354 619 c 0
 308 619 273 585 264 530 c 1
 172 0 l 1
 57 0 l 1
 151 539 l 1
 171 656 259 731 377 731 c 0
 481 731 539 679 539 585 c 0xd0
 539 506 509 445 453 411 c 1
 502 377 520 344 520 285 c 0
 520 216 491 128 451 76 c 0
 407 17 345 -14 274 -14 c 0
 260 -14 252 -13 228 -8 c 1xe0
EndSplineSet
EndChar
StartChar: Adieresis
Encoding: 256 196 150
Width: 592
Flags: W
HStem: 0 21G<16 146 442 576> 148 124<267 430> 698 20G<352 494> 800 115<323 407 483 567>
DStem: 324 915 427 915 304 800 407 800 352 718 394 559 16 0 267 272 352 718 213 148 16 0 146 0 484 915 587 915 464 800 567 800
Fore
213 148 m 1
 146 0 l 1
 16 0 l 1
 352 718 l 1
 494 718 l 1
 576 0 l 1
 442 0 l 1
 430 148 l 1
 213 148 l 1
394 559 m 1
 267 272 l 1
 417 272 l 1
 394 559 l 1
427 915 m 1
 407 800 l 1
 304 800 l 1
 324 915 l 1
 427 915 l 1
587 915 m 1
 567 800 l 1
 464 800 l 1
 484 915 l 1
 587 915 l 1
EndSplineSet
KernsSLIF: 121 -32 0 0 119 -24 0 0 118 -34 0 0 117 -16 0 0 116 -16 0 0 39 -57 0 0 186 -54 0 0 113 -15 0 0 46 10 0 0 111 -18 0 0 172 -39 0 0 171 -42 0 0 103 -19 0 0 100 -15 0 0 44 9 0 0 99 -15 0 0 98 -11 0 0 97 -11 0 0 89 -75 0 0 87 -46 0 0 86 -56 0 0 85 -30 0 0 84 -72 0 0 81 -31 0 0 79 -32 0 0 71 -32 0 0 67 -31 0 0
Ligature: 0 0 'liga' A uni0308
EndChar
StartChar: Aacute
Encoding: 257 193 151
Width: 592
Flags: W
HStem: 0 21G<16 146 442 576> 148 124<267 430> 698 20G<352 494>
DStem: 352 718 394 559 16 0 267 272 352 718 213 148 16 0 146 0
Fore
213 148 m 1
 146 0 l 1
 16 0 l 1
 352 718 l 1
 494 718 l 1
 576 0 l 1
 442 0 l 1
 430 148 l 1
 213 148 l 1
394 559 m 1
 267 272 l 1
 417 272 l 1
 394 559 l 1
615 936 m 1
 469 790 l 1
 386 790 l 1
 489 936 l 1
 615 936 l 1
EndSplineSet
KernsSLIF: 121 -32 0 0 119 -24 0 0 118 -33 0 0 117 -17 0 0 116 -17 0 0 39 -56 0 0 113 -15 0 0 46 9 0 0 111 -18 0 0 45 1 0 0 172 -40 0 0 171 -42 0 0 103 -19 0 0 101 -12 0 0 100 -16 0 0 44 9 0 0 99 -16 0 0 98 -11 0 0 97 -11 0 0 89 -74 0 0 87 -46 0 0 86 -56 0 0 85 -30 0 0 84 -72 0 0 81 -32 0 0 79 -32 0 0 71 -32 0 0 67 -31 0 0
Ligature: 0 0 'liga' A acutecomb
EndChar
StartChar: Agrave
Encoding: 258 192 152
Width: 592
Flags: W
HStem: 0 21G<16 146 442 576> 148 124<267 430> 698 20G<352 494> 790 146<304 482>
DStem: 352 718 394 559 16 0 267 272 352 718 213 148 16 0 146 0
Fore
213 148 m 1
 146 0 l 1
 16 0 l 1
 352 718 l 1
 494 718 l 1
 576 0 l 1
 442 0 l 1
 430 148 l 1
 213 148 l 1
394 559 m 1
 267 272 l 1
 417 272 l 1
 394 559 l 1
399 790 m 1
 304 936 l 1
 430 936 l 1
 482 790 l 1
 399 790 l 1
EndSplineSet
KernsSLIF: 46 11 0 0 44 9 0 0 89 -75 0 0 87 -46 0 0 86 -56 0 0 85 -29 0 0 84 -72 0 0 81 -30 0 0 79 -31 0 0 71 -31 0 0 67 -30 0 0
Ligature: 0 0 'liga' A gravecomb
EndChar
StartChar: Acircumflex
Encoding: 259 194 153
Width: 592
Flags: W
HStem: 0 21G<16 146 442 576> 148 124<267 430> 698 20G<352 494> 790 146<408 579>
DStem: 352 718 394 559 16 0 267 272 352 718 213 148 16 0 146 0 408 936 448 872 289 790 382 790 448 872 511 936 486 790 579 790
Fore
213 148 m 1
 146 0 l 1
 16 0 l 1
 352 718 l 1
 494 718 l 1
 576 0 l 1
 442 0 l 1
 430 148 l 1
 213 148 l 1
394 559 m 1
 267 272 l 1
 417 272 l 1
 394 559 l 1
511 936 m 1
 579 790 l 1
 486 790 l 1
 448 872 l 1
 382 790 l 1
 289 790 l 1
 408 936 l 1
 511 936 l 1
EndSplineSet
KernsSLIF: 46 11 0 0 44 10 0 0 89 -74 0 0 87 -46 0 0 86 -56 0 0 85 -29 0 0 84 -72 0 0 81 -30 0 0 79 -31 0 0 71 -31 0 0 67 -30 0 0
Ligature: 0 0 'liga' A uni0302
EndChar
StartChar: Abreve
Encoding: 260 258 154
Width: 592
Flags: W
HStem: 0 21G<16 146 442 576> 148 124<267 430> 698 20G<352 494> 790 76<428 449>
VStem: 320 55<908 936>
DStem: 352 718 394 559 16 0 267 272 352 718 213 148 16 0 146 0
Fore
213 148 m 1
 146 0 l 1
 16 0 l 1
 352 718 l 1
 494 718 l 1
 576 0 l 1
 442 0 l 1
 430 148 l 1
 213 148 l 1
394 559 m 1
 267 272 l 1
 417 272 l 1
 394 559 l 1
544 936 m 1
 597 936 l 1
 570 839 513 790 429 790 c 0
 359 790 320 832 320 908 c 0
 320 914 320 924 321 936 c 1
 375 936 l 1
 375 930 l 2
 375 885 396 866 447 866 c 0
 500 866 524 883 544 936 c 1
EndSplineSet
Ligature: 0 0 'liga' A uni0306
EndChar
StartChar: Atilde
Encoding: 261 195 155
Width: 592
Flags: W
HStem: 0 21G<16 146 442 576> 148 124<267 430> 698 20G<352 494> 803 80<497 510> 839 80<382 404>
DStem: 352 718 394 559 16 0 267 272 352 718 213 148 16 0 146 0
Fore
213 148 m 1xe0
 146 0 l 1
 16 0 l 1
 352 718 l 1
 494 718 l 1
 576 0 l 1
 442 0 l 1
 430 148 l 1
 213 148 l 1xe0
394 559 m 1
 267 272 l 1
 417 272 l 1
 394 559 l 1
554 923 m 1
 607 923 l 1
 580 843 543 803 497 803 c 0xf0
 480 803 452 812 418 828 c 0
 400 836 390 839 382 839 c 0
 363 839 347 824 336 796 c 1
 284 796 l 1
 314 881 351 919 404 919 c 0xe8
 420 919 428 916 460 900 c 0
 487 887 497 883 508 883 c 0xf0
 529 883 543 895 554 923 c 1
EndSplineSet
KernsSLIF: 46 9 0 0 44 9 0 0 89 -75 0 0 87 -47 0 0 86 -56 0 0 85 -31 0 0 84 -73 0 0 81 -32 0 0 79 -33 0 0 71 -33 0 0 67 -32 0 0
Ligature: 0 0 'liga' A tildecomb
EndChar
StartChar: Aring
Encoding: 262 197 156
Width: 592
Flags: W
HStem: 0 21G<16 146 442 576> 148 124<267 430> 698 20G<352 494> 781 52<433 444> 937 52<458 469>
VStem: 361 47<863 876> 494 47<894 906>
DStem: 352 718 394 559 16 0 267 272 352 718 213 148 16 0 146 0
Fore
213 148 m 1
 146 0 l 1
 16 0 l 1
 352 718 l 1
 494 718 l 1
 576 0 l 1
 442 0 l 1
 430 148 l 1
 213 148 l 1
394 559 m 1
 267 272 l 1
 417 272 l 1
 394 559 l 1
469 989 m 0
 509 989 541 952 541 906 c 0
 541 843 487 781 433 781 c 0
 393 781 361 818 361 864 c 0
 361 927 415 989 469 989 c 0
460 937 m 0
 433 937 408 907 408 874 c 0
 408 850 422 833 442 833 c 0
 469 833 494 863 494 896 c 0
 494 920 480 937 460 937 c 0
EndSplineSet
KernsSLIF: 121 -32 0 0 119 -24 0 0 118 -34 0 0 117 -16 0 0 116 -16 0 0 39 -56 0 0 186 -54 0 0 113 -14 0 0 46 11 0 0 111 -17 0 0 45 1 0 0 172 -39 0 0 171 -41 0 0 103 -19 0 0 101 -11 0 0 100 -14 0 0 44 9 0 0 99 -15 0 0 98 -11 0 0 97 -11 0 0 89 -75 0 0 87 -46 0 0 86 -56 0 0 85 -29 0 0 84 -72 0 0 81 -30 0 0 79 -31 0 0 71 -31 0 0 67 -30 0 0
Ligature: 0 0 'liga' A uni030A
EndChar
StartChar: Aogonek
Encoding: 263 260 157
Width: 592
Flags: W
HStem: -228 56<481 502> -20 20G<442 507> 0 21G<16 146> 148 124<267 430> 698 20G<352 494>
VStem: 393 79<-151 -136>
DStem: 352 718 394 559 16 0 267 272 352 718 213 148 16 0 146 0
Fore
430 148 m 1
 213 148 l 1
 146 0 l 1
 16 0 l 1
 352 718 l 1
 494 718 l 1
 576 0 l 1
 511 -46 472 -97 472 -136 c 0
 472 -157 485 -172 502 -172 c 0
 517 -172 541 -166 567 -155 c 1
 573 -204 l 1
 529 -222 508 -228 481 -228 c 0
 429 -228 393 -197 393 -151 c 0
 393 -115 413 -71 445 -40 c 0
 463 -23 472 -17 507 0 c 1
 442 0 l 1
 430 148 l 1
394 559 m 1
 267 272 l 1
 417 272 l 1
 394 559 l 1
EndSplineSet
Ligature: 0 0 'liga' A uni0328
EndChar
StartChar: Ccedilla
Encoding: 264 199 158
Width: 592
Flags: W
HStem: -228 57<219 235> -19 130<298 327> 607 130<416 438>
VStem: 88 128<240 269> 278 78<-126 -111>
DStem: 254 -14 298 -19 204 -84 272 -55
Fore
298 -19 m 1
 272 -55 l 1
 282 -52 289 -51 296 -51 c 0
 332 -51 356 -75 356 -111 c 0
 356 -176 302 -228 233 -228 c 0
 206 -228 187 -223 146 -203 c 1
 172 -155 l 1
 202 -167 219 -171 231 -171 c 0
 256 -171 278 -149 278 -124 c 0
 278 -108 267 -96 252 -96 c 0
 244 -96 233 -99 218 -104 c 1
 204 -84 l 1
 254 -14 l 1
 231 -10 213 -3 195 7 c 0
 126 44 88 128 88 241 c 0
 88 376 131 519 199 609 c 0
 262 693 345 737 438 737 c 0
 563 737 647 649 647 519 c 0
 647 510 647 499 645 483 c 1
 522 483 l 1
 520 522 517 538 506 559 c 0
 491 589 459 607 418 607 c 0
 365 607 319 579 283 524 c 0
 244 464 216 359 216 267 c 0
 216 167 256 111 327 111 c 0
 370 111 409 130 439 167 c 0
 456 188 465 205 481 246 c 1
 604 246 l 1
 546 73 438 -20 298 -19 c 1
EndSplineSet
KernsSLIF: 65 -31 0 0
Ligature: 0 0 'liga' C uni0327
EndChar
StartChar: Cacute
Encoding: 265 262 159
Width: 592
Flags: W
HStem: -19 130<303 327> 607 130<416 438>
VStem: 88 128<239 270>
Fore
646 483 m 1
 522 483 l 1
 520 522 517 538 506 559 c 0
 491 589 459 607 418 607 c 0
 365 607 319 579 283 524 c 0
 244 464 216 359 216 266 c 0
 216 167 256 111 327 111 c 0
 370 111 409 130 439 167 c 0
 456 188 465 205 481 246 c 1
 604 246 l 1
 573 161 550 120 508 74 c 0
 453 14 381 -19 303 -19 c 0
 242 -19 188 2 152 39 c 0
 113 80 88 158 88 241 c 0
 88 376 132 521 199 609 c 0
 263 693 345 737 438 737 c 0
 563 737 647 650 647 519 c 0
 647 510 647 499 646 483 c 1
615 936 m 1
 469 790 l 1
 386 790 l 1
 489 936 l 1
 615 936 l 1
EndSplineSet
Ligature: 0 0 'liga' C acutecomb
EndChar
StartChar: Ccaron
Encoding: 266 268 160
Width: 592
Flags: W
HStem: -19 130<303 327> 607 130<416 438> 790 146<335 505>
VStem: 88 128<239 270>
DStem: 335 936 428 936 403 790 465 854 531 936 624 936 465 854 505 790
Fore
646 483 m 1
 522 483 l 1
 520 522 517 538 506 559 c 0
 491 589 459 607 418 607 c 0
 365 607 319 579 283 524 c 0
 244 464 216 359 216 266 c 0
 216 167 256 111 327 111 c 0
 370 111 409 130 439 167 c 0
 456 188 465 205 481 246 c 1
 604 246 l 1
 573 161 550 120 508 74 c 0
 453 14 381 -19 303 -19 c 0
 242 -19 188 2 152 39 c 0
 113 80 88 158 88 241 c 0
 88 376 132 521 199 609 c 0
 263 693 345 737 438 737 c 0
 563 737 647 650 647 519 c 0
 647 510 647 499 646 483 c 1
624 936 m 1
 505 790 l 1
 403 790 l 1
 335 936 l 1
 428 936 l 1
 465 854 l 1
 531 936 l 1
 624 936 l 1
EndSplineSet
Ligature: 0 0 'liga' C uni030C
EndChar
StartChar: Dcaron
Encoding: 267 270 161
Width: 592
Flags: W
HStem: 0 124<204 335> 594 124<187 415> 790 146<295 465>
VStem: 509 128<460 488>
DStem: 187 718 286 594 62 0 204 124 295 936 388 936 363 790 425 854 491 936 584 936 425 854 465 790
Fore
62 0 m 1
 187 718 l 1
 448 718 l 2
 502 718 551 700 581 668 c 0
 615 633 637 561 637 486 c 0
 637 352 593 206 524 114 c 0
 467 37 399 0 317 0 c 2
 62 0 l 1
286 594 m 1
 204 124 l 1
 324 124 l 2
 376 124 422 158 455 223 c 0
 488 287 509 381 509 462 c 0
 509 552 476 594 405 594 c 2
 286 594 l 1
584 936 m 1
 465 790 l 1
 363 790 l 1
 295 936 l 1
 388 936 l 1
 425 854 l 1
 491 936 l 1
 584 936 l 1
EndSplineSet
Ligature: 0 0 'liga' D uni030C
EndChar
StartChar: Edieresis
Encoding: 268 203 162
Width: 547
Flags: W
HStem: 0 127<205 509> 313 127<259 524> 591 127<187 598> 800 115<300 384 460 544>
DStem: 187 718 285 591 62 0 259 440 187 718 237 313 62 0 205 127 301 915 404 915 281 800 384 800 461 915 564 915 441 800 544 800
Fore
620 718 m 1
 598 591 l 1
 285 591 l 1
 259 440 l 1
 546 440 l 1
 524 313 l 1
 237 313 l 1
 205 127 l 1
 531 127 l 1
 509 0 l 1
 62 0 l 1
 187 718 l 1
 620 718 l 1
404 915 m 1
 384 800 l 1
 281 800 l 1
 301 915 l 1
 404 915 l 1
564 915 m 1
 544 800 l 1
 441 800 l 1
 461 915 l 1
 564 915 l 1
EndSplineSet
Ligature: 0 0 'liga' E uni0308
EndChar
StartChar: Eacute
Encoding: 269 201 163
Width: 547
Flags: W
HStem: 0 127<205 509> 313 127<259 524> 591 127<187 598>
DStem: 187 718 285 591 62 0 259 440 187 718 237 313 62 0 205 127
Fore
620 718 m 1
 598 591 l 1
 285 591 l 1
 259 440 l 1
 546 440 l 1
 524 313 l 1
 237 313 l 1
 205 127 l 1
 531 127 l 1
 509 0 l 1
 62 0 l 1
 187 718 l 1
 620 718 l 1
592 936 m 1
 446 790 l 1
 363 790 l 1
 466 936 l 1
 592 936 l 1
EndSplineSet
Ligature: 0 0 'liga' E acutecomb
EndChar
StartChar: Egrave
Encoding: 270 200 164
Width: 547
Flags: W
HStem: 0 127<205 509> 313 127<259 524> 591 127<187 598> 790 146<281 459>
DStem: 187 718 285 591 62 0 259 440 187 718 237 313 62 0 205 127
Fore
620 718 m 1
 598 591 l 1
 285 591 l 1
 259 440 l 1
 546 440 l 1
 524 313 l 1
 237 313 l 1
 205 127 l 1
 531 127 l 1
 509 0 l 1
 62 0 l 1
 187 718 l 1
 620 718 l 1
376 790 m 1
 281 936 l 1
 407 936 l 1
 459 790 l 1
 376 790 l 1
EndSplineSet
Ligature: 0 0 'liga' E gravecomb
EndChar
StartChar: Ecircumflex
Encoding: 271 202 165
Width: 547
Flags: W
HStem: 0 127<205 509> 313 127<259 524> 591 127<187 598> 790 146<386 557>
DStem: 187 718 285 591 62 0 259 440 187 718 237 313 62 0 205 127 386 936 426 872 267 790 360 790 426 872 489 936 464 790 557 790
Fore
620 718 m 1
 598 591 l 1
 285 591 l 1
 259 440 l 1
 546 440 l 1
 524 313 l 1
 237 313 l 1
 205 127 l 1
 531 127 l 1
 509 0 l 1
 62 0 l 1
 187 718 l 1
 620 718 l 1
489 936 m 1
 557 790 l 1
 464 790 l 1
 426 872 l 1
 360 790 l 1
 267 790 l 1
 386 936 l 1
 489 936 l 1
EndSplineSet
Ligature: 0 0 'liga' E uni0302
EndChar
StartChar: Ecaron
Encoding: 272 282 166
Width: 547
Flags: W
HStem: 0 127<205 509> 313 127<259 524> 591 127<187 598> 790 146<292 462>
DStem: 187 718 285 591 62 0 259 440 187 718 237 313 62 0 205 127 292 936 385 936 360 790 422 854 488 936 581 936 422 854 462 790
Fore
620 718 m 1
 598 591 l 1
 285 591 l 1
 259 440 l 1
 546 440 l 1
 524 313 l 1
 237 313 l 1
 205 127 l 1
 531 127 l 1
 509 0 l 1
 62 0 l 1
 187 718 l 1
 620 718 l 1
581 936 m 1
 462 790 l 1
 360 790 l 1
 292 936 l 1
 385 936 l 1
 422 854 l 1
 488 936 l 1
 581 936 l 1
EndSplineSet
Ligature: 0 0 'liga' E uni030C
EndChar
StartChar: Edotaccent
Encoding: 273 278 167
Width: 547
Flags: W
HStem: 0 127<205 509> 313 127<259 524> 591 127<187 598>
DStem: 187 718 285 591 62 0 259 440 187 718 237 313 62 0 205 127 381 915 485 915 361 800 465 800
Fore
620 718 m 1
 598 591 l 1
 285 591 l 1
 259 440 l 1
 546 440 l 1
 524 313 l 1
 237 313 l 1
 205 127 l 1
 531 127 l 1
 509 0 l 1
 62 0 l 1
 187 718 l 1
 620 718 l 1
485 915 m 1
 465 800 l 1
 361 800 l 1
 381 915 l 1
 485 915 l 1
EndSplineSet
Ligature: 0 0 'liga' E uni0307
EndChar
StartChar: Eogonek
Encoding: 274 280 168
Width: 547
Flags: W
HStem: -228 56<414 435> 0 127<205 440> 313 127<259 524> 591 127<187 598>
VStem: 326 79<-151 -136>
DStem: 187 718 285 591 62 0 259 440 187 718 237 313 62 0 205 127
Fore
620 718 m 1
 598 591 l 1
 285 591 l 1
 259 440 l 1
 546 440 l 1
 524 313 l 1
 237 313 l 1
 205 127 l 1
 531 127 l 1
 509 0 l 1
 444 -46 405 -97 405 -136 c 0
 405 -157 418 -172 435 -172 c 0
 450 -172 473 -166 500 -155 c 1
 506 -204 l 1
 462 -222 441 -228 414 -228 c 0
 362 -228 326 -197 326 -151 c 0
 326 -115 346 -71 378 -40 c 0
 395 -24 406 -17 440 0 c 1
 62 0 l 1
 187 718 l 1
 620 718 l 1
EndSplineSet
Ligature: 0 0 'liga' E uni0328
EndChar
StartChar: Gbreve
Encoding: 275 286 169
Width: 638
Flags: W
HStem: -19 127<304 347> 613 124<434 453> 790 76<451 472>
VStem: 89 127<247 270> 343 55<908 936> 546 124<495 525>
Fore
385 266 m 1
 406 387 l 1
 653 387 l 1
 585 0 l 1
 503 0 l 1
 506 90 l 1
 435 9 383 -19 304 -19 c 0
 172 -19 89 84 89 249 c 0
 89 377 131 512 200 603 c 0
 267 691 353 737 453 737 c 0
 584 737 670 653 670 525 c 0
 670 518 670 508 669 495 c 1
 546 495 l 1
 546 501 l 2
 546 563 497 613 436 613 c 0
 379 613 323 579 284 520 c 0
 244 460 216 357 216 268 c 0
 216 166 264 108 347 108 c 0
 385 108 421 123 452 151 c 0
 482 179 498 205 522 266 c 1
 385 266 l 1
567 936 m 1
 620 936 l 1
 593 839 536 790 452 790 c 0
 382 790 343 832 343 908 c 0
 343 914 343 924 344 936 c 1
 398 936 l 1
 398 930 l 2
 398 885 419 866 470 866 c 0
 523 866 547 883 567 936 c 1
EndSplineSet
Ligature: 0 0 'liga' G uni0306
EndChar
StartChar: Idieresis
Encoding: 276 207 170
Width: 228
Flags: W
HStem: 0 21G<52 175> 698 20G<177 300> 800 115<141 225 301 385>
DStem: 142 915 245 915 122 800 225 800 177 718 300 718 52 0 175 0 302 915 405 915 282 800 385 800
Fore
300 718 m 1
 175 0 l 1
 52 0 l 1
 177 718 l 1
 300 718 l 1
245 915 m 1
 225 800 l 1
 122 800 l 1
 142 915 l 1
 245 915 l 1
405 915 m 1
 385 800 l 1
 282 800 l 1
 302 915 l 1
 405 915 l 1
EndSplineSet
Ligature: 0 0 'liga' I uni0308
EndChar
StartChar: Iacute
Encoding: 277 205 171
Width: 228
Flags: W
HStem: 0 21G<52 175> 698 20G<178 301>
DStem: 178 718 301 718 52 0 175 0
Fore
301 718 m 1
 175 0 l 1
 52 0 l 1
 178 718 l 1
 301 718 l 1
433 936 m 1
 287 790 l 1
 204 790 l 1
 307 936 l 1
 433 936 l 1
EndSplineSet
Ligature: 0 0 'liga' I acutecomb
EndChar
StartChar: Igrave
Encoding: 278 204 172
Width: 228
Flags: W
HStem: 0 21G<52 175> 698 20G<178 301> 790 146<122 300>
DStem: 178 718 301 718 52 0 175 0
Fore
301 718 m 1
 175 0 l 1
 52 0 l 1
 178 718 l 1
 301 718 l 1
217 790 m 1
 122 936 l 1
 248 936 l 1
 300 790 l 1
 217 790 l 1
EndSplineSet
Ligature: 0 0 'liga' I gravecomb
EndChar
StartChar: Icircumflex
Encoding: 279 206 173
Width: 228
Flags: W
HStem: 0 21G<52 175> 698 20G<178 301> 790 146<226 397>
DStem: 178 718 301 718 52 0 175 0 226 936 266 872 107 790 200 790 266 872 329 936 304 790 397 790
Fore
301 718 m 1
 175 0 l 1
 52 0 l 1
 178 718 l 1
 301 718 l 1
329 936 m 1
 397 790 l 1
 304 790 l 1
 266 872 l 1
 200 790 l 1
 107 790 l 1
 226 936 l 1
 329 936 l 1
EndSplineSet
Ligature: 0 0 'liga' I uni0302
EndChar
StartChar: Idotaccent
Encoding: 280 304 174
Width: 228
Flags: W
HStem: 0 21G<52 175> 698 20G<178 301>
DStem: 178 718 301 718 52 0 175 0 222 915 326 915 202 800 306 800
Fore
301 718 m 1
 175 0 l 1
 52 0 l 1
 178 718 l 1
 301 718 l 1
326 915 m 1
 306 800 l 1
 202 800 l 1
 222 915 l 1
 326 915 l 1
EndSplineSet
Ligature: 0 0 'liga' I uni0307
EndChar
StartChar: Lacute
Encoding: 281 313 175
Width: 501
Flags: W
HStem: 0 130<208 478> 698 20G<187 310>
DStem: 187 718 310 718 62 0 208 130
Fore
310 718 m 1
 208 130 l 1
 501 130 l 1
 478 0 l 1
 62 0 l 1
 187 718 l 1
 310 718 l 1
489 936 m 1
 343 790 l 1
 260 790 l 1
 363 936 l 1
 489 936 l 1
EndSplineSet
Ligature: 0 0 'liga' L acutecomb
EndChar
StartChar: Lcaron
Encoding: 282 317 176
Width: 501
Flags: W
HStem: 0 130<208 478> 698 20G<187 310 475 573>
DStem: 187 718 310 718 62 0 208 130 475 718 573 718 456 611 556 623
Fore
310 718 m 1
 208 130 l 1
 501 130 l 1
 478 0 l 1
 62 0 l 1
 187 718 l 1
 310 718 l 1
475 718 m 1
 573 718 l 1
 556 623 l 1
 547 545 496 486 433 480 c 1
 441 523 l 1
 479 531 507 565 512 611 c 1
 456 611 l 1
 475 718 l 1
EndSplineSet
Ligature: 0 0 'liga' L uni030C
EndChar
StartChar: Nacute
Encoding: 283 323 177
Width: 592
Flags: W
HStem: 0 21G<57 172 413 536> 698 20G<182 311 546 661>
DStem: 182 718 261 515 57 0 172 0 261 515 311 718 413 0 459 214 546 718 661 718 459 214 536 0
Fore
459 214 m 1
 546 718 l 1
 661 718 l 1
 536 0 l 1
 413 0 l 1
 261 515 l 1
 172 0 l 1
 57 0 l 1
 182 718 l 1
 311 718 l 1
 459 214 l 1
615 936 m 1
 469 790 l 1
 386 790 l 1
 489 936 l 1
 615 936 l 1
EndSplineSet
Ligature: 0 0 'liga' N acutecomb
EndChar
StartChar: Ncaron
Encoding: 284 327 178
Width: 592
Flags: W
HStem: 0 21G<57 172 413 536> 698 20G<182 311 546 661> 790 146<315 485>
DStem: 182 718 261 515 57 0 172 0 261 515 311 718 413 0 459 214 315 936 408 936 383 790 445 854 511 936 604 936 445 854 485 790 546 718 661 718 459 214 536 0
Fore
459 214 m 1
 546 718 l 1
 661 718 l 1
 536 0 l 1
 413 0 l 1
 261 515 l 1
 172 0 l 1
 57 0 l 1
 182 718 l 1
 311 718 l 1
 459 214 l 1
604 936 m 1
 485 790 l 1
 383 790 l 1
 315 936 l 1
 408 936 l 1
 445 854 l 1
 511 936 l 1
 604 936 l 1
EndSplineSet
Ligature: 0 0 'liga' N uni030C
EndChar
StartChar: Ntilde
Encoding: 285 209 179
Width: 592
Flags: W
HStem: 0 21G<57 172 413 536> 698 20G<182 311 546 661> 803 80<498 511> 839 80<383 405>
DStem: 182 718 261 515 57 0 172 0 261 515 311 718 413 0 459 214 546 718 661 718 459 214 536 0
Fore
459 214 m 1xc0
 546 718 l 1
 661 718 l 1
 536 0 l 1
 413 0 l 1
 261 515 l 1
 172 0 l 1
 57 0 l 1
 182 718 l 1
 311 718 l 1
 459 214 l 1xc0
555 923 m 1
 608 923 l 1
 581 843 544 803 498 803 c 0xe0
 481 803 453 812 419 828 c 0
 401 836 391 839 383 839 c 0
 364 839 348 824 337 796 c 1
 285 796 l 1
 315 881 352 919 405 919 c 0xd0
 421 919 429 916 461 900 c 0
 488 887 498 883 509 883 c 0xe0
 530 883 544 895 555 923 c 1
EndSplineSet
Ligature: 0 0 'liga' N tildecomb
EndChar
StartChar: Odieresis
Encoding: 286 214 180
Width: 638
Flags: W
HStem: -19 127<315 339> 610 127<425 449> 800 115<347 431 507 591>
VStem: 88 126<245 273> 550 125<444 474>
DStem: 348 915 451 915 328 800 431 800 508 915 611 915 488 800 591 800
Fore
449 737 m 0
 511 737 568 714 610 672 c 0
 651 631 675 557 675 474 c 0
 675 342 632 198 568 114 c 0
 504 30 411 -19 315 -19 c 0
 175 -19 88 82 88 245 c 0
 88 372 133 522 196 604 c 0
 260 688 353 737 449 737 c 0
426 610 m 0
 362 610 301 567 264 493 c 0
 233 432 214 348 214 271 c 0
 214 169 261 108 339 108 c 0
 457 108 550 257 550 447 c 0
 550 548 503 610 426 610 c 0
451 915 m 1
 431 800 l 1
 328 800 l 1
 348 915 l 1
 451 915 l 1
611 915 m 1
 591 800 l 1
 488 800 l 1
 508 915 l 1
 611 915 l 1
EndSplineSet
KernsSLIF: 89 -50 0 0 88 -32 0 0 87 -20 0 0 86 -29 0 0 84 -21 0 0 65 -35 0 0
Ligature: 0 0 'liga' O uni0308
EndChar
StartChar: Oacute
Encoding: 287 211 181
Width: 638
Flags: W
HStem: -19 127<315 339> 610 127<425 449>
VStem: 88 126<245 273> 550 125<444 474>
Fore
449 737 m 0
 511 737 568 714 610 672 c 0
 651 631 675 557 675 474 c 0
 675 342 632 198 568 114 c 0
 504 30 411 -19 315 -19 c 0
 175 -19 88 82 88 245 c 0
 88 372 133 522 196 604 c 0
 260 688 353 737 449 737 c 0
426 610 m 0
 362 610 301 567 264 493 c 0
 233 432 214 348 214 271 c 0
 214 169 261 108 339 108 c 0
 457 108 550 257 550 447 c 0
 550 548 503 610 426 610 c 0
638 936 m 1
 492 790 l 1
 409 790 l 1
 512 936 l 1
 638 936 l 1
EndSplineSet
KernsSLIF: 89 -50 0 0 87 -20 0 0 86 -29 0 0 84 -21 0 0 65 -35 0 0
Ligature: 0 0 'liga' O acutecomb
EndChar
StartChar: Ograve
Encoding: 288 210 182
Width: 638
Flags: W
HStem: -19 127<315 339> 610 127<425 449> 790 146<327 505>
VStem: 88 126<245 273> 550 125<444 474>
Fore
449 737 m 0
 511 737 568 714 610 672 c 0
 651 631 675 557 675 474 c 0
 675 342 632 198 568 114 c 0
 504 30 411 -19 315 -19 c 0
 175 -19 88 82 88 245 c 0
 88 372 133 522 196 604 c 0
 260 688 353 737 449 737 c 0
426 610 m 0
 362 610 301 567 264 493 c 0
 233 432 214 348 214 271 c 0
 214 169 261 108 339 108 c 0
 457 108 550 257 550 447 c 0
 550 548 503 610 426 610 c 0
422 790 m 1
 327 936 l 1
 453 936 l 1
 505 790 l 1
 422 790 l 1
EndSplineSet
KernsSLIF: 89 -50 0 0 86 -29 0 0 84 -21 0 0
Ligature: 0 0 'liga' O gravecomb
EndChar
StartChar: Ocircumflex
Encoding: 289 212 183
Width: 638
Flags: W
HStem: -19 127<315 339> 610 127<425 449> 790 146<432 603>
VStem: 88 126<245 273> 550 125<444 474>
DStem: 432 936 472 872 313 790 406 790 472 872 535 936 510 790 603 790
Fore
449 737 m 0
 511 737 568 714 610 672 c 0
 651 631 675 557 675 474 c 0
 675 342 632 198 568 114 c 0
 504 30 411 -19 315 -19 c 0
 175 -19 88 82 88 245 c 0
 88 372 133 522 196 604 c 0
 260 688 353 737 449 737 c 0
426 610 m 0
 362 610 301 567 264 493 c 0
 233 432 214 348 214 271 c 0
 214 169 261 108 339 108 c 0
 457 108 550 257 550 447 c 0
 550 548 503 610 426 610 c 0
535 936 m 1
 603 790 l 1
 510 790 l 1
 472 872 l 1
 406 790 l 1
 313 790 l 1
 432 936 l 1
 535 936 l 1
EndSplineSet
KernsSLIF: 89 -50 0 0 86 -29 0 0 84 -21 0 0
Ligature: 0 0 'liga' O uni0302
EndChar
StartChar: Otilde
Encoding: 290 213 184
Width: 638
Flags: W
HStem: -19 127<315 339> 610 127<425 449> 803 80<521 534> 839 80<406 428>
VStem: 88 126<245 273> 550 125<444 474>
Fore
449 737 m 0xcc
 511 737 568 714 610 672 c 0
 651 631 675 557 675 474 c 0
 675 342 632 198 568 114 c 0
 504 30 411 -19 315 -19 c 0
 175 -19 88 82 88 245 c 0
 88 372 133 522 196 604 c 0
 260 688 353 737 449 737 c 0xcc
426 610 m 0
 362 610 301 567 264 493 c 0
 233 432 214 348 214 271 c 0
 214 169 261 108 339 108 c 0
 457 108 550 257 550 447 c 0
 550 548 503 610 426 610 c 0
578 923 m 1
 631 923 l 1
 604 843 567 803 521 803 c 0xec
 504 803 476 812 442 828 c 0
 424 836 414 839 406 839 c 0
 387 839 371 824 360 796 c 1
 308 796 l 1
 338 881 375 919 428 919 c 0xdc
 444 919 452 916 484 900 c 0
 511 887 521 883 532 883 c 0xec
 553 883 567 895 578 923 c 1
EndSplineSet
KernsSLIF: 89 -50 0 0 86 -29 0 0 84 -21 0 0
Ligature: 0 0 'liga' O tildecomb
EndChar
StartChar: Ohungarumlaut
Encoding: 291 336 185
Width: 638
Flags: W
HStem: -19 127<315 339> 610 127<425 449>
VStem: 88 126<245 273> 550 125<444 474>
Fore
449 737 m 0
 511 737 568 714 610 672 c 0
 651 631 675 557 675 474 c 0
 675 342 632 198 568 114 c 0
 504 30 411 -19 315 -19 c 0
 175 -19 88 82 88 245 c 0
 88 372 133 522 196 604 c 0
 260 688 353 737 449 737 c 0
426 610 m 0
 362 610 301 567 264 493 c 0
 233 432 214 348 214 271 c 0
 214 169 261 108 339 108 c 0
 457 108 550 257 550 447 c 0
 550 548 503 610 426 610 c 0
556 936 m 1
 411 790 l 1
 328 790 l 1
 430 936 l 1
 556 936 l 1
744 936 m 1
 598 790 l 1
 516 790 l 1
 618 936 l 1
 744 936 l 1
EndSplineSet
Ligature: 0 0 'liga' O uni030B
EndChar
StartChar: Racute
Encoding: 292 340 186
Width: 592
Flags: W
HStem: 0 21G<62 182 418 555> 594 124<187 447>
VStem: 417 124<27 53> 440 126<220 254> 511 127<525 559>
DStem: 187 718 286 594 62 0 253 402 187 718 231 281 62 0 182 0
Fore
62 0 m 1xd0
 187 718 l 1
 485 718 l 2
 582 718 638 660 638 559 c 0xc8
 638 500 618 440 583 397 c 0
 562 371 547 359 514 344 c 1
 553 320 566 298 566 254 c 0xd0
 566 221 565 209 547 108 c 0
 543 85 541 65 541 51 c 0
 541 35 545 27 558 19 c 1
 555 0 l 1
 418 0 l 1
 417 27 l 1xe0
 417 55 421 92 431 145 c 0
 438 185 440 205 440 220 c 0
 440 265 418 281 358 281 c 2
 231 281 l 1
 182 0 l 1
 62 0 l 1xd0
253 402 m 1
 397 402 l 2
 441 402 470 415 488 442 c 0
 502 463 511 496 511 525 c 0
 511 570 486 594 439 594 c 2
 286 594 l 1
 253 402 l 1
615 936 m 1
 469 790 l 1
 386 790 l 1
 489 936 l 1
 615 936 l 1
EndSplineSet
Ligature: 0 0 'liga' R acutecomb
EndChar
StartChar: Rcaron
Encoding: 293 344 187
Width: 592
Flags: W
HStem: 0 21G<62 182 418 555> 594 124<187 447> 790 146<315 485>
VStem: 417 124<27 53> 440 126<220 254> 511 127<525 559>
DStem: 187 718 286 594 62 0 253 402 187 718 231 281 62 0 182 0 315 936 408 936 383 790 445 854 511 936 604 936 445 854 485 790
Fore
62 0 m 1xe8
 187 718 l 1
 485 718 l 2
 582 718 638 660 638 559 c 0xe4
 638 500 618 440 583 397 c 0
 562 371 547 359 514 344 c 1
 553 320 566 298 566 254 c 0xe8
 566 221 565 209 547 108 c 0
 543 85 541 65 541 51 c 0
 541 35 545 27 558 19 c 1
 555 0 l 1
 418 0 l 1
 417 27 l 1xf0
 417 55 421 92 431 145 c 0
 438 185 440 205 440 220 c 0
 440 265 418 281 358 281 c 2
 231 281 l 1
 182 0 l 1
 62 0 l 1xe8
253 402 m 1
 397 402 l 2
 441 402 470 415 488 442 c 0
 502 463 511 496 511 525 c 0
 511 570 486 594 439 594 c 2
 286 594 l 1
 253 402 l 1
604 936 m 1
 485 790 l 1
 383 790 l 1
 315 936 l 1
 408 936 l 1
 445 854 l 1
 511 936 l 1
 604 936 l 1
EndSplineSet
Ligature: 0 0 'liga' R uni030C
EndChar
StartChar: Sacute
Encoding: 294 346 188
Width: 547
Flags: W
HStem: -19 124<273 300> 613 124<366 392>
VStem: 66 121<162 194> 126 120<463 509> 433 124<213 262> 467 121<526 556>
Fore
71 221 m 1xe8
 189 221 l 1
 188 210 187 201 187 194 c 0
 187 137 226 105 296 105 c 0
 379 105 433 148 433 213 c 0xe8
 433 248 411 266 341 287 c 2
 281 305 l 2
 224 322 182 341 165 358 c 0
 141 381 126 421 126 463 c 0
 126 526 149 594 185 642 c 0
 232 703 305 737 392 737 c 0
 470 737 527 711 558 663 c 0
 576 633 588 592 588 556 c 0
 588 543 587 526 584 505 c 1
 467 505 l 1
 467 526 l 2
 467 582 431 613 367 613 c 0
 295 613 246 571 246 509 c 0xd4
 246 479 259 464 297 452 c 2
 433 409 l 2
 521 381 557 338 557 262 c 0
 557 188 526 109 477 60 c 0
 427 9 355 -19 273 -19 c 0
 191 -19 126 10 94 60 c 0
 77 87 66 127 66 162 c 0
 66 176 68 197 71 221 c 1xe8
592 936 m 1
 446 790 l 1
 363 790 l 1
 466 936 l 1
 592 936 l 1
EndSplineSet
Ligature: 0 0 'liga' S acutecomb
EndChar
StartChar: Scaron
Encoding: 295 352 189
Width: 547
Flags: W
HStem: -19 124<273 300> 613 124<366 392> 790 146<292 462>
VStem: 66 121<162 194> 126 120<463 509> 433 124<213 262> 467 121<526 556>
DStem: 292 936 385 936 360 790 422 854 488 936 581 936 422 854 462 790
Fore
71 221 m 1xf4
 189 221 l 1
 188 210 187 201 187 194 c 0
 187 137 226 105 296 105 c 0
 379 105 433 148 433 213 c 0xf4
 433 248 411 266 341 287 c 2
 281 305 l 2
 224 322 182 341 165 358 c 0
 141 381 126 421 126 463 c 0
 126 526 149 594 185 642 c 0
 232 703 305 737 392 737 c 0
 470 737 527 711 558 663 c 0
 576 633 588 592 588 556 c 0
 588 543 587 526 584 505 c 1
 467 505 l 1
 467 526 l 2
 467 582 431 613 367 613 c 0
 295 613 246 571 246 509 c 0xea
 246 479 259 464 297 452 c 2
 433 409 l 2
 521 381 557 338 557 262 c 0
 557 188 526 109 477 60 c 0
 427 9 355 -19 273 -19 c 0
 191 -19 126 10 94 60 c 0
 77 87 66 127 66 162 c 0
 66 176 68 197 71 221 c 1xf4
581 936 m 1
 462 790 l 1
 360 790 l 1
 292 936 l 1
 385 936 l 1
 422 854 l 1
 488 936 l 1
 581 936 l 1
EndSplineSet
Ligature: 0 0 'liga' S uni030C
EndChar
StartChar: Scedilla
Encoding: 296 350 190
Width: 547
Flags: W
HStem: -228 57<209 227> -96 201<240 296> 613 124<366 392>
VStem: 66 121<162 194> 126 120<463 509> 267 77<-126 -111> 433 124<213 262> 467 121<526 556>
DStem: 239 -17 286 -19 192 -84 259 -55
Fore
286 -19 m 1xee
 259 -55 l 1
 270 -52 276 -51 284 -51 c 0
 320 -51 344 -75 344 -111 c 0
 344 -176 290 -228 221 -228 c 0
 194 -228 175 -223 134 -203 c 1
 160 -155 l 1
 189 -166 207 -171 220 -171 c 0
 245 -171 267 -149 267 -124 c 0
 267 -108 256 -96 240 -96 c 0
 233 -96 221 -99 206 -104 c 1
 192 -84 l 1
 239 -17 l 1
 182 -10 141 7 113 36 c 0
 84 65 66 114 66 162 c 0
 66 176 68 197 71 221 c 1
 189 221 l 1
 188 210 187 201 187 194 c 0
 187 137 226 105 296 105 c 0
 379 105 433 148 433 213 c 0xf6
 433 248 411 266 341 287 c 2
 281 305 l 2
 224 322 182 341 165 358 c 0
 141 381 126 421 126 463 c 0
 126 526 149 594 185 642 c 0
 232 703 305 737 392 737 c 0
 470 737 527 711 558 663 c 0
 576 633 588 592 588 556 c 0
 588 543 587 526 584 505 c 1
 467 505 l 1
 467 526 l 2xed
 467 582 431 613 367 613 c 0
 295 613 246 571 246 509 c 0
 246 479 259 464 297 452 c 2
 433 409 l 2
 521 381 557 338 557 262 c 0
 557 166 510 74 436 26 c 0
 393 -2 344 -16 286 -19 c 1xee
EndSplineSet
Ligature: 0 0 'liga' S uni0327
EndChar
StartChar: Tcaron
Encoding: 297 356 191
Width: 501
Flags: W
HStem: 0 21G<189 312> 591 127<135 292 136 593> 790 146<269 439>
DStem: 269 936 362 936 337 790 399 854 292 591 415 591 189 0 312 0 465 936 558 936 399 854 439 790
Fore
415 591 m 1
 312 0 l 1
 189 0 l 1
 292 591 l 1
 114 591 l 1
 136 718 l 1
 615 718 l 1
 593 591 l 1
 415 591 l 1
558 936 m 1
 439 790 l 1
 337 790 l 1
 269 936 l 1
 362 936 l 1
 399 854 l 1
 465 936 l 1
 558 936 l 1
EndSplineSet
Ligature: 0 0 'liga' T uni030C
EndChar
StartChar: Udieresis
Encoding: 298 220 192
Width: 592
Flags: W
HStem: -19 127<294 321> 698 20G<185 310 534 659> 800 115<324 408 484 568>
VStem: 96 129<169 208>
DStem: 185 718 310 718 102 242 229 252 325 915 428 915 305 800 408 800 485 915 588 915 465 800 568 800 534 718 659 718 451 245 578 251
Fore
659 718 m 1
 578 251 l 1
 547 76 448 -19 294 -19 c 0
 167 -19 96 49 96 169 c 0
 96 194 98 218 102 242 c 1
 185 718 l 1
 310 718 l 1
 229 252 l 1
 227 237 225 220 225 208 c 0
 225 142 256 108 314 108 c 0
 388 108 436 155 451 245 c 1
 534 718 l 1
 659 718 l 1
428 915 m 1
 408 800 l 1
 305 800 l 1
 325 915 l 1
 428 915 l 1
588 915 m 1
 568 800 l 1
 465 800 l 1
 485 915 l 1
 588 915 l 1
EndSplineSet
KernsSLIF: 114 -5 0 0 46 -11 0 0 112 -5 0 0 110 -5 0 0 109 -5 0 0 44 -14 0 0 98 -5 0 0 65 -32 0 0
Ligature: 0 0 'liga' U uni0308
EndChar
StartChar: Uacute
Encoding: 299 218 193
Width: 592
Flags: W
HStem: -19 127<294 321> 698 20G<185 310 534 659>
VStem: 96 129<169 208>
DStem: 185 718 310 718 102 242 229 252 534 718 659 718 451 245 578 251
Fore
659 718 m 1
 578 251 l 1
 547 76 448 -19 294 -19 c 0
 167 -19 96 49 96 169 c 0
 96 194 98 218 102 242 c 1
 185 718 l 1
 310 718 l 1
 229 252 l 1
 227 237 225 220 225 208 c 0
 225 142 256 108 314 108 c 0
 388 108 436 155 451 245 c 1
 534 718 l 1
 659 718 l 1
616 936 m 1
 470 790 l 1
 387 790 l 1
 490 936 l 1
 616 936 l 1
EndSplineSet
KernsSLIF: 114 -5 0 0 46 -11 0 0 112 -5 0 0 110 -5 0 0 109 -5 0 0 44 -14 0 0 65 -32 0 0
Ligature: 0 0 'liga' U acutecomb
EndChar
StartChar: Ugrave
Encoding: 300 217 194
Width: 592
Flags: W
HStem: -19 127<294 321> 698 20G<185 310 534 659> 790 146<305 483>
VStem: 96 129<169 208>
DStem: 185 718 310 718 102 242 229 252 534 718 659 718 451 245 578 251
Fore
659 718 m 1
 578 251 l 1
 547 76 448 -19 294 -19 c 0
 167 -19 96 49 96 169 c 0
 96 194 98 218 102 242 c 1
 185 718 l 1
 310 718 l 1
 229 252 l 1
 227 237 225 220 225 208 c 0
 225 142 256 108 314 108 c 0
 388 108 436 155 451 245 c 1
 534 718 l 1
 659 718 l 1
400 790 m 1
 305 936 l 1
 431 936 l 1
 483 790 l 1
 400 790 l 1
EndSplineSet
KernsSLIF: 65 -32 0 0
Ligature: 0 0 'liga' U gravecomb
EndChar
StartChar: Ucircumflex
Encoding: 301 219 195
Width: 592
Flags: W
HStem: -19 127<294 321> 698 20G<185 310 534 659> 790 146<409 580>
VStem: 96 129<169 208>
DStem: 185 718 310 718 102 242 229 252 409 936 449 872 290 790 383 790 449 872 512 936 487 790 580 790 534 718 659 718 451 245 578 251
Fore
659 718 m 1
 578 251 l 1
 547 76 448 -19 294 -19 c 0
 167 -19 96 49 96 169 c 0
 96 194 98 218 102 242 c 1
 185 718 l 1
 310 718 l 1
 229 252 l 1
 227 237 225 220 225 208 c 0
 225 142 256 108 314 108 c 0
 388 108 436 155 451 245 c 1
 534 718 l 1
 659 718 l 1
512 936 m 1
 580 790 l 1
 487 790 l 1
 449 872 l 1
 383 790 l 1
 290 790 l 1
 409 936 l 1
 512 936 l 1
EndSplineSet
KernsSLIF: 65 -32 0 0
Ligature: 0 0 'liga' U uni0302
EndChar
StartChar: Uring
Encoding: 302 366 196
Width: 592
Flags: W
HStem: -19 127<294 321> 698 20G<185 310 534 659> 754 52<428 439> 910 52<451 464>
VStem: 96 129<169 208> 356 47<836 849> 489 47<867 879>
DStem: 185 718 310 718 102 242 229 252 534 718 659 718 451 245 578 251
Fore
659 718 m 1
 578 251 l 1
 547 76 448 -19 294 -19 c 0
 167 -19 96 49 96 169 c 0
 96 194 98 218 102 242 c 1
 185 718 l 1
 310 718 l 1
 229 252 l 1
 227 237 225 220 225 208 c 0
 225 142 256 108 314 108 c 0
 388 108 436 155 451 245 c 1
 534 718 l 1
 659 718 l 1
464 962 m 0
 504 962 536 925 536 879 c 0
 536 816 482 754 428 754 c 0
 388 754 356 791 356 837 c 0
 356 900 410 962 464 962 c 0
455 910 m 0
 428 910 403 880 403 847 c 0
 403 823 417 806 437 806 c 0
 464 806 489 836 489 869 c 0
 489 893 475 910 455 910 c 0
EndSplineSet
Ligature: 0 0 'liga' U uni030A
EndChar
StartChar: Uhungarumlaut
Encoding: 303 368 197
Width: 592
Flags: W
HStem: -19 127<294 321> 698 20G<185 310 534 659>
VStem: 96 129<169 208>
DStem: 185 718 310 718 102 242 229 252 534 718 659 718 451 245 578 251
Fore
659 718 m 1
 578 251 l 1
 547 76 448 -19 294 -19 c 0
 167 -19 96 49 96 169 c 0
 96 194 98 218 102 242 c 1
 185 718 l 1
 310 718 l 1
 229 252 l 1
 227 237 225 220 225 208 c 0
 225 142 256 108 314 108 c 0
 388 108 436 155 451 245 c 1
 534 718 l 1
 659 718 l 1
533 936 m 1
 388 790 l 1
 305 790 l 1
 407 936 l 1
 533 936 l 1
721 936 m 1
 575 790 l 1
 493 790 l 1
 595 936 l 1
 721 936 l 1
EndSplineSet
Ligature: 0 0 'liga' U uni030B
EndChar
StartChar: Yacute
Encoding: 304 221 198
Width: 547
Flags: W
HStem: 0 21G<215 339> 698 20G<137 282 521 661>
DStem: 263 271 385 269 215 0 339 0
Fore
385 269 m 1
 339 0 l 1
 215 0 l 1
 263 271 l 1
 137 718 l 1
 282 718 l 1
 350 406 l 1
 521 718 l 1
 661 718 l 1
 385 269 l 1
592 936 m 1
 446 790 l 1
 363 790 l 1
 466 936 l 1
 592 936 l 1
EndSplineSet
MinimumDistance: x4,8 
Ligature: 0 0 'liga' Y acutecomb
EndChar
StartChar: Zacute
Encoding: 305 377 199
Width: 501
Flags: W
HStem: 0 127<192 480> 591 127<152 428>
DStem: 428 591 583 600 42 127 192 127
Fore
503 127 m 1
 480 0 l 1
 20 0 l 1
 42 127 l 1
 428 591 l 1
 131 591 l 1
 153 718 l 1
 604 718 l 1
 583 600 l 1
 192 127 l 1
 503 127 l 1
569 936 m 1
 423 790 l 1
 340 790 l 1
 443 936 l 1
 569 936 l 1
EndSplineSet
Ligature: 0 0 'liga' Z acutecomb
EndChar
StartChar: Zcaron
Encoding: 306 381 200
Width: 501
Flags: W
HStem: 0 127<192 480> 591 127<152 428> 790 146<269 439>
DStem: 269 936 362 936 337 790 399 854 428 591 583 600 42 127 192 127 465 936 558 936 399 854 439 790
Fore
503 127 m 1
 480 0 l 1
 20 0 l 1
 42 127 l 1
 428 591 l 1
 131 591 l 1
 153 718 l 1
 604 718 l 1
 583 600 l 1
 192 127 l 1
 503 127 l 1
558 936 m 1
 439 790 l 1
 337 790 l 1
 269 936 l 1
 362 936 l 1
 399 854 l 1
 465 936 l 1
 558 936 l 1
EndSplineSet
Ligature: 0 0 'liga' Z uni030C
EndChar
StartChar: Zdotaccent
Encoding: 307 379 201
Width: 501
Flags: W
HStem: 0 127<192 480> 591 127<152 428>
DStem: 358 915 462 915 338 800 442 800 428 591 583 600 42 127 192 127
Fore
503 127 m 1
 480 0 l 1
 20 0 l 1
 42 127 l 1
 428 591 l 1
 131 591 l 1
 153 718 l 1
 604 718 l 1
 583 600 l 1
 192 127 l 1
 503 127 l 1
462 915 m 1
 442 800 l 1
 338 800 l 1
 358 915 l 1
 462 915 l 1
EndSplineSet
Ligature: 0 0 'liga' Z uni0307
EndChar
StartChar: Amacron
Encoding: 308 256 202
Width: 592
Flags: W
HStem: 0 21G<16 146 442 576> 148 124<267 430> 698 20G<352 494> 790 74<304 575>
DStem: 352 718 394 559 16 0 267 272 352 718 213 148 16 0 146 0
Fore
213 148 m 1
 146 0 l 1
 16 0 l 1
 352 718 l 1
 494 718 l 1
 576 0 l 1
 442 0 l 1
 430 148 l 1
 213 148 l 1
394 559 m 1
 267 272 l 1
 417 272 l 1
 394 559 l 1
588 864 m 1
 575 790 l 1
 292 790 l 1
 305 864 l 1
 588 864 l 1
EndSplineSet
Ligature: 0 0 'liga' A uni0304
EndChar
StartChar: Tcommaaccent
Encoding: 309 354 203
Width: 501
Flags: W
HStem: 0 21G<189 312> 591 127<135 292 136 593>
DStem: 191 -60 289 -60 172 -167 272 -155 292 591 415 591 189 0 312 0
Fore
415 591 m 1
 312 0 l 1
 189 0 l 1
 292 591 l 1
 114 591 l 1
 136 718 l 1
 615 718 l 1
 593 591 l 1
 415 591 l 1
191 -60 m 1
 289 -60 l 1
 272 -155 l 1
 263 -233 212 -292 149 -298 c 1
 157 -255 l 1
 195 -247 223 -213 228 -167 c 1
 172 -167 l 1
 191 -60 l 1
EndSplineSet
Ligature: 0 0 'liga' T uni0327
EndChar
StartChar: Ydieresis
Encoding: 310 376 204
Width: 547
Flags: W
HStem: 0 21G<215 339> 698 20G<137 282 521 661> 800 115<300 384 460 544>
DStem: 263 271 385 269 215 0 339 0 301 915 404 915 281 800 384 800 461 915 564 915 441 800 544 800
Fore
385 269 m 1
 339 0 l 1
 215 0 l 1
 263 271 l 1
 137 718 l 1
 282 718 l 1
 350 406 l 1
 521 718 l 1
 661 718 l 1
 385 269 l 1
404 915 m 1
 384 800 l 1
 281 800 l 1
 301 915 l 1
 404 915 l 1
564 915 m 1
 544 800 l 1
 441 800 l 1
 461 915 l 1
 564 915 l 1
EndSplineSet
MinimumDistance: x4,8 
Ligature: 0 0 'liga' Y uni0308
EndChar
StartChar: Emacron
Encoding: 311 274 205
Width: 547
Flags: W
HStem: 0 127<205 509> 313 127<259 524> 591 127<187 598> 790 74<281 552>
DStem: 187 718 285 591 62 0 259 440 187 718 237 313 62 0 205 127
Fore
620 718 m 1
 598 591 l 1
 285 591 l 1
 259 440 l 1
 546 440 l 1
 524 313 l 1
 237 313 l 1
 205 127 l 1
 531 127 l 1
 509 0 l 1
 62 0 l 1
 187 718 l 1
 620 718 l 1
565 864 m 1
 552 790 l 1
 269 790 l 1
 282 864 l 1
 565 864 l 1
EndSplineSet
Ligature: 0 0 'liga' E uni0304
EndChar
StartChar: Imacron
Encoding: 312 298 206
Width: 228
Flags: W
HStem: 0 21G<52 175> 698 20G<178 301> 790 74<122 393>
DStem: 178 718 301 718 52 0 175 0
Fore
301 718 m 1
 175 0 l 1
 52 0 l 1
 178 718 l 1
 301 718 l 1
406 864 m 1
 393 790 l 1
 110 790 l 1
 123 864 l 1
 406 864 l 1
EndSplineSet
Ligature: 0 0 'liga' I uni0304
EndChar
StartChar: Iogonek
Encoding: 313 302 207
Width: 228
Flags: W
HStem: -228 56<80 101> -20 20G<52 106> 698 20G<177 301>
VStem: -8 79<-151 -136>
DStem: 177 718 301 718 52 0 175 0
Fore
301 718 m 1
 175 0 l 1
 110 -46 71 -97 71 -136 c 0
 71 -157 84 -172 101 -172 c 0
 116 -172 140 -166 166 -155 c 1
 172 -204 l 1
 128 -222 107 -228 80 -228 c 0
 28 -228 -8 -197 -8 -151 c 0
 -8 -115 12 -71 44 -40 c 0
 62 -23 71 -17 106 0 c 1
 52 0 l 1
 177 718 l 1
 301 718 l 1
EndSplineSet
Ligature: 0 0 'liga' I uni0328
EndChar
StartChar: Kcommaaccent
Encoding: 314 310 208
Width: 592
Flags: W
HStem: 0 21G<71 194 433 592> 698 20G<196 319 544 703>
DStem: 196 718 319 718 71 0 268 426 196 718 236 243 71 0 194 0 236 -60 334 -60 217 -167 317 -155
Fore
236 243 m 1
 194 0 l 1
 71 0 l 1
 196 718 l 1
 319 718 l 1
 268 426 l 1
 544 718 l 1
 703 718 l 1
 411 424 l 1
 592 0 l 1
 433 0 l 1
 306 315 l 1
 236 243 l 1
236 -60 m 1
 334 -60 l 1
 317 -155 l 1
 308 -233 257 -292 194 -298 c 1
 202 -255 l 1
 240 -247 268 -213 273 -167 c 1
 217 -167 l 1
 236 -60 l 1
EndSplineSet
Ligature: 0 0 'liga' K uni0327
EndChar
StartChar: Lcommaaccent
Encoding: 315 315 209
Width: 501
Flags: W
HStem: 0 130<208 478> 698 20G<187 310>
DStem: 187 718 310 718 62 0 208 130 191 -60 289 -60 172 -167 272 -155
Fore
310 718 m 1
 208 130 l 1
 501 130 l 1
 478 0 l 1
 62 0 l 1
 187 718 l 1
 310 718 l 1
191 -60 m 1
 289 -60 l 1
 272 -155 l 1
 263 -233 212 -292 149 -298 c 1
 157 -255 l 1
 195 -247 223 -213 228 -167 c 1
 172 -167 l 1
 191 -60 l 1
EndSplineSet
Ligature: 0 0 'liga' L uni0327
EndChar
StartChar: Ncommaaccent
Encoding: 316 325 210
Width: 592
Flags: W
HStem: 0 21G<57 172 413 536> 698 20G<182 311 546 661>
DStem: 182 718 261 515 57 0 172 0 236 -60 334 -60 217 -167 317 -155 261 515 311 718 413 0 459 214 546 718 661 718 459 214 536 0
Fore
459 214 m 1
 546 718 l 1
 661 718 l 1
 536 0 l 1
 413 0 l 1
 261 515 l 1
 172 0 l 1
 57 0 l 1
 182 718 l 1
 311 718 l 1
 459 214 l 1
236 -60 m 1
 334 -60 l 1
 317 -155 l 1
 308 -233 257 -292 194 -298 c 1
 202 -255 l 1
 240 -247 268 -213 273 -167 c 1
 217 -167 l 1
 236 -60 l 1
EndSplineSet
Ligature: 0 0 'liga' N uni0327
EndChar
StartChar: Omacron
Encoding: 317 332 211
Width: 638
Flags: W
HStem: -19 127<315 339> 610 127<425 449> 790 74<327 598>
VStem: 88 126<245 273> 550 125<444 474>
Fore
449 737 m 0
 511 737 568 714 610 672 c 0
 651 631 675 557 675 474 c 0
 675 342 632 198 568 114 c 0
 504 30 411 -19 315 -19 c 0
 175 -19 88 82 88 245 c 0
 88 372 133 522 196 604 c 0
 260 688 353 737 449 737 c 0
426 610 m 0
 362 610 301 567 264 493 c 0
 233 432 214 348 214 271 c 0
 214 169 261 108 339 108 c 0
 457 108 550 257 550 447 c 0
 550 548 503 610 426 610 c 0
611 864 m 1
 598 790 l 1
 315 790 l 1
 328 864 l 1
 611 864 l 1
EndSplineSet
Ligature: 0 0 'liga' O uni0304
EndChar
StartChar: Rcommaaccent
Encoding: 318 342 212
Width: 592
Flags: W
HStem: 0 21G<62 182 418 555> 594 124<187 447>
VStem: 417 124<27 53> 440 126<220 254> 511 127<525 559>
DStem: 187 718 286 594 62 0 253 402 187 718 231 281 62 0 182 0 236 -60 334 -60 217 -167 317 -155
Fore
62 0 m 1xd0
 187 718 l 1
 485 718 l 2
 582 718 638 660 638 559 c 0xc8
 638 500 618 440 583 397 c 0
 562 371 547 359 514 344 c 1
 553 320 566 298 566 254 c 0xd0
 566 221 565 209 547 108 c 0
 543 85 541 65 541 51 c 0
 541 35 545 27 558 19 c 1
 555 0 l 1
 418 0 l 1
 417 27 l 1xe0
 417 55 421 92 431 145 c 0
 438 185 440 205 440 220 c 0
 440 265 418 281 358 281 c 2
 231 281 l 1
 182 0 l 1
 62 0 l 1xd0
253 402 m 1
 397 402 l 2
 441 402 470 415 488 442 c 0
 502 463 511 496 511 525 c 0
 511 570 486 594 439 594 c 2
 286 594 l 1
 253 402 l 1
236 -60 m 1
 334 -60 l 1
 317 -155 l 1
 308 -233 257 -292 194 -298 c 1
 202 -255 l 1
 240 -247 268 -213 273 -167 c 1
 217 -167 l 1
 236 -60 l 1
EndSplineSet
Ligature: 0 0 'liga' R uni0327
EndChar
StartChar: Gcommaaccent
Encoding: 319 290 213
Width: 638
Flags: W
HStem: -19 127<304 347> 613 124<434 453>
VStem: 89 127<245 279> 546 124<495 525>
DStem: 259 -60 357 -60 240 -167 340 -155
Fore
385 266 m 1
 406 387 l 1
 653 387 l 1
 585 0 l 1
 503 0 l 1
 506 90 l 1
 435 9 383 -19 304 -19 c 0
 172 -19 89 84 89 249 c 0
 89 377 131 512 200 603 c 0
 267 691 353 737 453 737 c 0
 584 737 670 653 670 525 c 0
 670 518 670 508 669 495 c 1
 546 495 l 1
 546 501 l 2
 546 563 497 613 436 613 c 0
 379 613 323 579 284 520 c 0
 244 460 216 357 216 268 c 0
 216 166 264 108 347 108 c 0
 385 108 421 123 452 151 c 0
 482 179 498 205 522 266 c 1
 385 266 l 1
259 -60 m 1
 357 -60 l 1
 340 -155 l 1
 331 -233 280 -292 217 -298 c 1
 225 -255 l 1
 263 -247 291 -213 296 -167 c 1
 240 -167 l 1
 259 -60 l 1
EndSplineSet
Ligature: 0 0 'liga' G uni0327
EndChar
StartChar: Umacron
Encoding: 320 362 214
Width: 592
Flags: W
HStem: -19 127<294 321> 698 20G<185 310 534 659> 790 74<304 575>
VStem: 96 129<169 208>
DStem: 185 718 310 718 102 242 229 252 534 718 659 718 451 245 578 251
Fore
659 718 m 1
 578 251 l 1
 547 76 448 -19 294 -19 c 0
 167 -19 96 49 96 169 c 0
 96 194 98 218 102 242 c 1
 185 718 l 1
 310 718 l 1
 229 252 l 1
 227 237 225 220 225 208 c 0
 225 142 256 108 314 108 c 0
 388 108 436 155 451 245 c 1
 534 718 l 1
 659 718 l 1
588 864 m 1
 575 790 l 1
 292 790 l 1
 305 864 l 1
 588 864 l 1
EndSplineSet
Ligature: 0 0 'liga' U uni0304
EndChar
StartChar: Uogonek
Encoding: 321 370 215
Width: 592
Flags: W
HStem: -228 56<360 381> -19 127<294 316> 698 20G<185 310 534 659>
VStem: 96 129<170 208> 272 79<-151 -136>
DStem: 185 718 310 718 102 242 229 252 534 718 659 718 451 245 578 251
Fore
534 718 m 1
 659 718 l 1
 578 251 l 1
 555 136 537 104 436 1 c 1
 379 -61 351 -105 351 -136 c 0
 351 -157 364 -172 381 -172 c 0
 396 -172 420 -166 447 -155 c 1
 453 -204 l 1
 409 -222 387 -228 360 -228 c 0
 308 -228 272 -197 272 -151 c 0
 272 -99 310 -41 364 -11 c 1
 336 -17 318 -19 294 -19 c 0
 167 -19 96 49 96 170 c 0
 96 194 98 218 102 242 c 1
 185 718 l 1
 310 718 l 1
 229 252 l 1
 227 237 225 220 225 208 c 0
 225 142 256 108 314 108 c 0
 388 108 436 155 451 245 c 1
 534 718 l 1
EndSplineSet
Ligature: 0 0 'liga' U uni0328
EndChar
StartChar: adieresis
Encoding: 322 228 216
Width: 456
Flags: W
HStem: -14 100<157 208> 434 112<297 323> 614 115<223 307 383 467>
VStem: 45 118<101 133> 307 113<29 55>
DStem: 224 729 327 729 204 614 307 614 384 729 487 729 364 614 467 614
Fore
211 360 m 1
 101 360 l 1
 118 419 131 448 156 478 c 0
 194 524 248 546 323 546 c 0
 422 546 478 502 478 425 c 0
 478 414 477 403 475 392 c 2
 425 104 l 1
 422 85 420 69 420 55 c 0
 420 37 425 27 436 21 c 1
 432 0 l 1
 308 0 l 1
 307 16 307 22 307 29 c 0
 307 37 307 44 309 63 c 1
 254 7 213 -14 157 -14 c 0
 87 -14 45 29 45 101 c 0
 45 210 109 294 205 311 c 2
 312 330 l 2
 345 336 361 354 361 387 c 0
 361 419 341 434 299 434 c 0
 251 434 227 414 211 360 c 1
328 191 m 2
 340 259 l 1
 322 246 304 239 257 230 c 0
 191 216 163 188 163 133 c 0
 163 104 180 86 208 86 c 0
 264 86 318 133 328 191 c 2
327 729 m 1
 307 614 l 1
 204 614 l 1
 224 729 l 1
 327 729 l 1
487 729 m 1
 467 614 l 1
 364 614 l 1
 384 729 l 1
 487 729 l 1
EndSplineSet
KernsSLIF: 121 -16 0 0 119 -7 0 0 118 -16 0 0
Ligature: 0 0 'liga' a uni0308
EndChar
StartChar: aacute
Encoding: 323 225 217
Width: 456
Flags: W
HStem: -14 100<157 208> 434 112<297 323>
VStem: 45 118<101 133> 307 113<29 55>
Fore
211 360 m 1
 101 360 l 1
 118 419 131 448 156 478 c 0
 194 524 248 546 323 546 c 0
 422 546 478 502 478 425 c 0
 478 414 477 403 475 392 c 2
 425 104 l 1
 422 85 420 69 420 55 c 0
 420 37 425 27 436 21 c 1
 432 0 l 1
 308 0 l 1
 307 16 307 22 307 29 c 0
 307 37 307 44 309 63 c 1
 254 7 213 -14 157 -14 c 0
 87 -14 45 29 45 101 c 0
 45 210 109 294 205 311 c 2
 312 330 l 2
 345 336 361 354 361 387 c 0
 361 419 341 434 299 434 c 0
 251 434 227 414 211 360 c 1
328 191 m 2
 340 259 l 1
 322 246 304 239 257 230 c 0
 191 216 163 188 163 133 c 0
 163 104 180 86 208 86 c 0
 264 86 318 133 328 191 c 2
514 750 m 1
 368 604 l 1
 285 604 l 1
 388 750 l 1
 514 750 l 1
EndSplineSet
KernsSLIF: 121 -17 0 0 119 -8 0 0 118 -17 0 0
Ligature: 0 0 'liga' a acutecomb
EndChar
StartChar: agrave
Encoding: 324 224 218
Width: 456
Flags: W
HStem: -14 100<157 208> 434 112<296 323> 604 146<203 381>
VStem: 45 118<101 133> 307 113<29 55>
Fore
211 360 m 1
 101 360 l 1
 118 419 131 448 156 478 c 0
 194 524 248 546 323 546 c 0
 422 546 478 502 478 425 c 0
 478 414 477 403 475 392 c 2
 425 104 l 1
 422 85 420 69 420 55 c 0
 420 37 425 27 436 21 c 1
 432 0 l 1
 308 0 l 1
 307 16 307 22 307 29 c 0
 307 37 307 44 309 63 c 1
 254 7 213 -14 157 -14 c 0
 87 -14 45 29 45 101 c 0
 45 210 109 294 205 311 c 2
 312 330 l 2
 345 336 361 354 361 387 c 0
 361 419 341 434 299 434 c 0
 251 434 227 414 211 360 c 1
328 191 m 2
 340 259 l 1
 322 246 304 239 257 230 c 0
 191 216 163 188 163 133 c 0
 163 104 180 86 208 86 c 0
 264 86 318 133 328 191 c 2
298 604 m 1
 203 750 l 1
 329 750 l 1
 381 604 l 1
 298 604 l 1
EndSplineSet
KernsSLIF: 121 -16 0 0 119 -7 0 0 118 -16 0 0
Ligature: 0 0 'liga' a gravecomb
EndChar
StartChar: acircumflex
Encoding: 325 226 219
Width: 456
Flags: W
HStem: -14 100<157 208> 434 112<297 323> 604 146<307 478>
VStem: 45 118<101 133> 307 113<29 55>
DStem: 307 750 347 686 188 604 281 604 347 686 410 750 385 604 478 604
Fore
211 360 m 1
 101 360 l 1
 118 419 131 448 156 478 c 0
 194 524 248 546 323 546 c 0
 422 546 478 502 478 425 c 0
 478 414 477 403 475 392 c 2
 425 104 l 1
 422 85 420 69 420 55 c 0
 420 37 425 27 436 21 c 1
 432 0 l 1
 308 0 l 1
 307 16 307 22 307 29 c 0
 307 37 307 44 309 63 c 1
 254 7 213 -14 157 -14 c 0
 87 -14 45 29 45 101 c 0
 45 210 109 294 205 311 c 2
 312 330 l 2
 345 336 361 354 361 387 c 0
 361 419 341 434 299 434 c 0
 251 434 227 414 211 360 c 1
328 191 m 2
 340 259 l 1
 322 246 304 239 257 230 c 0
 191 216 163 188 163 133 c 0
 163 104 180 86 208 86 c 0
 264 86 318 133 328 191 c 2
410 750 m 1
 478 604 l 1
 385 604 l 1
 347 686 l 1
 281 604 l 1
 188 604 l 1
 307 750 l 1
 410 750 l 1
EndSplineSet
Ligature: 0 0 'liga' a uni0302
EndChar
StartChar: abreve
Encoding: 326 259 220
Width: 456
Flags: W
HStem: -14 100<157 208> 434 112<297 323> 604 76<327 348>
VStem: 45 118<101 133> 219 55<722 750> 307 113<29 55>
Fore
211 360 m 1
 101 360 l 1
 118 419 131 448 156 478 c 0
 194 524 248 546 323 546 c 0
 422 546 478 502 478 425 c 0
 478 414 477 403 475 392 c 2
 425 104 l 1
 422 85 420 69 420 55 c 0
 420 37 425 27 436 21 c 1
 432 0 l 1
 308 0 l 1
 307 16 307 22 307 29 c 0
 307 37 307 44 309 63 c 1
 254 7 213 -14 157 -14 c 0
 87 -14 45 29 45 101 c 0
 45 210 109 294 205 311 c 2
 312 330 l 2
 345 336 361 354 361 387 c 0
 361 419 341 434 299 434 c 0
 251 434 227 414 211 360 c 1
328 191 m 2
 340 259 l 1
 322 246 304 239 257 230 c 0
 191 216 163 188 163 133 c 0
 163 104 180 86 208 86 c 0
 264 86 318 133 328 191 c 2
443 750 m 1
 496 750 l 1
 469 653 412 604 328 604 c 0
 258 604 219 646 219 722 c 0
 219 728 219 738 220 750 c 1
 274 750 l 1
 274 744 l 2
 274 699 295 680 346 680 c 0
 399 680 423 697 443 750 c 1
EndSplineSet
Ligature: 0 0 'liga' a uni0306
EndChar
StartChar: atilde
Encoding: 327 227 221
Width: 456
Flags: W
HStem: -14 100<157 208> 434 112<297 323> 617 80<397 410> 653 80<282 304>
VStem: 45 118<101 133> 307 113<29 55>
Fore
211 360 m 1xcc
 101 360 l 1
 118 419 131 448 156 478 c 0
 194 524 248 546 323 546 c 0
 422 546 478 502 478 425 c 0
 478 414 477 403 475 392 c 2
 425 104 l 1
 422 85 420 69 420 55 c 0
 420 37 425 27 436 21 c 1
 432 0 l 1
 308 0 l 1
 307 16 307 22 307 29 c 0
 307 37 307 44 309 63 c 1
 254 7 213 -14 157 -14 c 0
 87 -14 45 29 45 101 c 0
 45 210 109 294 205 311 c 2
 312 330 l 2
 345 336 361 354 361 387 c 0
 361 419 341 434 299 434 c 0
 251 434 227 414 211 360 c 1xcc
328 191 m 2
 340 259 l 1
 322 246 304 239 257 230 c 0
 191 216 163 188 163 133 c 0
 163 104 180 86 208 86 c 0
 264 86 318 133 328 191 c 2
454 737 m 1
 507 737 l 1
 480 657 443 617 397 617 c 0xec
 380 617 352 626 318 642 c 0
 300 650 290 653 282 653 c 0
 263 653 247 638 236 610 c 1
 184 610 l 1
 214 695 251 733 304 733 c 0xdc
 320 733 328 730 360 714 c 0
 387 701 397 697 408 697 c 0xec
 429 697 443 709 454 737 c 1
EndSplineSet
Ligature: 0 0 'liga' a tildecomb
EndChar
StartChar: aring
Encoding: 328 229 222
Width: 456
Flags: W
HStem: -14 100<157 208> 434 112<297 323> 595 52<332 343> 751 52<357 368>
VStem: 45 118<101 133> 260 47<677 690> 307 113<29 55> 393 47<705 720>
Fore
211 360 m 1xfc
 101 360 l 1
 118 419 131 448 156 478 c 0
 194 524 248 546 323 546 c 0
 422 546 478 502 478 425 c 0
 478 414 477 403 475 392 c 2
 425 104 l 1
 422 85 420 69 420 55 c 0xfc
 420 37 425 27 436 21 c 1
 432 0 l 1
 308 0 l 1
 307 16 307 22 307 29 c 0
 307 37 307 44 309 63 c 1
 254 7 213 -14 157 -14 c 0
 87 -14 45 29 45 101 c 0
 45 210 109 294 205 311 c 2
 312 330 l 2
 345 336 361 354 361 387 c 0
 361 419 341 434 299 434 c 0
 251 434 227 414 211 360 c 1xfc
328 191 m 2
 340 259 l 1
 322 246 304 239 257 230 c 0
 191 216 163 188 163 133 c 0
 163 104 180 86 208 86 c 0
 264 86 318 133 328 191 c 2
368 803 m 0
 408 803 440 766 440 720 c 0xfd
 440 657 386 595 332 595 c 0
 292 595 260 632 260 678 c 0
 260 741 314 803 368 803 c 0
359 751 m 0
 332 751 307 721 307 688 c 0
 307 664 321 647 341 647 c 0
 368 647 393 677 393 710 c 0
 393 734 379 751 359 751 c 0
EndSplineSet
KernsSLIF: 121 -16 0 0 119 -7 0 0 118 -16 0 0
Ligature: 0 0 'liga' a uni030A
EndChar
StartChar: aogonek
Encoding: 329 261 223
Width: 456
Flags: W
HStem: -228 56<337 358> -14 100<157 208> 434 112<297 323>
VStem: 45 118<101 133> 249 79<-151 -136> 307 113<29 55> 361 117<387 425>
Fore
436 21 m 1xf4
 432 0 l 1
 368 -46 328 -97 328 -136 c 0
 328 -157 341 -172 358 -172 c 0
 373 -172 396 -166 423 -155 c 1
 429 -204 l 1
 386 -222 364 -228 337 -228 c 0
 285 -228 249 -197 249 -151 c 0xf8
 249 -115 269 -71 301 -40 c 0
 319 -23 328 -17 363 0 c 1
 308 0 l 1
 307 16 307 22 307 29 c 0xf4
 307 37 307 44 309 63 c 1
 254 7 213 -14 157 -14 c 0
 87 -14 45 29 45 101 c 0
 45 210 109 294 205 311 c 2
 312 330 l 2
 345 336 361 354 361 387 c 0
 361 419 341 434 299 434 c 0
 251 434 227 414 211 360 c 1
 101 360 l 1
 118 419 131 448 156 478 c 0
 194 524 248 546 323 546 c 0
 422 546 478 502 478 425 c 0xf2
 478 414 477 403 475 392 c 2
 425 104 l 1
 422 85 420 69 420 55 c 0
 420 37 425 27 436 21 c 1xf4
328 191 m 2
 340 259 l 1
 322 246 304 239 257 230 c 0
 191 216 163 188 163 133 c 0
 163 104 180 86 208 86 c 0
 264 86 318 133 328 191 c 2
EndSplineSet
Ligature: 0 0 'liga' a uni0328
EndChar
StartChar: cacute
Encoding: 330 263 224
Width: 456
Flags: W
HStem: -14 115<227 251> 428 118<312 329>
VStem: 65 120<170 196> 373 118<342 385>
Fore
346 194 m 1
 463 194 l 1
 422 60 339 -14 227 -14 c 0
 122 -14 65 51 65 170 c 0
 65 272 99 386 150 453 c 0
 196 514 258 546 329 546 c 0
 427 546 491 483 491 385 c 0
 491 374 490 358 489 342 c 1
 373 342 l 1
 372 402 355 428 314 428 c 0
 275 428 245 406 222 361 c 0
 200 320 185 247 185 189 c 0
 185 133 209 101 251 101 c 0
 294 101 332 138 346 194 c 1
515 750 m 1
 369 604 l 1
 286 604 l 1
 389 750 l 1
 515 750 l 1
EndSplineSet
Ligature: 0 0 'liga' c acutecomb
EndChar
StartChar: ccaron
Encoding: 331 269 225
Width: 456
Flags: W
HStem: -14 115<227 251> 428 118<307 329> 604 146<215 385>
VStem: 65 120<170 196> 373 118<342 385>
DStem: 215 750 308 750 283 604 345 668 411 750 504 750 345 668 385 604
Fore
346 194 m 1
 463 194 l 1
 422 60 339 -14 227 -14 c 0
 122 -14 65 51 65 170 c 0
 65 272 99 386 150 453 c 0
 196 514 258 546 329 546 c 0
 427 546 491 483 491 385 c 0
 491 374 490 358 489 342 c 1
 373 342 l 1
 372 402 355 428 314 428 c 0
 275 428 245 406 222 361 c 0
 200 320 185 247 185 189 c 0
 185 133 209 101 251 101 c 0
 294 101 332 138 346 194 c 1
504 750 m 1
 385 604 l 1
 283 604 l 1
 215 750 l 1
 308 750 l 1
 345 668 l 1
 411 750 l 1
 504 750 l 1
EndSplineSet
Ligature: 0 0 'liga' c uni030C
EndChar
StartChar: ccedilla
Encoding: 332 231 226
Width: 456
Flags: W
HStem: -228 57<160 167> -14 115<234 251> 428 118<312 329>
VStem: 65 120<170 196> 210 78<-126 -111> 373 118<342 385>
DStem: 188 -11 234 -14 136 -84 204 -55
Fore
234 -14 m 1
 204 -55 l 1
 214 -52 221 -51 228 -51 c 0
 264 -51 288 -76 288 -111 c 0
 288 -176 233 -228 165 -228 c 0
 138 -228 119 -223 78 -203 c 1
 104 -155 l 1
 133 -166 151 -171 163 -171 c 0
 188 -171 210 -149 210 -124 c 0
 210 -108 199 -96 184 -96 c 0
 176 -96 165 -99 150 -104 c 1
 136 -84 l 1
 188 -11 l 1
 169 -7 154 -2 140 6 c 0
 92 32 65 91 65 170 c 0
 65 272 99 386 150 453 c 0
 196 514 258 546 329 546 c 0
 427 546 491 483 491 385 c 0
 491 374 490 358 489 342 c 1
 373 342 l 1
 372 402 355 428 314 428 c 0
 275 428 245 406 222 361 c 0
 200 320 185 247 185 189 c 0
 185 133 209 101 251 101 c 0
 294 101 332 138 346 194 c 1
 463 194 l 1
 427 67 341 -12 234 -14 c 1
EndSplineSet
Ligature: 0 0 'liga' c uni0327
EndChar
StartChar: dcaron
Encoding: 333 271 227
Width: 561
Flags: W
HStem: -14 115<208 259> 425 121<304 324> 698 20G<462 577 603 701>
VStem: 67 120<180 211>
DStem: 462 718 577 718 417 460 452 0 603 718 701 718 584 611 684 623
Fore
577 718 m 1
 452 0 l 1
 339 0 l 1
 352 70 l 1
 312 12 267 -14 208 -14 c 0
 119 -14 67 57 67 180 c 0
 67 383 173 546 305 546 c 0
 361 546 393 521 417 460 c 1
 462 718 l 1
 577 718 l 1
318 425 m 0
 278 425 244 400 221 355 c 0
 201 315 187 257 187 209 c 0
 187 139 212 101 259 101 c 0
 335 101 393 196 393 321 c 0
 393 390 367 425 318 425 c 0
603 718 m 1
 701 718 l 1
 684 623 l 1
 675 545 624 486 561 480 c 1
 569 523 l 1
 607 531 635 565 640 611 c 1
 584 611 l 1
 603 718 l 1
EndSplineSet
Ligature: 0 0 'liga' d uni030C
EndChar
StartChar: edieresis
Encoding: 334 235 228
Width: 456
Flags: W
HStem: -14 112<230 251> 228 91<193 473> 431 115<299 321> 614 115<224 308 384 468>
VStem: 58 113<177 195> 372 114<345 354>
DStem: 225 729 328 729 205 614 308 614 385 729 488 729 365 614 468 614
Fore
337 156 m 1
 455 156 l 1
 425 90 402 59 361 29 c 0
 322 0 278 -14 230 -14 c 0
 118 -14 58 53 58 179 c 0
 58 259 77 341 110 404 c 0
 158 497 231 546 321 546 c 0
 428 546 486 477 486 351 c 0
 486 319 483 286 477 253 c 1
 473 228 l 1
 174 228 l 1
 172 213 171 197 171 189 c 0
 171 131 200 98 251 98 c 0
 290 98 319 118 337 156 c 1
193 319 m 1
 371 319 l 1
 372 345 l 1
 372 398 344 431 300 431 c 0
 249 431 216 397 193 319 c 1
328 729 m 1
 308 614 l 1
 205 614 l 1
 225 729 l 1
 328 729 l 1
488 729 m 1
 468 614 l 1
 365 614 l 1
 385 729 l 1
 488 729 l 1
EndSplineSet
Ligature: 0 0 'liga' e uni0308
EndChar
StartChar: eacute
Encoding: 335 233 229
Width: 456
Flags: W
HStem: -14 112<230 251> 228 91<193 473> 431 115<299 321>
VStem: 58 113<177 195> 372 114<345 354>
Fore
337 156 m 1
 455 156 l 1
 425 90 402 59 361 29 c 0
 322 0 278 -14 230 -14 c 0
 118 -14 58 53 58 179 c 0
 58 259 77 341 110 404 c 0
 158 497 231 546 321 546 c 0
 428 546 486 477 486 351 c 0
 486 319 483 286 477 253 c 1
 473 228 l 1
 174 228 l 1
 172 213 171 197 171 189 c 0
 171 131 200 98 251 98 c 0
 290 98 319 118 337 156 c 1
193 319 m 1
 371 319 l 1
 372 345 l 1
 372 398 344 431 300 431 c 0
 249 431 216 397 193 319 c 1
515 750 m 1
 369 604 l 1
 286 604 l 1
 389 750 l 1
 515 750 l 1
EndSplineSet
KernsSLIF: 121 -18 0 0 119 -7 0 0 118 -17 0 0
Ligature: 0 0 'liga' e acutecomb
EndChar
StartChar: egrave
Encoding: 336 232 230
Width: 456
Flags: W
HStem: -14 112<230 251> 228 91<193 473> 431 115<299 321> 604 146<203 381>
VStem: 58 113<177 195> 372 114<345 354>
Fore
337 156 m 1
 455 156 l 1
 425 90 402 59 361 29 c 0
 322 0 278 -14 230 -14 c 0
 118 -14 58 53 58 179 c 0
 58 259 77 341 110 404 c 0
 158 497 231 546 321 546 c 0
 428 546 486 477 486 351 c 0
 486 319 483 286 477 253 c 1
 473 228 l 1
 174 228 l 1
 172 213 171 197 171 189 c 0
 171 131 200 98 251 98 c 0
 290 98 319 118 337 156 c 1
193 319 m 1
 371 319 l 1
 372 345 l 1
 372 398 344 431 300 431 c 0
 249 431 216 397 193 319 c 1
298 604 m 1
 203 750 l 1
 329 750 l 1
 381 604 l 1
 298 604 l 1
EndSplineSet
Ligature: 0 0 'liga' e gravecomb
EndChar
StartChar: ecircumflex
Encoding: 337 234 231
Width: 456
Flags: W
HStem: -14 112<230 251> 228 91<193 473> 431 115<299 321> 604 146<308 479>
VStem: 58 113<177 195> 372 114<345 354>
DStem: 308 750 348 686 189 604 282 604 348 686 411 750 386 604 479 604
Fore
337 156 m 1
 455 156 l 1
 425 90 402 59 361 29 c 0
 322 0 278 -14 230 -14 c 0
 118 -14 58 53 58 179 c 0
 58 259 77 341 110 404 c 0
 158 497 231 546 321 546 c 0
 428 546 486 477 486 351 c 0
 486 319 483 286 477 253 c 1
 473 228 l 1
 174 228 l 1
 172 213 171 197 171 189 c 0
 171 131 200 98 251 98 c 0
 290 98 319 118 337 156 c 1
193 319 m 1
 371 319 l 1
 372 345 l 1
 372 398 344 431 300 431 c 0
 249 431 216 397 193 319 c 1
411 750 m 1
 479 604 l 1
 386 604 l 1
 348 686 l 1
 282 604 l 1
 189 604 l 1
 308 750 l 1
 411 750 l 1
EndSplineSet
KernsSLIF: 121 -17 0 0 119 -6 0 0 118 -16 0 0
Ligature: 0 0 'liga' e uni0302
EndChar
StartChar: ecaron
Encoding: 338 283 232
Width: 456
Flags: W
HStem: -14 112<230 251> 228 91<193 473> 431 115<299 321> 604 146<215 385>
VStem: 58 113<177 195> 372 114<345 354>
DStem: 215 750 308 750 283 604 345 668 411 750 504 750 345 668 385 604
Fore
337 156 m 1
 455 156 l 1
 425 90 402 59 361 29 c 0
 322 0 278 -14 230 -14 c 0
 118 -14 58 53 58 179 c 0
 58 259 77 341 110 404 c 0
 158 497 231 546 321 546 c 0
 428 546 486 477 486 351 c 0
 486 319 483 286 477 253 c 1
 473 228 l 1
 174 228 l 1
 172 213 171 197 171 189 c 0
 171 131 200 98 251 98 c 0
 290 98 319 118 337 156 c 1
193 319 m 1
 371 319 l 1
 372 345 l 1
 372 398 344 431 300 431 c 0
 249 431 216 397 193 319 c 1
504 750 m 1
 385 604 l 1
 283 604 l 1
 215 750 l 1
 308 750 l 1
 345 668 l 1
 411 750 l 1
 504 750 l 1
EndSplineSet
Ligature: 0 0 'liga' e uni030C
EndChar
StartChar: edotaccent
Encoding: 339 279 233
Width: 456
Flags: W
HStem: -14 112<230 251> 228 91<193 473> 431 115<299 321> 709 20G<304 408>
VStem: 58 113<177 195> 372 114<345 354>
DStem: 304 729 408 729 284 614 388 614
Fore
337 156 m 1
 455 156 l 1
 425 90 402 59 361 29 c 0
 322 0 278 -14 230 -14 c 0
 118 -14 58 53 58 179 c 0
 58 259 77 341 110 404 c 0
 158 497 231 546 321 546 c 0
 428 546 486 477 486 351 c 0
 486 319 483 286 477 253 c 1
 473 228 l 1
 174 228 l 1
 172 213 171 197 171 189 c 0
 171 131 200 98 251 98 c 0
 290 98 319 118 337 156 c 1
193 319 m 1
 371 319 l 1
 372 345 l 1
 372 398 344 431 300 431 c 0
 249 431 216 397 193 319 c 1
408 729 m 1
 388 614 l 1
 284 614 l 1
 304 729 l 1
 408 729 l 1
EndSplineSet
Ligature: 0 0 'liga' e uni0307
EndChar
StartChar: eogonek
Encoding: 340 281 234
Width: 456
Flags: W
HStem: -228 56<252 273> -14 112<230 253> 228 91<193 473> 431 115<299 321>
VStem: 58 113<171 205> 164 79<-151 -136> 372 114<345 354>
Fore
473 228 m 1xfa
 174 228 l 1
 172 213 171 197 171 189 c 0xfa
 171 131 200 98 251 98 c 0
 290 98 319 118 337 156 c 1
 455 156 l 1
 425 91 414 76 342 5 c 0
 268 -67 243 -102 243 -136 c 0
 243 -157 256 -172 273 -172 c 0
 288 -172 312 -166 339 -155 c 1
 345 -204 l 1
 301 -222 279 -228 252 -228 c 0
 200 -228 164 -197 164 -151 c 0xf6
 164 -100 201 -42 253 -13 c 1
 242 -14 236 -14 230 -14 c 0
 118 -14 58 53 58 180 c 0
 58 259 77 341 110 404 c 0
 158 497 231 546 321 546 c 0
 428 546 486 477 486 351 c 0
 486 319 483 286 477 253 c 1
 473 228 l 1xfa
193 319 m 1
 371 319 l 1
 372 345 l 1
 372 398 344 431 300 431 c 0
 249 431 216 397 193 319 c 1
EndSplineSet
Ligature: 0 0 'liga' e uni0328
EndChar
StartChar: gbreve
Encoding: 341 287 235
Width: 501
Flags: W
HStem: -217 106<203 226> -3 118<219 262> 425 121<308 320> 604 76<350 371>
VStem: 31 126<-84 -57> 71 120<184 216> 242 55<722 750>
Fore
436 532 m 1xf6
 546 532 l 1
 458 28 l 2
 443 -59 419 -114 381 -151 c 0
 338 -194 275 -217 203 -217 c 0
 95 -217 31 -168 31 -84 c 0
 31 -78 31 -67 32 -57 c 1
 157 -57 l 1xfa
 157 -72 158 -79 161 -85 c 0
 169 -102 192 -111 224 -111 c 0
 290 -111 325 -74 340 11 c 2
 352 80 l 1
 311 18 277 -3 219 -3 c 0
 126 -3 71 66 71 184 c 0
 71 384 178 546 310 546 c 0
 371 546 404 517 421 450 c 1
 436 532 l 1xf6
315 425 m 0
 248 425 191 328 191 212 c 0xf6
 191 150 217 115 262 115 c 0
 302 115 336 139 359 183 c 0
 378 221 390 273 390 319 c 0
 390 385 361 425 315 425 c 0
466 750 m 1
 519 750 l 1
 492 653 435 604 351 604 c 0
 281 604 242 646 242 722 c 0
 242 728 242 738 243 750 c 1
 297 750 l 1
 297 744 l 2
 297 699 318 680 369 680 c 0
 422 680 446 697 466 750 c 1
EndSplineSet
Ligature: 0 0 'liga' g uni0306
EndChar
StartChar: idieresis
Encoding: 342 239 236
Width: 228
Flags: W
HStem: 0 21G<57 172> 512 20G<150 264> 614 115<109 193 269 353>
DStem: 110 729 213 729 90 614 193 614 150 532 264 532 57 0 172 0 270 729 373 729 250 614 353 614
Fore
150 532 m 1
 264 532 l 1
 172 0 l 1
 57 0 l 1
 150 532 l 1
213 729 m 1
 193 614 l 1
 90 614 l 1
 110 729 l 1
 213 729 l 1
373 729 m 1
 353 614 l 1
 250 614 l 1
 270 729 l 1
 373 729 l 1
EndSplineSet
Ligature: 0 0 'liga' i uni0308
EndChar
StartChar: iacute
Encoding: 343 237 237
Width: 228
Flags: W
HStem: 0 21G<57 171> 512 20G<150 264>
DStem: 150 532 264 532 57 0 171 0
Fore
150 532 m 1
 264 532 l 1
 171 0 l 1
 57 0 l 1
 150 532 l 1
401 750 m 1
 255 604 l 1
 172 604 l 1
 275 750 l 1
 401 750 l 1
EndSplineSet
Ligature: 0 0 'liga' i acutecomb
EndChar
StartChar: igrave
Encoding: 344 236 238
Width: 228
Flags: W
HStem: 0 21G<57 171> 512 20G<150 264> 604 146<90 268>
DStem: 150 532 264 532 57 0 171 0
Fore
150 532 m 1
 264 532 l 1
 171 0 l 1
 57 0 l 1
 150 532 l 1
185 604 m 1
 90 750 l 1
 216 750 l 1
 268 604 l 1
 185 604 l 1
EndSplineSet
Ligature: 0 0 'liga' i gravecomb
EndChar
StartChar: icircumflex
Encoding: 345 238 239
Width: 228
Flags: W
HStem: 0 21G<57 171> 512 20G<150 264> 604 146<194 365>
DStem: 150 532 264 532 57 0 171 0 194 750 234 686 75 604 168 604 234 686 297 750 272 604 365 604
Fore
150 532 m 1
 264 532 l 1
 171 0 l 1
 57 0 l 1
 150 532 l 1
297 750 m 1
 365 604 l 1
 272 604 l 1
 234 686 l 1
 168 604 l 1
 75 604 l 1
 194 750 l 1
 297 750 l 1
EndSplineSet
Ligature: 0 0 'liga' i uni0302
EndChar
StartChar: lacute
Encoding: 346 314 240
Width: 228
Flags: W
HStem: 0 21G<57 172> 698 20G<182 297>
DStem: 182 718 297 718 57 0 172 0
Fore
297 718 m 1
 172 0 l 1
 57 0 l 1
 182 718 l 1
 297 718 l 1
433 936 m 1
 287 790 l 1
 204 790 l 1
 307 936 l 1
 433 936 l 1
EndSplineSet
Ligature: 0 0 'liga' l acutecomb
EndChar
StartChar: lcaron
Encoding: 347 318 241
Width: 283
Flags: W
HStem: 0 21G<57 172> 698 20G<182 297 324 422>
DStem: 182 718 297 718 57 0 172 0 324 718 422 718 305 611 405 623
Fore
297 718 m 1
 172 0 l 1
 57 0 l 1
 182 718 l 1
 297 718 l 1
324 718 m 1
 422 718 l 1
 405 623 l 1
 396 545 345 486 282 480 c 1
 290 523 l 1
 328 531 356 565 361 611 c 1
 305 611 l 1
 324 718 l 1
EndSplineSet
Ligature: 0 0 'liga' l uni030C
EndChar
StartChar: nacute
Encoding: 348 324 242
Width: 501
Flags: W
HStem: 0 21G<53 168 333 448> 428 118<334 391>
VStem: 394 122<368 413>
DStem: 146 532 221 305 53 0 168 0 389 323 512 368 333 0 448 0
Fore
256 532 m 1
 242 451 l 1
 288 519 330 546 391 546 c 0
 469 546 516 496 516 413 c 0
 516 399 515 384 512 368 c 1
 448 0 l 1
 333 0 l 1
 389 323 l 2
 392 341 394 358 394 368 c 0
 394 406 372 428 334 428 c 0
 278 428 234 381 221 305 c 2
 168 0 l 1
 53 0 l 1
 146 532 l 1
 256 532 l 1
537 750 m 1
 391 604 l 1
 308 604 l 1
 411 750 l 1
 537 750 l 1
EndSplineSet
Ligature: 0 0 'liga' n acutecomb
EndChar
StartChar: ncaron
Encoding: 349 328 243
Width: 501
Flags: W
HStem: 0 21G<53 168 333 448> 428 118<334 391> 604 146<237 407>
VStem: 394 122<368 413>
DStem: 146 532 221 305 53 0 168 0 237 750 330 750 305 604 367 668 389 323 512 368 333 0 448 0 433 750 526 750 367 668 407 604
Fore
256 532 m 1
 242 451 l 1
 288 519 330 546 391 546 c 0
 469 546 516 496 516 413 c 0
 516 399 515 384 512 368 c 1
 448 0 l 1
 333 0 l 1
 389 323 l 2
 392 341 394 358 394 368 c 0
 394 406 372 428 334 428 c 0
 278 428 234 381 221 305 c 2
 168 0 l 1
 53 0 l 1
 146 532 l 1
 256 532 l 1
526 750 m 1
 407 604 l 1
 305 604 l 1
 237 750 l 1
 330 750 l 1
 367 668 l 1
 433 750 l 1
 526 750 l 1
EndSplineSet
Ligature: 0 0 'liga' n uni030C
EndChar
StartChar: ntilde
Encoding: 350 241 244
Width: 501
Flags: W
HStem: 0 21G<53 168 333 448> 428 118<334 391> 617 80<419 432> 653 80<304 326>
VStem: 394 122<368 413>
DStem: 146 532 221 305 53 0 168 0 389 323 512 368 333 0 448 0
Fore
256 532 m 1xc8
 242 451 l 1
 288 519 330 546 391 546 c 0
 469 546 516 496 516 413 c 0
 516 399 515 384 512 368 c 1
 448 0 l 1
 333 0 l 1
 389 323 l 2
 392 341 394 358 394 368 c 0
 394 406 372 428 334 428 c 0
 278 428 234 381 221 305 c 2
 168 0 l 1
 53 0 l 1
 146 532 l 1
 256 532 l 1xc8
476 737 m 1
 529 737 l 1
 502 657 465 617 419 617 c 0xe8
 402 617 374 626 340 642 c 0
 322 650 312 653 304 653 c 0
 285 653 269 638 258 610 c 1
 206 610 l 1
 236 695 273 733 326 733 c 0xd8
 342 733 350 730 382 714 c 0
 409 701 419 697 430 697 c 0xe8
 451 697 465 709 476 737 c 1
EndSplineSet
Ligature: 0 0 'liga' n tildecomb
EndChar
StartChar: odieresis
Encoding: 351 246 245
Width: 501
Flags: W
HStem: -14 118<248 269> 428 118<324 346> 614 115<245 329 405 489>
VStem: 67 119<188 211> 407 120<321 344>
DStem: 246 729 349 729 226 614 329 614 406 729 509 729 386 614 489 614
Fore
346 546 m 0
 458 546 527 468 527 342 c 0
 527 252 495 152 448 90 c 0
 397 23 325 -14 248 -14 c 0
 136 -14 67 64 67 190 c 0
 67 391 189 546 346 546 c 0
324 428 m 0
 280 428 243 403 220 355 c 0
 200 316 186 256 186 209 c 0
 186 140 214 104 269 104 c 0
 313 104 350 129 374 177 c 0
 394 216 407 276 407 324 c 0
 407 392 379 428 324 428 c 0
349 729 m 1
 329 614 l 1
 226 614 l 1
 246 729 l 1
 349 729 l 1
509 729 m 1
 489 614 l 1
 386 614 l 1
 406 729 l 1
 509 729 l 1
EndSplineSet
KernsSLIF: 121 -21 0 0 120 -22 0 0 119 -9 0 0 118 -19 0 0 116 -7 0 0
Ligature: 0 0 'liga' o uni0308
EndChar
StartChar: oacute
Encoding: 352 243 246
Width: 501
Flags: W
HStem: -14 118<248 269> 428 118<324 346>
VStem: 67 119<188 211> 407 120<321 344>
Fore
346 546 m 0
 458 546 527 468 527 342 c 0
 527 252 495 152 448 90 c 0
 397 23 325 -14 248 -14 c 0
 136 -14 67 64 67 190 c 0
 67 391 189 546 346 546 c 0
324 428 m 0
 280 428 243 403 220 355 c 0
 200 316 186 256 186 209 c 0
 186 140 214 104 269 104 c 0
 313 104 350 129 374 177 c 0
 394 216 407 276 407 324 c 0
 407 392 379 428 324 428 c 0
537 750 m 1
 391 604 l 1
 308 604 l 1
 411 750 l 1
 537 750 l 1
EndSplineSet
KernsSLIF: 121 -21 0 0 119 -9 0 0 118 -19 0 0
Ligature: 0 0 'liga' o acutecomb
EndChar
StartChar: ograve
Encoding: 353 242 247
Width: 501
Flags: W
HStem: -14 118<248 269> 428 118<324 346> 604 146<225 403>
VStem: 67 119<188 211> 407 120<321 344>
Fore
346 546 m 0
 458 546 527 468 527 342 c 0
 527 252 495 152 448 90 c 0
 397 23 325 -14 248 -14 c 0
 136 -14 67 64 67 190 c 0
 67 391 189 546 346 546 c 0
324 428 m 0
 280 428 243 403 220 355 c 0
 200 316 186 256 186 209 c 0
 186 140 214 104 269 104 c 0
 313 104 350 129 374 177 c 0
 394 216 407 276 407 324 c 0
 407 392 379 428 324 428 c 0
320 604 m 1
 225 750 l 1
 351 750 l 1
 403 604 l 1
 320 604 l 1
EndSplineSet
KernsSLIF: 121 -21 0 0 119 -9 0 0 118 -19 0 0
Ligature: 0 0 'liga' o gravecomb
EndChar
StartChar: ocircumflex
Encoding: 354 244 248
Width: 501
Flags: W
HStem: -14 118<248 269> 428 118<324 346> 604 146<329 500>
VStem: 67 119<188 211> 407 120<321 344>
DStem: 329 750 369 686 210 604 303 604 369 686 432 750 407 604 500 604
Fore
346 546 m 0
 458 546 527 468 527 342 c 0
 527 252 495 152 448 90 c 0
 397 23 325 -14 248 -14 c 0
 136 -14 67 64 67 190 c 0
 67 391 189 546 346 546 c 0
324 428 m 0
 280 428 243 403 220 355 c 0
 200 316 186 256 186 209 c 0
 186 140 214 104 269 104 c 0
 313 104 350 129 374 177 c 0
 394 216 407 276 407 324 c 0
 407 392 379 428 324 428 c 0
432 750 m 1
 500 604 l 1
 407 604 l 1
 369 686 l 1
 303 604 l 1
 210 604 l 1
 329 750 l 1
 432 750 l 1
EndSplineSet
KernsSLIF: 116 -7 0 0
Ligature: 0 0 'liga' o uni0302
EndChar
StartChar: otilde
Encoding: 355 245 249
Width: 501
Flags: W
HStem: -14 118<248 269> 428 118<324 346> 617 80<419 432> 653 80<304 326>
VStem: 67 119<188 211> 407 120<321 344>
Fore
346 546 m 0xcc
 458 546 527 468 527 342 c 0
 527 252 495 152 448 90 c 0
 397 23 325 -14 248 -14 c 0
 136 -14 67 64 67 190 c 0
 67 391 189 546 346 546 c 0xcc
324 428 m 0
 280 428 243 403 220 355 c 0
 200 316 186 256 186 209 c 0
 186 140 214 104 269 104 c 0
 313 104 350 129 374 177 c 0
 394 216 407 276 407 324 c 0
 407 392 379 428 324 428 c 0
476 737 m 1
 529 737 l 1
 502 657 465 617 419 617 c 0xec
 402 617 374 626 340 642 c 0
 322 650 312 653 304 653 c 0
 285 653 269 638 258 610 c 1
 206 610 l 1
 236 695 273 733 326 733 c 0xdc
 342 733 350 730 382 714 c 0
 409 701 419 697 430 697 c 0xec
 451 697 465 709 476 737 c 1
EndSplineSet
Ligature: 0 0 'liga' o tildecomb
EndChar
StartChar: ohungarumlaut
Encoding: 356 337 250
Width: 501
Flags: W
HStem: -14 118<248 269> 428 118<324 346>
VStem: 67 119<188 211> 407 120<321 344>
Fore
346 546 m 0
 458 546 527 468 527 342 c 0
 527 252 495 152 448 90 c 0
 397 23 325 -14 248 -14 c 0
 136 -14 67 64 67 190 c 0
 67 391 189 546 346 546 c 0
324 428 m 0
 280 428 243 403 220 355 c 0
 200 316 186 256 186 209 c 0
 186 140 214 104 269 104 c 0
 313 104 350 129 374 177 c 0
 394 216 407 276 407 324 c 0
 407 392 379 428 324 428 c 0
455 750 m 1
 310 604 l 1
 227 604 l 1
 329 750 l 1
 455 750 l 1
643 750 m 1
 497 604 l 1
 415 604 l 1
 517 750 l 1
 643 750 l 1
EndSplineSet
Ligature: 0 0 'liga' o uni030B
EndChar
StartChar: racute
Encoding: 357 341 251
Width: 319
Flags: W
HStem: 0 21G<52 167> 404 142<347 379>
DStem: 145 532 215 277 52 0 167 0
Fore
52 0 m 1
 145 532 l 1
 255 532 l 1
 238 437 l 1
 291 521 323 546 379 546 c 0
 383 546 389 545 401 544 c 1
 376 402 l 1
 365 404 360 404 347 404 c 0
 273 404 230 363 215 277 c 2
 167 0 l 1
 52 0 l 1
446 750 m 1
 300 604 l 1
 217 604 l 1
 320 750 l 1
 446 750 l 1
EndSplineSet
Ligature: 0 0 'liga' r acutecomb
EndChar
StartChar: sacute
Encoding: 358 347 252
Width: 456
Flags: W
HStem: -14 106<230 255> 440 106<296 317>
VStem: 52 119<129 154> 101 119<335 382> 338 121<154 200> 365 114<370 404>
Fore
478 370 m 1xd4
 365 370 l 1
 365 377 l 1
 365 388 l 1
 363 423 342 440 298 440 c 0
 251 440 220 417 220 382 c 0xd4
 220 360 249 343 305 331 c 0
 409 311 459 268 459 200 c 0
 459 146 434 86 397 48 c 0
 357 8 297 -14 230 -14 c 0
 119 -14 52 40 52 129 c 0
 52 140 53 155 54 170 c 1
 172 170 l 1
 171 162 171 155 171 150 c 0
 171 113 200 92 251 92 c 0
 302 92 338 118 338 154 c 0xe8
 338 177 308 195 252 206 c 0
 151 225 101 268 101 335 c 0
 101 368 111 405 127 437 c 0
 164 509 229 546 317 546 c 0
 425 546 479 499 479 404 c 0
 479 398 479 384 478 370 c 1xd4
515 750 m 1
 369 604 l 1
 286 604 l 1
 389 750 l 1
 515 750 l 1
EndSplineSet
Ligature: 0 0 'liga' s acutecomb
EndChar
StartChar: scaron
Encoding: 359 353 253
Width: 456
Flags: W
HStem: -14 106<230 255> 440 106<296 317> 604 146<214 384>
VStem: 52 119<129 154> 101 119<335 382> 338 121<154 200> 365 114<370 404>
DStem: 214 750 307 750 282 604 344 668 410 750 503 750 344 668 384 604
Fore
478 370 m 1xea
 365 370 l 1
 365 377 l 1
 365 388 l 1
 363 423 342 440 298 440 c 0
 251 440 220 417 220 382 c 0xea
 220 360 249 343 305 331 c 0
 409 311 459 268 459 200 c 0
 459 146 434 86 397 48 c 0
 357 8 297 -14 230 -14 c 0
 119 -14 52 40 52 129 c 0
 52 140 53 155 54 170 c 1
 172 170 l 1
 171 162 171 155 171 150 c 0
 171 113 200 92 251 92 c 0
 302 92 338 118 338 154 c 0xf4
 338 177 308 195 252 206 c 0
 151 225 101 268 101 335 c 0
 101 368 111 405 127 437 c 0
 164 509 229 546 317 546 c 0
 425 546 479 499 479 404 c 0
 479 398 479 384 478 370 c 1xea
503 750 m 1
 384 604 l 1
 282 604 l 1
 214 750 l 1
 307 750 l 1
 344 668 l 1
 410 750 l 1
 503 750 l 1
EndSplineSet
Ligature: 0 0 'liga' s uni030C
EndChar
StartChar: scommaaccent
Encoding: 360 537 254
Width: 456
Flags: W
HStem: -14 106<230 255> 440 106<296 317>
VStem: 52 119<129 154> 101 119<335 382> 338 121<154 200> 365 114<370 404>
DStem: 168 -60 266 -60 149 -167 249 -155
Fore
478 370 m 1xd4
 365 370 l 1
 365 377 l 1
 365 388 l 1
 363 423 342 440 298 440 c 0
 251 440 220 417 220 382 c 0xd4
 220 360 249 343 305 331 c 0
 409 311 459 268 459 200 c 0
 459 146 434 86 397 48 c 0
 357 8 297 -14 230 -14 c 0
 119 -14 52 40 52 129 c 0
 52 140 53 155 54 170 c 1
 172 170 l 1
 171 162 171 155 171 150 c 0
 171 113 200 92 251 92 c 0
 302 92 338 118 338 154 c 0xe8
 338 177 308 195 252 206 c 0
 151 225 101 268 101 335 c 0
 101 368 111 405 127 437 c 0
 164 509 229 546 317 546 c 0
 425 546 479 499 479 404 c 0
 479 398 479 384 478 370 c 1xd4
168 -60 m 1
 266 -60 l 1
 249 -155 l 1
 240 -233 189 -292 126 -298 c 1
 134 -255 l 1
 172 -247 200 -213 205 -167 c 1
 149 -167 l 1
 168 -60 l 1
EndSplineSet
Ligature: 0 0 'liga' s uni0326
EndChar
StartChar: tcaron
Encoding: 361 357 255
Width: 312
Flags: W
HStem: -6 106<198 246> 512 20G<100 160> 532 21G<275 343> 698 20G<354 452>
DStem: 142 432 257 432 86 109 207 143 185 676 300 676 160 532 275 532 354 718 452 718 335 611 435 623
Fore
275 532 m 1
 343 532 l 1
 374 553 384 572 390 611 c 1
 335 611 l 1
 354 718 l 1
 452 718 l 1
 435 623 l 1
 425 554 393 509 338 485 c 1
 329 432 l 1
 257 432 l 1
 207 143 l 1
 205 134 204 125 204 120 c 0
 204 106 216 100 246 100 c 0
 252 100 259 101 271 102 c 1
 252 -4 l 1
 212 -6 211 -6 198 -6 c 2
 183 -6 l 2
 113 -6 82 17 82 68 c 0
 82 81 83 95 86 109 c 1
 142 432 l 1
 83 432 l 1
 100 532 l 1
 160 532 l 1
 185 676 l 1
 300 676 l 1
 275 532 l 1
EndSplineSet
Ligature: 0 0 'liga' t uni030C
EndChar
StartChar: udieresis
Encoding: 362 252 256
Width: 501
Flags: W
HStem: -14 118<199 260> 512 20G<147 262 425 540> 614 115<245 329 405 489>
VStem: 80 121<120 168>
DStem: 147 532 262 532 85 182 204 202 246 729 349 729 226 614 329 614 406 729 509 729 386 614 489 614 425 532 540 532 371 225 447 0
Fore
540 532 m 1
 447 0 l 1
 337 0 l 1
 351 78 l 1
 306 13 262 -14 199 -14 c 0
 123 -14 80 34 80 120 c 0
 80 140 82 161 85 182 c 1
 147 532 l 1
 262 532 l 1
 204 202 l 2
 202 191 201 180 201 168 c 0
 201 126 221 104 260 104 c 0
 316 104 358 150 371 225 c 2
 425 532 l 1
 540 532 l 1
349 729 m 1
 329 614 l 1
 226 614 l 1
 246 729 l 1
 349 729 l 1
509 729 m 1
 489 614 l 1
 386 614 l 1
 406 729 l 1
 509 729 l 1
EndSplineSet
Ligature: 0 0 'liga' u uni0308
EndChar
StartChar: uacute
Encoding: 363 250 257
Width: 501
Flags: W
HStem: -14 118<199 260> 512 20G<147 262 425 540>
VStem: 80 121<120 168>
DStem: 147 532 262 532 85 182 204 202 425 532 540 532 371 225 447 0
Fore
540 532 m 1
 447 0 l 1
 337 0 l 1
 351 78 l 1
 306 13 262 -14 199 -14 c 0
 123 -14 80 34 80 120 c 0
 80 140 82 161 85 182 c 1
 147 532 l 1
 262 532 l 1
 204 202 l 2
 202 191 201 180 201 168 c 0
 201 126 221 104 260 104 c 0
 316 104 358 150 371 225 c 2
 425 532 l 1
 540 532 l 1
537 750 m 1
 391 604 l 1
 308 604 l 1
 411 750 l 1
 537 750 l 1
EndSplineSet
Ligature: 0 0 'liga' u acutecomb
EndChar
StartChar: ugrave
Encoding: 364 249 258
Width: 501
Flags: W
HStem: -14 118<199 260> 512 20G<147 262 425 540> 604 146<225 403>
VStem: 80 121<120 168>
DStem: 147 532 262 532 85 182 204 202 425 532 540 532 371 225 447 0
Fore
540 532 m 1
 447 0 l 1
 337 0 l 1
 351 78 l 1
 306 13 262 -14 199 -14 c 0
 123 -14 80 34 80 120 c 0
 80 140 82 161 85 182 c 1
 147 532 l 1
 262 532 l 1
 204 202 l 2
 202 191 201 180 201 168 c 0
 201 126 221 104 260 104 c 0
 316 104 358 150 371 225 c 2
 425 532 l 1
 540 532 l 1
320 604 m 1
 225 750 l 1
 351 750 l 1
 403 604 l 1
 320 604 l 1
EndSplineSet
Ligature: 0 0 'liga' u gravecomb
EndChar
StartChar: ucircumflex
Encoding: 365 251 259
Width: 501
Flags: W
HStem: -14 118<199 260> 512 20G<147 262 425 540> 604 146<330 501>
VStem: 80 121<120 168>
DStem: 147 532 262 532 85 182 204 202 330 750 370 686 211 604 304 604 370 686 433 750 408 604 501 604 425 532 540 532 371 225 447 0
Fore
540 532 m 1
 447 0 l 1
 337 0 l 1
 351 78 l 1
 306 13 262 -14 199 -14 c 0
 123 -14 80 34 80 120 c 0
 80 140 82 161 85 182 c 1
 147 532 l 1
 262 532 l 1
 204 202 l 2
 202 191 201 180 201 168 c 0
 201 126 221 104 260 104 c 0
 316 104 358 150 371 225 c 2
 425 532 l 1
 540 532 l 1
433 750 m 1
 501 604 l 1
 408 604 l 1
 370 686 l 1
 304 604 l 1
 211 604 l 1
 330 750 l 1
 433 750 l 1
EndSplineSet
Ligature: 0 0 'liga' u uni0302
EndChar
StartChar: uring
Encoding: 366 367 260
Width: 501
Flags: W
HStem: -14 118<199 260> 512 20G<147 262 425 540> 568 52<350 361> 724 52<375 386>
VStem: 80 121<120 168> 278 47<650 663> 411 47<681 693>
DStem: 147 532 262 532 85 182 204 202 425 532 540 532 371 225 447 0
Fore
540 532 m 1
 447 0 l 1
 337 0 l 1
 351 78 l 1
 306 13 262 -14 199 -14 c 0
 123 -14 80 34 80 120 c 0
 80 140 82 161 85 182 c 1
 147 532 l 1
 262 532 l 1
 204 202 l 2
 202 191 201 180 201 168 c 0
 201 126 221 104 260 104 c 0
 316 104 358 150 371 225 c 2
 425 532 l 1
 540 532 l 1
386 776 m 0
 426 776 458 739 458 693 c 0
 458 630 404 568 350 568 c 0
 310 568 278 605 278 651 c 0
 278 714 332 776 386 776 c 0
377 724 m 0
 350 724 325 694 325 661 c 0
 325 637 339 620 359 620 c 0
 386 620 411 650 411 683 c 0
 411 707 397 724 377 724 c 0
EndSplineSet
Ligature: 0 0 'liga' u uni030A
EndChar
StartChar: uhungarumlaut
Encoding: 367 369 261
Width: 501
Flags: W
HStem: -14 118<199 260> 512 20G<147 262 425 540>
VStem: 80 121<120 168>
DStem: 147 532 262 532 85 182 204 202 425 532 540 532 371 225 447 0
Fore
540 532 m 1
 447 0 l 1
 337 0 l 1
 351 78 l 1
 306 13 262 -14 199 -14 c 0
 123 -14 80 34 80 120 c 0
 80 140 82 161 85 182 c 1
 147 532 l 1
 262 532 l 1
 204 202 l 2
 202 191 201 180 201 168 c 0
 201 126 221 104 260 104 c 0
 316 104 358 150 371 225 c 2
 425 532 l 1
 540 532 l 1
455 750 m 1
 310 604 l 1
 227 604 l 1
 329 750 l 1
 455 750 l 1
643 750 m 1
 497 604 l 1
 415 604 l 1
 517 750 l 1
 643 750 l 1
EndSplineSet
Ligature: 0 0 'liga' u uni030B
EndChar
StartChar: yacute
Encoding: 368 253 262
Width: 456
Flags: W
HStem: -214 112<65 90> 512 20G<101 229 413 535>
Fore
535 532 m 1
 293 9 l 2
 198 -197 183 -214 88 -214 c 0
 77 -214 61 -213 34 -212 c 1
 54 -100 l 1
 61 -101 69 -102 78 -102 c 0
 126 -102 143 -87 165 -22 c 1
 101 532 l 1
 229 532 l 1
 254 136 l 1
 413 532 l 1
 535 532 l 1
515 750 m 1
 369 604 l 1
 286 604 l 1
 389 750 l 1
 515 750 l 1
EndSplineSet
Ligature: 0 0 'liga' y acutecomb
EndChar
StartChar: zacute
Encoding: 369 378 263
Width: 410
Flags: W
HStem: 0 115<185 393> 420 112<123 313>
DStem: 313 420 458 417 35 109 185 115
Fore
458 417 m 1
 185 115 l 1
 414 115 l 1
 393 0 l 1
 16 0 l 1
 35 109 l 1
 313 420 l 1
 105 420 l 1
 124 532 l 1
 478 532 l 1
 458 417 l 1
492 750 m 1
 346 604 l 1
 263 604 l 1
 366 750 l 1
 492 750 l 1
EndSplineSet
Ligature: 0 0 'liga' z acutecomb
EndChar
StartChar: zcaron
Encoding: 370 382 264
Width: 410
Flags: W
HStem: 0 115<185 393> 420 112<123 313> 604 146<191 361>
DStem: 191 750 284 750 259 604 321 668 313 420 458 417 35 109 185 115 387 750 480 750 321 668 361 604
Fore
458 417 m 1
 185 115 l 1
 414 115 l 1
 393 0 l 1
 16 0 l 1
 35 109 l 1
 313 420 l 1
 105 420 l 1
 124 532 l 1
 478 532 l 1
 458 417 l 1
480 750 m 1
 361 604 l 1
 259 604 l 1
 191 750 l 1
 284 750 l 1
 321 668 l 1
 387 750 l 1
 480 750 l 1
EndSplineSet
Ligature: 0 0 'liga' z uni030C
EndChar
StartChar: zdotaccent
Encoding: 371 380 265
Width: 410
Flags: W
HStem: 0 115<185 393> 420 112<123 313> 709 20G<281 385>
DStem: 281 729 385 729 261 614 365 614 313 420 458 417 35 109 185 115
Fore
458 417 m 1
 185 115 l 1
 414 115 l 1
 393 0 l 1
 16 0 l 1
 35 109 l 1
 313 420 l 1
 105 420 l 1
 124 532 l 1
 478 532 l 1
 458 417 l 1
385 729 m 1
 365 614 l 1
 261 614 l 1
 281 729 l 1
 385 729 l 1
EndSplineSet
Ligature: 0 0 'liga' z uni0307
EndChar
StartChar: ydieresis
Encoding: 372 255 266
Width: 456
Flags: W
HStem: -214 112<65 90> 512 20G<101 229 413 535> 614 115<223 307 383 467>
DStem: 224 729 327 729 204 614 307 614 384 729 487 729 364 614 467 614
Fore
535 532 m 1
 293 9 l 2
 198 -197 183 -214 88 -214 c 0
 77 -214 61 -213 34 -212 c 1
 54 -100 l 1
 61 -101 69 -102 78 -102 c 0
 126 -102 143 -87 165 -22 c 1
 101 532 l 1
 229 532 l 1
 254 136 l 1
 413 532 l 1
 535 532 l 1
327 729 m 1
 307 614 l 1
 204 614 l 1
 224 729 l 1
 327 729 l 1
487 729 m 1
 467 614 l 1
 364 614 l 1
 384 729 l 1
 487 729 l 1
EndSplineSet
Ligature: 0 0 'liga' y uni0308
EndChar
StartChar: tcommaaccent
Encoding: 373 355 267
Width: 273
Flags: W
HStem: -6 106<198 246> 512 20G<101 160> 532 21G<275 346>
DStem: 77 -60 175 -60 58 -167 158 -155 142 432 257 432 86 109 207 143 185 676 300 676 160 532 275 532
Fore
300 676 m 1
 275 532 l 1
 346 532 l 1
 329 432 l 1
 257 432 l 1
 207 143 l 1
 205 134 204 124 204 120 c 0
 204 106 216 100 246 100 c 0
 252 100 259 101 271 102 c 1
 253 -4 l 1
 212 -6 211 -6 198 -6 c 2
 183 -6 l 2
 113 -6 82 17 82 68 c 0
 82 80 83 95 86 109 c 1
 142 432 l 1
 83 432 l 1
 101 532 l 1
 160 532 l 1
 185 676 l 1
 300 676 l 1
77 -60 m 1
 175 -60 l 1
 158 -155 l 1
 149 -233 98 -292 35 -298 c 1
 43 -255 l 1
 81 -247 109 -213 114 -167 c 1
 58 -167 l 1
 77 -60 l 1
EndSplineSet
Ligature: 0 0 'liga' t uni0327
EndChar
StartChar: amacron
Encoding: 374 257 268
Width: 456
Flags: W
HStem: -14 100<157 208> 434 112<297 323> 604 74<204 475>
VStem: 45 118<101 133> 307 113<29 55>
Fore
211 360 m 1
 101 360 l 1
 118 419 131 448 156 478 c 0
 194 524 248 546 323 546 c 0
 422 546 478 502 478 425 c 0
 478 414 477 403 475 392 c 2
 425 104 l 1
 422 85 420 69 420 55 c 0
 420 37 425 27 436 21 c 1
 432 0 l 1
 308 0 l 1
 307 16 307 22 307 29 c 0
 307 37 307 44 309 63 c 1
 254 7 213 -14 157 -14 c 0
 87 -14 45 29 45 101 c 0
 45 210 109 294 205 311 c 2
 312 330 l 2
 345 336 361 354 361 387 c 0
 361 419 341 434 299 434 c 0
 251 434 227 414 211 360 c 1
328 191 m 2
 340 259 l 1
 322 246 304 239 257 230 c 0
 191 216 163 188 163 133 c 0
 163 104 180 86 208 86 c 0
 264 86 318 133 328 191 c 2
488 678 m 1
 475 604 l 1
 192 604 l 1
 205 678 l 1
 488 678 l 1
EndSplineSet
Ligature: 0 0 'liga' a uni0304
EndChar
StartChar: emacron
Encoding: 375 275 269
Width: 456
Flags: W
HStem: -14 112<230 251> 228 91<193 473> 431 115<299 321> 604 74<204 475>
VStem: 58 113<177 195> 372 114<345 354>
Fore
337 156 m 1
 455 156 l 1
 425 90 402 59 361 29 c 0
 322 0 278 -14 230 -14 c 0
 118 -14 58 53 58 179 c 0
 58 259 77 341 110 404 c 0
 158 497 231 546 321 546 c 0
 428 546 486 477 486 351 c 0
 486 319 483 286 477 253 c 1
 473 228 l 1
 174 228 l 1
 172 213 171 197 171 189 c 0
 171 131 200 98 251 98 c 0
 290 98 319 118 337 156 c 1
193 319 m 1
 371 319 l 1
 372 345 l 1
 372 398 344 431 300 431 c 0
 249 431 216 397 193 319 c 1
488 678 m 1
 475 604 l 1
 192 604 l 1
 205 678 l 1
 488 678 l 1
EndSplineSet
Ligature: 0 0 'liga' e uni0304
EndChar
StartChar: imacron
Encoding: 376 299 270
Width: 228
Flags: W
HStem: 0 21G<57 171> 512 20G<150 264> 604 74<90 361>
DStem: 150 532 264 532 57 0 171 0
Fore
150 532 m 1
 264 532 l 1
 171 0 l 1
 57 0 l 1
 150 532 l 1
374 678 m 1
 361 604 l 1
 78 604 l 1
 91 678 l 1
 374 678 l 1
EndSplineSet
Ligature: 0 0 'liga' i uni0304
EndChar
StartChar: kcommaaccent
Encoding: 377 311 271
Width: 456
Flags: W
HStem: 0 21G<57 172 323 461> 512 20G<408 549> 698 20G<182 297>
DStem: 168 -60 266 -60 149 -167 249 -155 182 718 297 718 57 0 229 330 182 718 201 168 57 0 172 0 408 532 549 532 229 330 359 326
Fore
201 168 m 1
 172 0 l 1
 57 0 l 1
 182 718 l 1
 297 718 l 1
 229 330 l 1
 408 532 l 1
 549 532 l 1
 359 326 l 1
 461 0 l 1
 323 0 l 1
 259 228 l 1
 201 168 l 1
168 -60 m 1
 266 -60 l 1
 249 -155 l 1
 240 -233 189 -292 126 -298 c 1
 134 -255 l 1
 172 -247 200 -213 205 -167 c 1
 149 -167 l 1
 168 -60 l 1
EndSplineSet
Ligature: 0 0 'liga' k uni0327
EndChar
StartChar: lcommaaccent
Encoding: 378 316 272
Width: 228
Flags: W
HStem: 0 21G<57 172> 698 20G<182 297>
DStem: 54 -60 152 -60 35 -167 135 -155 182 718 297 718 57 0 172 0
Fore
297 718 m 1
 172 0 l 1
 57 0 l 1
 182 718 l 1
 297 718 l 1
54 -60 m 1
 152 -60 l 1
 135 -155 l 1
 126 -233 75 -292 12 -298 c 1
 20 -255 l 1
 58 -247 86 -213 91 -167 c 1
 35 -167 l 1
 54 -60 l 1
EndSplineSet
Ligature: 0 0 'liga' l uni0327
EndChar
StartChar: ncommaaccent
Encoding: 379 326 273
Width: 501
Flags: W
HStem: 0 21G<53 168 333 448> 428 118<334 391>
VStem: 394 122<368 413>
DStem: 146 532 221 305 53 0 168 0 191 -60 289 -60 172 -167 272 -155 389 323 512 368 333 0 448 0
Fore
256 532 m 1
 242 451 l 1
 288 519 330 546 391 546 c 0
 469 546 516 496 516 413 c 0
 516 399 515 384 512 368 c 1
 448 0 l 1
 333 0 l 1
 389 323 l 2
 392 341 394 358 394 368 c 0
 394 406 372 428 334 428 c 0
 278 428 234 381 221 305 c 2
 168 0 l 1
 53 0 l 1
 146 532 l 1
 256 532 l 1
191 -60 m 1
 289 -60 l 1
 272 -155 l 1
 263 -233 212 -292 149 -298 c 1
 157 -255 l 1
 195 -247 223 -213 228 -167 c 1
 172 -167 l 1
 191 -60 l 1
EndSplineSet
Ligature: 0 0 'liga' n uni0327
EndChar
StartChar: omacron
Encoding: 380 333 274
Width: 501
Flags: W
HStem: -14 118<248 269> 428 118<324 346> 604 74<226 497>
VStem: 67 119<188 211> 407 120<321 344>
Fore
346 546 m 0
 458 546 527 468 527 342 c 0
 527 252 495 152 448 90 c 0
 397 23 325 -14 248 -14 c 0
 136 -14 67 64 67 190 c 0
 67 391 189 546 346 546 c 0
324 428 m 0
 280 428 243 403 220 355 c 0
 200 316 186 256 186 209 c 0
 186 140 214 104 269 104 c 0
 313 104 350 129 374 177 c 0
 394 216 407 276 407 324 c 0
 407 392 379 428 324 428 c 0
510 678 m 1
 497 604 l 1
 214 604 l 1
 227 678 l 1
 510 678 l 1
EndSplineSet
Ligature: 0 0 'liga' o uni0304
EndChar
StartChar: rcommaaccent
Encoding: 381 343 275
Width: 319
Flags: W
HStem: 0 21G<52 167> 404 142<347 379>
DStem: 47 -60 145 -60 28 -167 128 -155 145 532 215 277 52 0 167 0
Fore
52 0 m 1
 145 532 l 1
 255 532 l 1
 238 437 l 1
 291 521 323 546 379 546 c 0
 383 546 389 545 401 544 c 1
 376 402 l 1
 365 404 360 404 347 404 c 0
 273 404 230 363 215 277 c 2
 167 0 l 1
 52 0 l 1
47 -60 m 1
 145 -60 l 1
 128 -155 l 1
 119 -233 68 -292 5 -298 c 1
 13 -255 l 1
 51 -247 79 -213 84 -167 c 1
 28 -167 l 1
 47 -60 l 1
EndSplineSet
Ligature: 0 0 'liga' r uni0327
EndChar
StartChar: umacron
Encoding: 382 363 276
Width: 501
Flags: W
HStem: -14 118<199 260> 512 20G<147 262 425 540> 604 74<226 497>
VStem: 80 121<120 168>
DStem: 147 532 262 532 85 182 204 202 425 532 540 532 371 225 447 0
Fore
540 532 m 1
 447 0 l 1
 337 0 l 1
 351 78 l 1
 306 13 262 -14 199 -14 c 0
 123 -14 80 34 80 120 c 0
 80 140 82 161 85 182 c 1
 147 532 l 1
 262 532 l 1
 204 202 l 2
 202 191 201 180 201 168 c 0
 201 126 221 104 260 104 c 0
 316 104 358 150 371 225 c 2
 425 532 l 1
 540 532 l 1
510 678 m 1
 497 604 l 1
 214 604 l 1
 227 678 l 1
 510 678 l 1
EndSplineSet
Ligature: 0 0 'liga' u uni0304
EndChar
StartChar: uogonek
Encoding: 383 371 277
Width: 501
Flags: W
HStem: -228 56<352 373> -14 118<199 260> 512 20G<147 262 425 540>
VStem: 80 121<120 168> 264 79<-151 -136>
DStem: 147 532 262 532 85 182 204 202 425 532 540 532 371 225 447 0
Fore
540 532 m 1
 447 0 l 1
 382 -46 343 -97 343 -136 c 0
 343 -157 356 -172 373 -172 c 0
 388 -172 412 -166 438 -155 c 1
 444 -204 l 1
 400 -222 379 -228 352 -228 c 0
 300 -228 264 -197 264 -151 c 0
 264 -115 284 -71 316 -40 c 0
 333 -24 344 -17 378 0 c 1
 337 0 l 1
 351 78 l 1
 306 13 262 -14 199 -14 c 0
 123 -14 80 34 80 120 c 0
 80 140 82 161 85 182 c 1
 147 532 l 1
 262 532 l 1
 204 202 l 2
 202 191 201 180 201 168 c 0
 201 126 221 104 260 104 c 0
 316 104 358 150 371 225 c 2
 425 532 l 1
 540 532 l 1
EndSplineSet
Ligature: 0 0 'liga' u uni0328
EndChar
StartChar: rcaron
Encoding: 384 345 278
Width: 319
Flags: W
HStem: 0 21G<52 167> 404 142<347 379> 604 146<146 316>
DStem: 145 532 215 277 52 0 167 0 146 750 239 750 214 604 276 668 342 750 435 750 276 668 316 604
Fore
52 0 m 1
 145 532 l 1
 255 532 l 1
 238 437 l 1
 291 521 323 546 379 546 c 0
 383 546 389 545 401 544 c 1
 376 402 l 1
 365 404 360 404 347 404 c 0
 273 404 230 363 215 277 c 2
 167 0 l 1
 52 0 l 1
435 750 m 1
 316 604 l 1
 214 604 l 1
 146 750 l 1
 239 750 l 1
 276 668 l 1
 342 750 l 1
 435 750 l 1
EndSplineSet
Ligature: 0 0 'liga' r uni030C
EndChar
StartChar: scedilla
Encoding: 385 351 279
Width: 456
Flags: W
HStem: -228 57<163 181> -96 188<194 251> 440 106<296 317>
VStem: 52 119<129 154> 101 119<335 382> 221 77<-126 -111> 338 121<154 200> 365 114<370 404>
DStem: 197 -12 244 -14 146 -84 214 -55
Fore
244 -14 m 1xee
 214 -55 l 1
 224 -52 231 -51 239 -51 c 0
 274 -51 298 -76 298 -111 c 0
 298 -176 244 -228 175 -228 c 0
 148 -228 130 -223 88 -203 c 1
 115 -155 l 1
 144 -166 161 -171 174 -171 c 0
 199 -171 221 -149 221 -124 c 0
 221 -108 210 -96 194 -96 c 0
 187 -96 175 -99 160 -104 c 1
 146 -84 l 1
 197 -12 l 1
 102 -1 52 48 52 129 c 0
 52 140 53 155 54 170 c 1
 172 170 l 1
 171 162 171 155 171 150 c 0
 171 113 200 92 251 92 c 0
 302 92 338 118 338 154 c 0xf6
 338 177 308 195 252 206 c 0
 151 225 101 268 101 335 c 0
 101 368 111 405 127 437 c 0
 164 509 229 546 317 546 c 0
 425 546 479 499 479 404 c 0
 479 398 479 384 478 370 c 1
 365 370 l 1
 365 377 l 1
 365 388 l 1xed
 363 423 342 440 298 440 c 0
 251 440 220 417 220 382 c 0
 220 360 249 343 305 331 c 0
 373 318 428 288 446 255 c 0
 455 238 459 221 459 200 c 0
 459 129 421 58 364 22 c 0
 329 0 294 -10 244 -14 c 1xee
EndSplineSet
Ligature: 0 0 'liga' s uni0327
EndChar
StartChar: gcommaaccent
Encoding: 386 291 280
Width: 501
Flags: W
HStem: -217 106<203 226> -3 118<219 262> 425 121<304 325>
VStem: 31 126<-84 -57> 71 120<184 216>
DStem: 323 701 423 713 306 606 404 606
Fore
436 532 m 1xe8
 546 532 l 1
 458 28 l 2
 443 -59 419 -114 381 -151 c 0
 338 -194 275 -217 203 -217 c 0
 95 -217 31 -168 31 -84 c 0
 31 -78 31 -67 32 -57 c 1
 157 -57 l 1xf0
 157 -72 158 -79 161 -85 c 0
 169 -102 192 -111 224 -111 c 0
 290 -111 325 -74 340 11 c 2
 352 80 l 1
 311 18 277 -3 219 -3 c 0
 126 -3 71 66 71 184 c 0
 71 384 178 546 310 546 c 0
 371 546 404 517 421 450 c 1
 436 532 l 1xe8
315 425 m 0
 248 425 191 328 191 212 c 0xe8
 191 150 217 115 262 115 c 0
 302 115 336 139 359 183 c 0
 378 221 390 273 390 319 c 0
 390 385 361 425 315 425 c 0
404 606 m 1
 306 606 l 1
 323 701 l 1
 332 779 384 838 446 844 c 1
 439 801 l 1
 400 793 373 759 368 713 c 1
 423 713 l 1
 404 606 l 1
EndSplineSet
Ligature: 0 0 'liga' g uni0327
EndChar
StartChar: iogonek
Encoding: 387 303 281
Width: 228
Flags: W
HStem: -228 56<77 98> -20 20G<57 103> 512 20G<150 265> 705 20G<184 298>
VStem: -11 79<-151 -136>
DStem: 150 532 265 532 57 0 172 0 184 725 298 725 161 595 276 595
Fore
265 532 m 1
 172 0 l 1
 107 -46 68 -97 68 -136 c 0
 68 -157 81 -172 98 -172 c 0
 113 -172 137 -166 163 -155 c 1
 169 -204 l 1
 125 -222 104 -228 77 -228 c 0
 25 -228 -11 -197 -11 -151 c 0
 -11 -115 9 -71 41 -40 c 0
 59 -23 68 -17 103 0 c 1
 57 0 l 1
 150 532 l 1
 265 532 l 1
298 725 m 1
 276 595 l 1
 161 595 l 1
 184 725 l 1
 298 725 l 1
EndSplineSet
Ligature: 0 0 'liga' i uni0328
EndChar
StartChar: Scommaaccent
Encoding: 388 536 282
Width: 547
Flags: W
HStem: -19 124<273 300> 613 124<366 392>
VStem: 66 121<162 194> 126 120<463 509> 433 124<213 262> 467 121<526 556>
DStem: 214 -60 312 -60 195 -167 295 -155
Fore
71 221 m 1xe8
 189 221 l 1
 188 210 187 201 187 194 c 0
 187 137 226 105 296 105 c 0
 379 105 433 148 433 213 c 0xe8
 433 248 411 266 341 287 c 2
 281 305 l 2
 224 322 182 341 165 358 c 0
 141 381 126 421 126 463 c 0
 126 526 149 594 185 642 c 0
 232 703 305 737 392 737 c 0
 470 737 527 711 558 663 c 0
 576 633 588 592 588 556 c 0
 588 543 587 526 584 505 c 1
 467 505 l 1
 467 526 l 2
 467 582 431 613 367 613 c 0
 295 613 246 571 246 509 c 0xd4
 246 479 259 464 297 452 c 2
 433 409 l 2
 521 381 557 338 557 262 c 0
 557 188 526 109 477 60 c 0
 427 9 355 -19 273 -19 c 0
 191 -19 126 10 94 60 c 0
 77 87 66 127 66 162 c 0
 66 176 68 197 71 221 c 1xe8
214 -60 m 1
 312 -60 l 1
 295 -155 l 1
 286 -233 235 -292 172 -298 c 1
 180 -255 l 1
 218 -247 246 -213 251 -167 c 1
 195 -167 l 1
 214 -60 l 1
EndSplineSet
Ligature: 0 0 'liga' S uni0326
EndChar
StartChar: Eth
Encoding: 389 208 283
Width: 592
Flags: W
HStem: 0 124<205 340> 316 124<72 117 260 374> 594 124<188 420>
VStem: 509 128<460 487>
DStem: 117 316 238 316 62 0 205 124 188 718 287 594 139 440 260 440
Fore
117 316 m 1
 51 316 l 1
 73 440 l 1
 139 440 l 1
 188 718 l 1
 448 718 l 2
 502 718 551 700 581 668 c 0
 615 633 637 561 637 485 c 0
 637 352 593 206 524 114 c 0
 467 37 399 0 318 0 c 2
 62 0 l 1
 117 316 l 1
287 594 m 1
 260 440 l 1
 396 440 l 1
 374 316 l 1
 238 316 l 1
 205 124 l 1
 324 124 l 2
 377 124 421 158 455 223 c 0
 488 287 509 380 509 462 c 0
 509 552 476 594 405 594 c 2
 287 594 l 1
EndSplineSet
EndChar
StartChar: Dcroat
Encoding: 390 272 284
Width: 592
Flags: W
HStem: 0 124<205 340> 316 124<72 117 260 374> 594 124<188 420>
VStem: 509 128<460 487>
DStem: 117 316 238 316 62 0 205 124 188 718 287 594 139 440 260 440
Fore
117 316 m 1
 51 316 l 1
 73 440 l 1
 139 440 l 1
 188 718 l 1
 448 718 l 2
 502 718 551 700 581 668 c 0
 615 633 637 561 637 485 c 0
 637 352 593 206 524 114 c 0
 467 37 399 0 318 0 c 2
 62 0 l 1
 117 316 l 1
287 594 m 1
 260 440 l 1
 396 440 l 1
 374 316 l 1
 238 316 l 1
 205 124 l 1
 324 124 l 2
 377 124 421 158 455 223 c 0
 488 287 509 380 509 462 c 0
 509 552 476 594 405 594 c 2
 287 594 l 1
EndSplineSet
EndChar
StartChar: Thorn
Encoding: 391 222 285
Width: 547
Flags: W
HStem: 0 21G<62 185> 159 124<234 367> 698 20G<187 310>
VStem: 463 125<425 451>
DStem: 187 718 272 496 62 0 234 283 187 718 213 159 62 0 185 0
Fore
62 0 m 1
 187 718 l 1
 310 718 l 1
 293 620 l 1
 439 620 l 2
 533 620 588 558 588 451 c 0
 588 378 562 301 520 245 c 0
 476 188 421 159 354 159 c 2
 213 159 l 1
 185 0 l 1
 62 0 l 1
234 283 m 1
 349 283 l 2
 393 283 424 301 443 337 c 0
 455 360 463 396 463 425 c 0
 463 474 433 496 369 496 c 2
 272 496 l 1
 234 283 l 1
EndSplineSet
EndChar
StartChar: dcroat
Encoding: 392 273 286
Width: 501
Flags: W
HStem: -14 115<208 259> 425 121<304 324> 596 67<335 441 567 605> 596 122<462 605>
VStem: 67 120<180 211>
DStem: 441 596 556 596 417 460 452 0
Fore
567 663 m 1xe8
 617 663 l 1
 605 596 l 1xe8
 556 596 l 1xd8
 452 0 l 1
 339 0 l 1
 352 70 l 1
 312 12 267 -14 208 -14 c 0
 119 -14 67 57 67 180 c 0
 67 383 173 546 305 546 c 0
 361 546 393 521 417 460 c 1
 441 596 l 1xe8
 324 596 l 1xd8
 336 663 l 1
 452 663 l 1xe8
 462 718 l 1
 577 718 l 1xd8
 567 663 l 1xe8
318 425 m 0
 278 425 244 400 221 355 c 0
 201 315 187 257 187 209 c 0
 187 139 212 101 259 101 c 0
 335 101 393 196 393 321 c 0
 393 390 367 425 318 425 c 0
EndSplineSet
EndChar
StartChar: eth
Encoding: 393 240 287
Width: 501
Flags: W
HStem: -14 118<248 270> 405 118<312 325>
VStem: 67 119<189 212> 405 129<301 388>
Fore
549 685 m 1
 459 641 l 1
 513 554 534 484 534 388 c 0
 534 279 499 163 444 91 c 0
 392 23 323 -14 248 -14 c 0
 136 -14 67 64 67 189 c 0
 67 371 182 523 319 523 c 0
 365 523 393 506 417 460 c 1
 406 510 390 545 356 591 c 1
 260 544 l 1
 217 596 l 1
 314 643 l 1
 293 664 277 678 262 688 c 1
 359 737 l 1
 381 724 397 712 416 693 c 1
 507 737 l 1
 549 685 l 1
323 405 m 0
 247 405 186 318 186 210 c 0
 186 142 216 104 270 104 c 0
 313 104 349 130 374 177 c 0
 393 216 405 262 405 301 c 0
 405 366 374 405 323 405 c 0
EndSplineSet
EndChar
StartChar: thorn
Encoding: 394 254 288
Width: 501
Flags: W
HStem: -14 115<270 290> 425 121<332 387> 698 20G<176 291>
VStem: 407 122<321 358>
DStem: 176 718 291 718 15 -207 246 461 176 718 178 71 15 -207 130 -207
Fore
178 71 m 1
 130 -207 l 1
 15 -207 l 1
 176 718 l 1
 291 718 l 1
 246 461 l 1
 291 522 331 546 387 546 c 0
 475 546 529 474 529 358 c 0
 529 255 495 143 443 73 c 0
 400 15 348 -14 288 -14 c 0
 228 -14 198 10 178 71 c 1
332 425 m 0
 292 425 258 401 237 357 c 0
 215 312 201 252 201 202 c 0
 201 138 229 101 278 101 c 0
 316 101 349 126 373 174 c 0
 394 217 407 272 407 321 c 0
 407 389 381 425 332 425 c 0
EndSplineSet
EndChar
StartChar: Euro
Encoding: 395 8364 289
Width: 467
Flags: W
HStem: -15 113<247 273> 231 83<45 79 242 301> 343 83<69 101 266 361> 557 113<340 363>
VStem: 72 139<136 162>
Fore
301 231 m 1
 225 231 l 1
 212 172 211 165 211 145 c 0
 211 114 229 98 263 98 c 0
 309 98 345 110 381 138 c 1
 351 -1 l 1
 324 -10 287 -15 247 -15 c 0
 130 -15 72 39 72 148 c 0
 72 177 74 198 79 231 c 1
 0 231 l 1
 46 314 l 1
 94 314 l 1
 97 326 98 332 101 343 c 1
 24 343 l 1
 70 426 l 1
 120 426 l 1
 150 532 150 533 165 564 c 0
 200 634 259 670 342 670 c 0
 412 670 473 646 507 605 c 1
 446 501 l 1
 417 538 385 557 349 557 c 0
 315 557 296 536 279 482 c 0
 275 469 275 469 266 426 c 1
 407 426 l 1
 361 343 l 1
 249 343 l 1
 246 330 244 323 242 314 c 1
 347 314 l 1
 301 231 l 1
EndSplineSet
EndChar
StartChar: onesuperior
Encoding: 396 185 290
Width: 273
Flags: W
HStem: 574 62<131 211> 690 20G<248 318>
DStem: 211 574 318 710 161 283 243 283
Fore
121 574 m 1
 132 636 l 1
 143 636 l 2
 200 636 235 661 248 710 c 1
 318 710 l 1
 243 283 l 1
 161 283 l 1
 211 574 l 1
 121 574 l 1
EndSplineSet
EndChar
StartChar: twosuperior
Encoding: 397 178 291
Width: 273
Flags: W
HStem: 283 82<177 315> 643 79<246 261>
VStem: 290 78<586 606>
Fore
181 558 m 1
 109 558 l 1
 119 609 129 634 148 662 c 0
 175 700 217 722 261 722 c 0
 326 722 368 676 368 606 c 0
 368 561 351 516 322 481 c 1
 303 460 301 458 239 416 c 0
 211 396 188 377 177 365 c 1
 330 365 l 1
 315 283 l 1
 57 283 l 1
 77 370 107 409 212 482 c 1
 267 522 290 555 290 593 c 0
 290 622 273 643 248 643 c 0
 213 643 192 617 181 558 c 1
EndSplineSet
EndChar
StartChar: threesuperior
Encoding: 398 179 292
Width: 273
Flags: W
HStem: 271 75<181 198> 479 64<187 210> 647 75<242 259>
VStem: 75 74<379 403> 259 82<426 446> 281 80<610 630>
Fore
78 425 m 1xf8
 151 425 l 1
 150 416 149 408 149 403 c 0
 149 366 165 346 194 346 c 0
 232 346 259 383 259 435 c 0xf8
 259 467 240 479 187 479 c 1
 198 543 l 1
 210 543 l 2
 258 543 281 565 281 610 c 0xf4
 281 634 268 647 244 647 c 0
 211 647 190 627 182 585 c 1
 112 585 l 1
 121 625 129 645 147 668 c 0
 173 702 214 722 259 722 c 0xf8
 322 722 361 687 361 630 c 0xf4
 361 579 339 541 297 520 c 1
 327 507 341 484 341 446 c 0
 341 350 269 271 181 271 c 0
 115 271 75 312 75 379 c 0
 75 390 76 408 78 425 c 1xf8
EndSplineSet
EndChar
StartChar: degree
Encoding: 399 176 293
Width: 328
Flags: W
HStem: 426 56<237 250> 656 56<276 288>
VStem: 143 47<537 555> 336 47<585 601>
Fore
288 712 m 0
 343 712 383 664 383 599 c 0
 383 510 313 426 238 426 c 0
 183 426 143 474 143 539 c 0
 143 628 214 712 288 712 c 0
278 656 m 0
 233 656 190 605 190 550 c 0
 190 511 214 482 248 482 c 0
 293 482 336 533 336 587 c 0
 336 627 311 656 278 656 c 0
EndSplineSet
EndChar
StartChar: minus
Encoding: 400 8722 294
Width: 479
Flags: W
HStem: 197 112<86 480>
Fore
480 197 m 1
 67 197 l 1
 87 309 l 1
 500 309 l 1
 480 197 l 1
EndSplineSet
EndChar
StartChar: multiply
Encoding: 401 215 295
Width: 479
Flags: W
DStem: 107 426 186 505 219 253 297 332 219 253 270 174 47 80 99 1 270 174 348 253 381 1 461 80 469 505 520 426 297 332 348 253
Fore
219 253 m 1
 107 426 l 1
 186 505 l 1
 297 332 l 1
 469 505 l 1
 520 426 l 1
 348 253 l 1
 461 80 l 1
 381 1 l 1
 270 174 l 1
 99 1 l 1
 47 80 l 1
 219 253 l 1
EndSplineSet
EndChar
StartChar: divide
Encoding: 402 247 296
Width: 479
Flags: W
HStem: -42 177<233 264> 197 112<86 480> 371 177<305 336>
VStem: 174 148<28 63> 246 148<441 476>
CounterMasks: 1 00
Fore
480 197 m 1xe0
 67 197 l 1
 87 309 l 1
 500 309 l 1
 480 197 l 1xe0
336 548 m 0
 369 548 394 517 394 476 c 0
 394 425 348 371 305 371 c 0
 272 371 246 401 246 441 c 0xe8
 246 496 290 548 336 548 c 0
264 135 m 0
 297 135 322 104 322 63 c 0
 322 12 276 -42 233 -42 c 0
 200 -42 174 -11 174 28 c 0xf0
 174 83 218 135 264 135 c 0
EndSplineSet
EndChar
StartChar: trademark
Encoding: 403 8482 297
Width: 820
Flags: W
HStem: 633 85<160 240 161 426>
DStem: 240 633 331 633 182 306 274 306 505 718 570 593 433 306 520 306 570 593 630 718 602 306 664 468 783 718 800 593 664 468 668 306 800 593 909 718 750 306 837 306
Fore
630 718 m 1
 664 468 l 1
 783 718 l 1
 909 718 l 1
 837 306 l 1
 750 306 l 1
 800 593 l 1
 668 306 l 1
 602 306 l 1
 570 593 l 1
 520 306 l 1
 433 306 l 1
 505 718 l 1
 630 718 l 1
441 718 m 1
 426 633 l 1
 331 633 l 1
 274 306 l 1
 182 306 l 1
 240 633 l 1
 146 633 l 1
 161 718 l 1
 441 718 l 1
EndSplineSet
Ligature: 0 1 'liga' T M
EndChar
StartChar: plusminus
Encoding: 404 177 298
Width: 479
Flags: W
HStem: 0 112<51 446> 269 112<98 240 352 493>
DStem: 240 269 332 269 218 143 310 143 294 578 386 578 260 381 352 381
Fore
260 381 m 1
 294 578 l 1
 386 578 l 1
 352 381 l 1
 512 381 l 1
 493 269 l 1
 332 269 l 1
 310 143 l 1
 218 143 l 1
 240 269 l 1
 80 269 l 1
 99 381 l 1
 260 381 l 1
33 0 m 1
 52 112 l 1
 465 112 l 1
 446 0 l 1
 33 0 l 1
EndSplineSet
EndChar
StartChar: onehalf
Encoding: 405 189 299
Width: 684
Flags: W
HStem: 0 82<513 651> 360 79<582 597> 574 62<131 211> 690 20G<248 318 586 650>
VStem: 626 78<308 323>
DStem: 211 574 318 710 161 283 244 283 586 710 650 710 108 -19 173 -19
Fore
108 -19 m 1
 586 710 l 1
 650 710 l 1
 173 -19 l 1
 108 -19 l 1
121 574 m 1
 132 636 l 1
 143 636 l 2
 200 636 235 661 248 710 c 1
 318 710 l 1
 244 283 l 1
 161 283 l 1
 211 574 l 1
 121 574 l 1
517 275 m 1
 445 275 l 1
 455 326 464 351 484 379 c 0
 510 417 552 439 597 439 c 0
 662 439 704 393 704 323 c 0
 704 278 687 233 658 198 c 1
 639 177 637 175 575 133 c 0
 549 115 523 93 513 82 c 1
 666 82 l 1
 651 0 l 1
 393 0 l 1
 412 87 443 126 548 199 c 1
 603 239 626 272 626 310 c 0
 626 339 609 360 584 360 c 0
 549 360 528 334 517 275 c 1
EndSplineSet
Ligature: 0 1 'frac' one slash two
Ligature: 0 1 'frac' one fraction two
EndChar
StartChar: onequarter
Encoding: 406 188 300
Width: 684
Flags: W
HStem: 0 21G<509 587> 90 67<445 525 615 644> 574 62<131 211> 690 20G<248 318 586 650>
DStem: 211 574 318 710 161 283 244 283 525 90 603 90 509 0 587 0 572 424 574 343 388 164 445 157 586 710 650 710 108 -19 173 -19
Fore
661 424 m 1
 615 159 l 1
 656 159 l 1
 644 90 l 1
 603 90 l 1
 587 0 l 1
 509 0 l 1
 525 90 l 1
 375 90 l 1
 388 164 l 1
 572 424 l 1
 661 424 l 1
445 157 m 1
 540 157 l 1
 559 264 563 288 574 343 c 1
 445 157 l 1
108 -19 m 1
 586 710 l 1
 650 710 l 1
 173 -19 l 1
 108 -19 l 1
121 574 m 1
 132 636 l 1
 143 636 l 2
 200 636 235 661 248 710 c 1
 318 710 l 1
 244 283 l 1
 161 283 l 1
 211 574 l 1
 121 574 l 1
EndSplineSet
Ligature: 0 1 'frac' one slash four
Ligature: 0 1 'frac' one fraction four
EndChar
StartChar: threequarters
Encoding: 407 190 301
Width: 684
Flags: W
HStem: 0 21G<536 614> 90 69<472 552 642 671> 271 75<188 205> 479 64<194 217> 647 75<249 266>
VStem: 82 74<378 403> 265 82<426 446> 288 80<610 630>
DStem: 552 90 630 90 536 0 614 0 599 424 597 339 415 164 472 159 622 710 686 710 144 -19 209 -19
Fore
688 424 m 1xfc
 642 159 l 1
 683 159 l 1
 671 90 l 1
 630 90 l 1
 614 0 l 1
 536 0 l 1
 552 90 l 1
 402 90 l 1
 415 164 l 1
 599 424 l 1
 688 424 l 1xfc
472 159 m 1
 564 159 l 1
 582 260 587 290 597 339 c 1
 472 159 l 1
144 -19 m 1
 622 710 l 1
 686 710 l 1
 209 -19 l 1
 144 -19 l 1
85 425 m 1
 159 425 l 1
 157 415 156 406 156 401 c 0
 156 366 172 346 201 346 c 0
 239 346 265 383 265 435 c 0xfe
 265 467 247 479 194 479 c 1
 205 543 l 1
 217 543 l 2
 265 543 288 565 288 610 c 0
 288 635 275 647 251 647 c 0
 218 647 197 626 189 585 c 1
 119 585 l 1
 128 625 136 645 154 668 c 0
 180 702 221 722 266 722 c 0
 329 722 368 687 368 630 c 0xfd
 368 579 346 541 304 520 c 1
 333 507 347 484 347 446 c 0xfe
 347 350 275 271 188 271 c 0
 123 271 82 312 82 378 c 0
 82 390 83 407 85 425 c 1
EndSplineSet
Ligature: 0 1 'frac' three slash four
Ligature: 0 1 'frac' three fraction four
EndChar
StartChar: commaaccent
Encoding: 408 63171 302
Width: 273
Flags: W
DStem: 77 -60 175 -60 58 -167 158 -155
Fore
77 -60 m 1
 175 -60 l 1
 158 -155 l 1
 149 -233 98 -292 35 -298 c 1
 43 -255 l 1
 81 -247 109 -213 114 -167 c 1
 58 -167 l 1
 77 -60 l 1
EndSplineSet
EndChar
StartChar: copyright
Encoding: 409 169 303
Width: 604
Flags: W
HStem: -19 88<296 319> 146 87<339 358> 492 87<397 414> 650 87<412 434>
VStem: 46 91<268 304> 203 86<308 334> 462 71<426 431> 594 91<424 452>
Fore
441 303 m 1
 514 303 l 1
 479 201 418 146 339 146 c 0
 256 146 203 211 203 310 c 0
 203 458 298 579 414 579 c 0
 490 579 539 519 533 431 c 1
 533 426 l 1
 462 426 l 1
 461 469 439 492 400 492 c 0
 338 492 289 419 289 327 c 0
 289 269 315 233 358 233 c 0
 399 233 428 257 441 303 c 1
432 737 m 0
 583 737 685 621 685 450 c 0
 685 196 507 -19 298 -19 c 0
 148 -19 46 98 46 271 c 0
 46 524 222 737 432 737 c 0
415 650 m 0
 267 650 137 481 137 287 c 0
 137 155 207 69 315 69 c 0
 463 69 594 238 594 430 c 0
 594 562 522 650 415 650 c 0
EndSplineSet
EndChar
StartChar: registered
Encoding: 410 174 304
Width: 604
Flags: W
HStem: -19 88<296 322> 156 240<383 473> 494 69<277 404> 649 88<412 433>
VStem: 45 91<267 302> 444 77<457 474> 592 92<415 451>
DStem: 277 563 337 494 206 156 319 396 277 563 307 327 206 156 278 156 341 327 419 334 388 156 473 156
Fore
307 327 m 1
 278 156 l 1
 206 156 l 1
 277 563 l 1
 402 563 l 2
 483 563 521 535 521 474 c 0
 521 432 506 388 484 364 c 0
 467 346 450 338 419 334 c 1
 473 156 l 1
 388 156 l 1
 341 327 l 1
 307 327 l 1
319 396 m 1
 383 396 l 2
 408 396 422 402 432 416 c 0
 439 426 444 445 444 459 c 0
 444 484 427 494 387 494 c 2
 337 494 l 1
 319 396 l 1
431 737 m 0
 582 737 684 621 684 449 c 0
 684 195 507 -19 298 -19 c 0
 146 -19 45 97 45 269 c 0
 45 523 221 737 431 737 c 0
414 649 m 0
 266 649 136 480 136 287 c 0
 136 155 206 69 314 69 c 0
 462 69 592 238 592 429 c 0
 592 561 520 649 414 649 c 0
EndSplineSet
EndChar
StartChar: lozenge
Encoding: 411 9674 305
Width: 405
Flags: W
HStem: 0 21G<171 220>
DStem: 80 377 171 376 171 0 223 152 303 591 355 740 355 374 447 374 304 740 303 591 80 377 171 376 355 374 447 374 223 152 220 0
Fore
171 0 m 1
 80 377 l 1
 304 740 l 1
 355 740 l 1
 447 374 l 1
 220 0 l 1
 171 0 l 1
223 152 m 1
 355 374 l 1
 303 591 l 1
 171 376 l 1
 223 152 l 1
EndSplineSet
EndChar
StartChar: Delta
Encoding: 412 8710 306
Width: 502
Flags: W
HStem: 0 51<63 499>
DStem: 238 509 268 688 393 51 499 0 268 688 238 509 5 0 63 51
Fore
5 0 m 1
 268 688 l 1
 499 0 l 1
 5 0 l 1
63 51 m 1
 393 51 l 1
 238 509 l 1
 63 51 l 1
EndSplineSet
EndChar
StartChar: notequal
Encoding: 413 8800 307
Width: 479
Flags: W
HStem: 87 112<67 135 303 461> 307 112<105 264 432 500>
DStem: 264 307 367 307 200 199 303 199
Fore
367 307 m 1
 303 199 l 1
 481 199 l 1
 461 87 l 1
 238 87 l 1
 177 -16 l 1
 104 34 l 1
 135 87 l 1
 48 87 l 1
 68 199 l 1
 200 199 l 1
 264 307 l 1
 86 307 l 1
 106 419 l 1
 330 419 l 1
 390 522 l 1
 463 472 l 1
 432 419 l 1
 519 419 l 1
 500 307 l 1
 367 307 l 1
EndSplineSet
Ligature: 0 1 'liga' equal uni0338
EndChar
StartChar: radical
Encoding: 414 8730 308
Width: 450
Flags: W
DStem: 160 418 238 563 262 -35 315 230 526 918 605 903 315 230 318 -35
Fore
262 -35 m 1
 160 418 l 1
 73 371 l 1
 54 463 l 1
 238 563 l 1
 315 230 l 1
 526 918 l 1
 605 903 l 1
 318 -35 l 1
 262 -35 l 1
EndSplineSet
EndChar
StartChar: lessequal
Encoding: 415 8804 309
Width: 479
Flags: W
HStem: 0 112<53 448>
DStem: 95 350 235 404 471 135 493 258 565 672 543 549 114 457 235 404
Fore
471 135 m 1
 95 350 l 1
 114 457 l 1
 565 672 l 1
 543 549 l 1
 235 404 l 1
 493 258 l 1
 471 135 l 1
448 0 m 1
 34 0 l 1
 54 112 l 1
 467 112 l 1
 448 0 l 1
EndSplineSet
EndChar
StartChar: greaterequal
Encoding: 416 8805 310
Width: 479
Flags: W
HStem: 0 112<53 448>
DStem: 130 548 151 671 385 404 527 456 385 404 509 351 79 259 58 137
Fore
58 137 m 1
 79 259 l 1
 385 404 l 1
 130 548 l 1
 151 671 l 1
 527 456 l 1
 509 351 l 1
 58 137 l 1
34 0 m 1
 54 112 l 1
 467 112 l 1
 448 0 l 1
 34 0 l 1
EndSplineSet
EndChar
StartChar: logicalnot
Encoding: 417 172 311
Width: 479
Flags: W
HStem: 307 112<105 408>
DStem: 408 307 519 419 373 108 465 108
Fore
373 108 m 1
 408 307 l 1
 86 307 l 1
 106 419 l 1
 519 419 l 1
 465 108 l 1
 373 108 l 1
EndSplineSet
EndChar
StartChar: summation
Encoding: 418 8721 312
Width: 585
Flags: W
HStem: -123 112<134 526> 587 165<19 519> 711 41<19 381>
DStem: 19 752 145 711 210 285 299 341 210 285 299 341 12 -123 134 -11
Fore
145 711 m 1xa0
 299 341 l 1
 134 -11 l 1
 403 -11 l 2
 498 -11 523 6 549 87 c 1
 570 87 l 1
 526 -123 l 1
 12 -123 l 1
 210 285 l 1
 19 752 l 1
 511 752 l 1
 519 587 l 1
 497 587 l 1xc0
 483 689 459 711 364 711 c 2
 145 711 l 1xa0
EndSplineSet
EndChar
StartChar: partialdiff
Encoding: 419 8706 313
Width: 405
Flags: W
HStem: -21 52<160 173> 346 66<253 274> 674 69<287 301>
VStem: 39 85<104 135> 386 79<495 534>
Fore
197 640 m 1
 162 709 l 1
 228 736 253 743 289 743 c 0
 393 743 465 641 465 495 c 0
 465 395 433 267 380 153 c 0
 329 43 252 -21 171 -21 c 0
 95 -21 39 45 39 135 c 0
 39 196 64 267 106 322 c 0
 151 382 200 412 253 412 c 0
 294 412 321 398 360 357 c 1
 378 427 386 481 386 534 c 0
 386 626 356 674 299 674 c 0
 268 674 247 667 197 640 c 1
342 299 m 1
 319 333 301 346 274 346 c 0
 200 346 124 223 124 104 c 0
 124 58 141 31 169 31 c 0
 202 31 240 60 268 108 c 0
 297 157 312 197 342 299 c 1
EndSplineSet
EndChar
StartChar: brokenbar
Encoding: 420 166 314
Width: 230
Flags: W
HStem: -19 21G<66 158> 717 20G<197 289>
DStem: 116 271 208 271 66 -19 158 -19 197 737 289 737 147 447 239 447
Fore
66 -19 m 1
 116 271 l 1
 208 271 l 1
 158 -19 l 1
 66 -19 l 1
147 447 m 1
 197 737 l 1
 289 737 l 1
 239 447 l 1
 147 447 l 1
EndSplineSet
EndChar
StartChar: mu
Encoding: 421 181 315
Width: 501
Flags: W
HStem: -14 118<226 260> 512 20G<147 262 425 540>
DStem: 147 532 262 532 18 -207 204 202 147 532 171 12 18 -207 133 -207 425 532 540 532 372 225 447 0
Fore
540 532 m 1
 447 0 l 1
 337 0 l 1
 351 78 l 1
 308 14 270 -14 226 -14 c 0
 200 -14 185 -7 171 12 c 1
 133 -207 l 1
 18 -207 l 1
 147 532 l 1
 262 532 l 1
 204 202 l 2
 202 191 201 177 201 168 c 0
 201 126 221 104 260 104 c 0
 316 104 358 150 372 225 c 1
 425 532 l 1
 540 532 l 1
EndSplineSet
EndChar
StartChar: afii10017
Encoding: 422 1040 316
Width: 592
Flags: W
HStem: 0 21G<16 146 442 576> 148 124<267 430> 698 20G<352 494>
DStem: 352 718 394 559 16 0 267 272 352 718 213 148 16 0 146 0
Fore
213 148 m 1
 146 0 l 1
 16 0 l 1
 352 718 l 1
 494 718 l 1
 576 0 l 1
 442 0 l 1
 430 148 l 1
 213 148 l 1
394 559 m 1
 267 272 l 1
 417 272 l 1
 394 559 l 1
EndSplineSet
EndChar
StartChar: afii10018
Encoding: 423 1041 317
Width: 592
Flags: W
HStem: 0 123<138 288> 315 122<194 340> 591 127<125 522>
VStem: 404 124<239 262>
DStem: 125 718 221 591 -1 0 194 437 125 718 172 315 -1 0 138 123
Fore
522 591 m 1
 221 591 l 1
 194 437 l 1
 338 437 l 2
 525 437 528 293 528 262 c 0
 528 174 494 112 446 64 c 0
 396 15 350 0 248 0 c 2
 -1 0 l 1
 125 718 l 1
 544 718 l 1
 522 591 l 1
172 315 m 1
 138 123 l 1
 289 123 l 2
 358 123 404 178 404 247 c 0
 404 290 377 315 329 315 c 2
 172 315 l 1
EndSplineSet
EndChar
StartChar: afii10019
Encoding: 424 1042 318
Width: 592
Flags: W
HStem: 0 124<202 351> 316 121<256 403> 594 124<187 445>
VStem: 467 124<247 266> 504 122<538 574>
DStem: 187 718 284 594 62 0 256 437 187 718 235 316 62 0 202 124
Fore
62 0 m 1xf0
 187 718 l 1
 474 718 l 2
 571 718 626 666 626 574 c 0xe8
 626 525 610 473 586 438 c 0
 570 416 555 404 525 387 c 1
 573 359 591 326 591 266 c 0
 591 197 565 127 520 77 c 0
 468 18 419 0 311 0 c 2
 62 0 l 1xf0
235 316 m 1
 202 124 l 1
 353 124 l 2
 393 124 423 139 443 168 c 0
 457 190 467 222 467 249 c 0xf0
 467 291 439 316 392 316 c 2
 235 316 l 1
284 594 m 1
 256 437 l 1
 401 437 l 2
 463 437 504 477 504 538 c 0xe8
 504 576 479 594 425 594 c 2
 284 594 l 1
EndSplineSet
EndChar
StartChar: afii10020
Encoding: 425 1043 319
Width: 501
Flags: W
HStem: 0 21G<62 185> 591 127<187 584>
DStem: 187 718 288 591 62 0 185 0
Fore
185 0 m 1
 62 0 l 1
 187 718 l 1
 606 718 l 1
 584 591 l 1
 288 591 l 1
 185 0 l 1
EndSplineSet
EndChar
StartChar: afii10021
Encoding: 426 1044 320
Width: 712
Flags: W
HStem: 0 123<226 528> 595 123<277 545>
DStem: -6 120 80 0 -48 -120 59 -120 528 0 656 120 507 -120 614 -120 545 595 689 718 462 123 585 120
Fore
-48 -120 m 1
 -6 120 l 1
 59 120 l 2
 121 120 206 312 237 490 c 2
 277 718 l 1
 689 718 l 1
 585 120 l 1
 656 120 l 1
 614 -120 l 1
 507 -120 l 1
 528 0 l 1
 80 0 l 1
 59 -120 l 1
 -48 -120 l 1
226 123 m 1
 462 123 l 1
 545 595 l 1
 379 595 l 1
 359 485 l 1
 339 365 294 222 226 123 c 1
EndSplineSet
EndChar
StartChar: afii10022
Encoding: 427 1045 321
Width: 547
Flags: W
HStem: 0 127<205 509> 313 127<259 524> 591 127<187 598>
DStem: 187 718 285 591 62 0 259 440 187 718 237 313 62 0 205 127
Fore
620 718 m 1
 598 591 l 1
 285 591 l 1
 259 440 l 1
 546 440 l 1
 524 313 l 1
 237 313 l 1
 205 127 l 1
 531 127 l 1
 509 0 l 1
 62 0 l 1
 187 718 l 1
 620 718 l 1
EndSplineSet
EndChar
StartChar: afii10023
Encoding: 428 1025 322
Width: 547
Flags: W
HStem: 0 127<205 509> 313 127<259 524> 591 127<187 598> 800 115<300 384 460 544>
DStem: 187 718 285 591 62 0 259 440 187 718 237 313 62 0 205 127 301 915 404 915 281 800 384 800 461 915 564 915 441 800 544 800
Fore
620 718 m 1
 598 591 l 1
 285 591 l 1
 259 440 l 1
 546 440 l 1
 524 313 l 1
 237 313 l 1
 205 127 l 1
 531 127 l 1
 509 0 l 1
 62 0 l 1
 187 718 l 1
 620 718 l 1
404 915 m 1
 384 800 l 1
 281 800 l 1
 301 915 l 1
 404 915 l 1
564 915 m 1
 544 800 l 1
 441 800 l 1
 461 915 l 1
 564 915 l 1
EndSplineSet
Ligature: 0 1 'liga' afii10022 uni0308
EndChar
StartChar: afii10024
Encoding: 429 1046 323
Width: 900
Flags: W
HStem: 0 21G<11 169 389 511 731 889> 698 20G<151 310 515 637 842 1001>
DStem: 151 718 310 718 369 374 470 460 369 374 439 284 11 0 169 0 439 284 561 284 389 0 511 0 515 718 637 718 470 460 592 460 561 284 663 374 731 0 889 0 842 718 1001 718 592 460 663 374
Fore
515 718 m 1
 637 718 l 1
 592 460 l 1
 842 718 l 1
 1001 718 l 1
 663 374 l 1
 889 0 l 1
 731 0 l 1
 561 284 l 1
 511 0 l 1
 389 0 l 1
 439 284 l 1
 169 0 l 1
 11 0 l 1
 369 374 l 1
 151 718 l 1
 310 718 l 1
 470 460 l 1
 515 718 l 1
EndSplineSet
EndChar
StartChar: afii10025
Encoding: 430 1047 324
Width: 537
Flags: W
HStem: -19 123<262 287> 614 123<370 392>
VStem: 424 123<223 266> 465 116<534 566>
Fore
255 308 m 1xe0
 276 425 l 1
 372 425 l 2
 436 425 465 483 465 534 c 4
 465 579 432 614 374 614 c 0
 301 614 259 581 237 505 c 1
 119 505 l 1
 154 655 251 737 392 737 c 0
 513 737 581 673 581 566 c 0xd0
 581 481 547 408 501 369 c 1
 533 344 547 311 547 266 c 0
 547 54 423 -19 262 -19 c 0
 159 -19 90 22 65 98 c 0
 53 134 51 163 60 221 c 1
 178 221 l 1
 169 142 203 104 285 104 c 0
 370 104 424 148 424 223 c 0
 424 265 404 308 334 308 c 2
 255 308 l 1xe0
EndSplineSet
EndChar
StartChar: afii10026
Encoding: 431 1048 325
Width: 596
Flags: W
HStem: 0 21G<58 187 423 537> 698 20G<184 298 541 663>
DStem: 184 718 298 718 58 0 207 203 512 504 663 718 423 0 537 0 541 718 512 504 207 203 187 0
Fore
512 504 m 1
 187 0 l 1
 58 0 l 1
 184 718 l 1
 298 718 l 1
 207 203 l 1
 541 718 l 1
 663 718 l 1
 537 0 l 1
 423 0 l 1
 512 504 l 1
EndSplineSet
EndChar
StartChar: afii10027
Encoding: 432 1049 326
Width: 596
Flags: W
HStem: 0 21G<58 187 423 537> 698 20G<184 298 541 663> 790 76<443 464>
VStem: 335 55<908 936>
DStem: 184 718 298 718 58 0 207 203 512 504 663 718 423 0 537 0 541 718 512 504 207 203 187 0
Fore
559 936 m 1
 612 936 l 1
 585 839 528 790 444 790 c 0
 374 790 335 832 335 908 c 0
 335 914 335 924 336 936 c 1
 390 936 l 1
 390 930 l 2
 390 885 411 866 462 866 c 0
 515 866 539 883 559 936 c 1
512 504 m 1
 187 0 l 1
 58 0 l 1
 184 718 l 1
 298 718 l 1
 207 203 l 1
 541 718 l 1
 663 718 l 1
 537 0 l 1
 423 0 l 1
 512 504 l 1
EndSplineSet
Ligature: 0 1 'liga' afii10026 uni0306
EndChar
StartChar: afii10028
Encoding: 433 1050 327
Width: 593
Flags: W
HStem: 0 21G<71 194 434 592> 698 20G<197 320 545 704>
DStem: 197 718 320 718 71 0 275 460 197 718 244 284 71 0 194 0 244 284 346 374 434 0 592 0 545 718 704 718 275 460 346 374
Fore
194 0 m 1
 71 0 l 1
 197 718 l 1
 320 718 l 1
 275 460 l 1
 545 718 l 1
 704 718 l 1
 346 374 l 1
 592 0 l 1
 434 0 l 1
 244 284 l 1
 194 0 l 1
EndSplineSet
EndChar
StartChar: afii10029
Encoding: 434 1051 328
Width: 592
Flags: W
HStem: 0 121<-48 -27> 595 123<192 459>
DStem: 459 595 604 718 355 0 478 0
Fore
459 595 m 1
 293 595 l 1
 274 485 l 1
 239 276 128 0 -48 0 c 1
 -27 121 l 1
 35 120 121 312 152 490 c 2
 192 718 l 1
 604 718 l 1
 478 0 l 1
 355 0 l 1
 459 595 l 1
EndSplineSet
EndChar
StartChar: afii10030
Encoding: 435 1052 329
Width: 686
Flags: W
HStem: 0 21G<58 173 282 402 513 628> 698 20G<183 362 575 753>
VStem: 279 83<0 718>
DStem: 183 718 279 609 58 0 173 0 279 609 362 718 282 0 370 148 575 718 619 609 370 148 402 0 619 609 753 718 513 0 628 0
Fore
753 718 m 1
 628 0 l 1
 513 0 l 1
 619 609 l 1
 402 0 l 1
 282 0 l 1
 279 609 l 1
 173 0 l 1
 58 0 l 1
 183 718 l 1
 362 718 l 1
 370 148 l 1
 575 718 l 1
 753 718 l 1
EndSplineSet
EndChar
StartChar: afii10031
Encoding: 436 1053 330
Width: 592
Flags: W
HStem: 0 21G<58 181 411 534> 322 124<259 467> 698 20G<183 306 536 659>
DStem: 183 718 306 718 58 0 259 446 183 718 237 322 58 0 181 0 467 322 659 718 411 0 534 0 536 718 659 718 489 446 534 0
Fore
467 322 m 1
 237 322 l 1
 181 0 l 1
 58 0 l 1
 183 718 l 1
 306 718 l 1
 259 446 l 1
 489 446 l 1
 536 718 l 1
 659 718 l 1
 534 0 l 1
 411 0 l 1
 467 322 l 1
EndSplineSet
EndChar
StartChar: afii10032
Encoding: 437 1054 331
Width: 638
Flags: W
HStem: -19 127<315 339> 610 127<425 449>
VStem: 88 126<245 273> 550 125<444 474>
Fore
449 737 m 0
 511 737 568 714 610 672 c 0
 651 631 675 557 675 474 c 0
 675 342 632 198 568 114 c 0
 504 30 411 -19 315 -19 c 0
 175 -19 88 82 88 245 c 0
 88 372 133 522 196 604 c 0
 260 688 353 737 449 737 c 0
426 610 m 0
 362 610 301 567 264 493 c 0
 233 432 214 348 214 271 c 0
 214 169 261 108 339 108 c 0
 457 108 550 257 550 447 c 0
 550 548 503 610 426 610 c 0
EndSplineSet
EndChar
StartChar: afii10033
Encoding: 438 1055 332
Width: 590
Flags: W
HStem: 0 21G<57 180 410 533> 595 123<183 515>
DStem: 183 718 285 595 57 0 180 0 515 595 659 718 410 0 533 0
Fore
515 595 m 1
 285 595 l 1
 180 0 l 1
 57 0 l 1
 183 718 l 1
 659 718 l 1
 533 0 l 1
 410 0 l 1
 515 595 l 1
EndSplineSet
EndChar
